<svg version="1.1" id="Layer_1" xmlns="http://www.w3.org/2000/svg" xmlns:xlink="http://www.w3.org/1999/xlink" x="0px" y="0px"
	 width="100%" viewBox="0 0 2040 2048" enable-background="new 0 0 2040 2048" xml:space="preserve">
<path fill="#048818" opacity="1.000000" stroke="none" 
	d="
M1.000000,759.000000 
	C1.000000,506.000000 1.000000,253.500000 1.000000,1.000000 
	C681.000000,1.000000 1361.000000,1.000000 2041.000000,1.000000 
	C2041.000000,683.666687 2041.000000,1366.333374 2041.000000,2049.000000 
	C1361.000000,2049.000000 681.000000,2049.000000 1.000000,2049.000000 
	C1.000000,1619.166626 1.000000,1189.333374 1.000000,759.000000 
M98.998177,858.356140 
	C97.738922,870.445862 96.197823,882.513916 95.266808,894.628845 
	C89.821404,965.487976 91.695320,1036.116211 101.801186,1106.521851 
	C111.490753,1174.027222 128.161926,1239.730347 152.148132,1303.540894 
	C183.989807,1388.249390 227.114105,1466.734375 282.348114,1538.527222 
	C333.146149,1604.554077 391.914520,1662.458130 458.728973,1712.163818 
	C526.086914,1762.273560 599.123474,1801.981323 677.929932,1831.023560 
	C752.888062,1858.647461 830.213989,1875.706299 909.730042,1882.911499 
	C981.078369,1889.376587 1052.220703,1887.195068 1123.073486,1876.808838 
	C1180.862427,1868.337769 1237.361328,1854.489868 1292.563965,1835.289551 
	C1359.049072,1812.165039 1422.120239,1781.996460 1481.467285,1744.171631 
	C1590.454590,1674.708496 1680.839233,1586.108765 1752.672729,1478.716187 
	C1834.345215,1356.614380 1882.780396,1222.203613 1899.910156,1076.474365 
	C1909.296021,996.625305 1908.081177,916.871521 1896.267212,837.282898 
	C1884.368652,757.122925 1862.277954,679.935059 1830.049683,605.586487 
	C1788.725220,510.252747 1732.553711,424.646759 1661.889893,348.561859 
	C1611.572632,294.384308 1555.495850,246.949173 1493.751465,206.213135 
	C1425.094604,160.916611 1351.638550,125.619308 1273.384521,100.378113 
	C1202.544067,77.528214 1129.931519,63.476452 1055.694336,58.199280 
	C981.577393,52.930649 907.818909,56.324986 834.592346,69.184784 
	C762.145874,81.907585 692.243164,103.101196 625.015686,133.015121 
	C557.577393,163.022812 494.879547,200.860703 437.027924,246.727631 
	C387.903046,285.675690 343.424133,329.352966 303.415405,377.601837 
	C248.327911,444.034973 203.577011,516.844849 169.282944,596.017090 
	C133.038666,679.691589 109.940964,766.949585 98.998177,858.356140 
z"/>
<path fill="#F9FDF9" opacity="1.000000" stroke="none" 
	d="
M99.022339,857.908203 
	C109.940964,766.949585 133.038666,679.691589 169.282944,596.017090 
	C203.577011,516.844849 248.327911,444.034973 303.415405,377.601837 
	C343.424133,329.352966 387.903046,285.675690 437.027924,246.727631 
	C494.879547,200.860703 557.577393,163.022812 625.015686,133.015121 
	C692.243164,103.101196 762.145874,81.907585 834.592346,69.184784 
	C907.818909,56.324986 981.577393,52.930649 1055.694336,58.199280 
	C1129.931519,63.476452 1202.544067,77.528214 1273.384521,100.378113 
	C1351.638550,125.619308 1425.094604,160.916611 1493.751465,206.213135 
	C1555.495850,246.949173 1611.572632,294.384308 1661.889893,348.561859 
	C1732.553711,424.646759 1788.725220,510.252747 1830.049683,605.586487 
	C1862.277954,679.935059 1884.368652,757.122925 1896.267212,837.282898 
	C1908.081177,916.871521 1909.296021,996.625305 1899.910156,1076.474365 
	C1882.780396,1222.203613 1834.345215,1356.614380 1752.672729,1478.716187 
	C1680.839233,1586.108765 1590.454590,1674.708496 1481.467285,1744.171631 
	C1422.120239,1781.996460 1359.049072,1812.165039 1292.563965,1835.289551 
	C1237.361328,1854.489868 1180.862427,1868.337769 1123.073486,1876.808838 
	C1052.220703,1887.195068 981.078369,1889.376587 909.730042,1882.911499 
	C830.213989,1875.706299 752.888062,1858.647461 677.929932,1831.023560 
	C599.123474,1801.981323 526.086914,1762.273560 458.728973,1712.163818 
	C391.914520,1662.458130 333.146149,1604.554077 282.348114,1538.527222 
	C227.114105,1466.734375 183.989807,1388.249390 152.148132,1303.540894 
	C128.161926,1239.730347 111.490753,1174.027222 101.801186,1106.521851 
	C91.695320,1036.116211 89.821404,965.487976 95.266808,894.628845 
	C96.197823,882.513916 97.738922,870.445862 99.022339,857.908203 
M1693.889038,1156.841797 
	C1663.850220,1188.478394 1629.378174,1214.493286 1592.087280,1236.891235 
	C1533.485840,1272.088745 1470.366089,1296.804443 1405.252686,1316.730103 
	C1347.840210,1334.299316 1289.322998,1347.140015 1229.987305,1356.227661 
	C1177.259399,1364.303345 1124.250366,1369.619629 1070.965576,1372.286255 
	C964.264038,1377.625854 858.158020,1372.324707 752.663635,1355.168579 
	C697.701904,1346.230347 643.528381,1334.030884 590.304260,1317.582031 
	C532.260071,1299.643188 476.188293,1277.003296 422.807312,1247.918457 
	C366.153473,1217.050537 314.429077,1179.543823 269.379486,1133.137207 
	C268.420410,1132.149170 267.307495,1131.310425 265.399658,1129.645630 
	C265.967316,1132.479248 266.228882,1134.104248 266.621124,1135.697021 
	C288.470978,1224.418091 329.742065,1303.225586 388.056763,1373.301025 
	C432.176178,1426.317993 483.637634,1471.146729 540.839844,1509.472534 
	C549.041443,1514.967529 556.660278,1521.658936 567.001831,1523.501953 
	C587.151123,1527.092896 607.152466,1531.577759 627.363403,1534.746582 
	C684.522705,1543.708862 742.117126,1548.836182 799.851440,1551.841675 
	C846.265747,1554.257935 892.750305,1555.915649 939.221680,1556.516846 
	C1021.062256,1557.575439 1102.819458,1555.012451 1184.427856,1548.224731 
	C1257.699707,1542.130249 1330.435791,1532.342896 1402.511108,1517.782715 
	C1406.838135,1516.908813 1411.453735,1515.811890 1415.104858,1513.504883 
	C1446.403687,1493.728760 1476.174683,1471.838745 1504.196777,1447.621338 
	C1581.372925,1380.923584 1640.608398,1301.193848 1678.569092,1206.219971 
	C1684.971313,1190.202026 1689.637085,1173.489990 1695.645752,1156.877197 
	C1695.654541,1156.416138 1695.663330,1155.955078 1695.672119,1155.494019 
	C1695.281128,1155.859131 1694.890137,1156.224243 1693.889038,1156.841797 
M273.110718,811.178833 
	C304.474823,777.329285 339.148773,747.306396 377.117645,721.074524 
	C450.831451,670.147217 531.547424,634.265137 617.352478,609.383728 
	C697.477661,586.149353 779.347534,572.812073 862.491455,567.142700 
	C941.616455,561.747375 1020.660400,563.395325 1099.563477,571.242004 
	C1158.599365,577.113037 1217.073364,586.515259 1274.899414,599.874023 
	C1361.448853,619.868225 1445.536255,646.921997 1525.068970,687.025757 
	C1569.948364,709.655823 1612.847656,735.520996 1651.318848,768.024841 
	C1667.805298,781.954041 1682.821045,797.624084 1698.796875,812.911987 
	C1699.031982,812.872131 1699.266968,812.832336 1699.502075,812.792480 
	C1699.359741,812.507690 1699.217407,812.222900 1699.215698,811.151855 
	C1690.782227,777.165161 1679.667969,744.071838 1665.965698,711.853638 
	C1634.862305,638.720459 1593.390625,572.253601 1538.637451,514.373535 
	C1503.623535,477.360107 1464.577148,445.443268 1419.627319,421.118469 
	C1417.035645,419.716003 1413.650269,419.086090 1410.673950,419.193787 
	C1371.385864,420.615173 1332.118042,422.905212 1292.819702,423.676147 
	C1177.714966,425.934174 1062.604492,428.325806 947.484985,429.248199 
	C874.690796,429.831482 801.859680,428.577728 729.076599,426.833160 
	C676.138550,425.564270 623.246948,422.244537 570.349792,419.541687 
	C564.591675,419.247467 559.756836,420.149902 554.719177,422.868591 
	C478.068298,464.234833 418.489838,523.999268 369.607239,595.096619 
	C334.141388,646.679993 306.710968,702.419006 286.538544,761.659790 
	C281.023926,777.854614 276.723999,794.463074 271.360474,811.139709 
	C271.356415,811.594299 271.352325,812.048828 271.348236,812.503418 
	C271.746490,812.175171 272.144745,811.846863 273.110718,811.178833 
M1192.086670,1330.782593 
	C1195.374756,1330.258423 1198.654541,1329.675537 1201.952026,1329.218384 
	C1282.121460,1318.106445 1360.777954,1300.510010 1437.288208,1273.890503 
	C1500.300903,1251.967407 1560.397583,1224.096680 1614.819092,1185.014893 
	C1645.852173,1162.729248 1673.648193,1137.021240 1695.748901,1105.625977 
	C1706.510864,1090.338135 1715.247925,1074.596313 1717.135010,1054.933716 
	C1722.187500,1002.283813 1722.165039,949.815308 1715.892578,897.331726 
	C1715.484985,893.921753 1714.841919,890.272095 1713.228027,887.325684 
	C1708.914673,879.451050 1704.364258,871.657471 1699.285522,864.258972 
	C1671.947144,824.433472 1636.542114,792.828674 1597.198242,765.423706 
	C1547.084595,730.517212 1492.840088,703.387756 1436.077637,681.168884 
	C1367.059082,654.152344 1295.909912,634.594971 1223.204712,620.416016 
	C1167.550537,609.562317 1111.436279,602.277588 1054.909058,598.295410 
	C997.683838,594.264099 940.407227,593.647766 883.090027,596.810425 
	C835.473022,599.437805 788.133545,604.399048 741.148254,612.543213 
	C678.524475,623.398071 617.192444,639.166626 557.674072,661.634766 
	C485.380402,688.925415 417.982147,725.041504 357.802368,773.848022 
	C320.525360,804.080078 287.334839,838.360840 258.738770,876.982056 
	C257.512024,878.638794 256.547943,880.801453 256.307831,882.828735 
	C254.114227,901.345947 251.534470,919.843018 250.164642,938.426880 
	C247.107269,979.904724 248.074829,1021.352600 253.287842,1062.638672 
	C253.756393,1066.349609 255.461929,1070.366211 257.775299,1073.312622 
	C290.624237,1115.152344 329.331787,1150.778931 372.967102,1181.119141 
	C429.238892,1220.245605 490.242371,1250.046997 554.600037,1273.217529 
	C625.946228,1298.904175 699.347168,1316.426514 774.233093,1327.804810 
	C844.020203,1338.408569 914.269653,1343.084229 984.845215,1343.436279 
	C1053.917847,1343.780884 1122.688843,1339.525757 1192.086670,1330.782593 
M982.953125,146.500000 
	C982.953125,126.748726 982.953125,106.997444 982.953125,86.650696 
	C790.943848,89.674065 618.231628,147.197968 466.382385,263.010315 
	C479.196564,275.776154 492.101807,287.371674 503.525665,300.278442 
	C526.628113,326.379730 546.677856,354.833557 564.949585,384.511993 
	C566.804260,387.524475 568.802185,389.129425 572.428345,389.067413 
	C575.569946,389.013641 578.716125,389.729004 581.870850,389.870728 
	C628.293762,391.955658 674.700134,394.960724 721.146667,395.847809 
	C806.095093,397.470306 891.067444,397.838562 976.030090,398.706787 
	C978.450012,398.731537 980.872498,398.495514 982.954346,398.397125 
	C982.954346,314.383606 982.954346,230.941803 982.953125,146.500000 
M1107.501953,397.299652 
	C1140.823975,396.664062 1174.155518,396.341125 1207.465942,395.325958 
	C1271.089600,393.386871 1334.699585,390.998810 1398.321045,388.984558 
	C1403.546509,388.819092 1406.492920,386.868805 1409.498901,382.614960 
	C1423.330688,363.039948 1437.111328,343.386200 1451.920410,324.555054 
	C1470.776123,300.578461 1491.053223,277.809113 1516.621582,259.294830 
	C1366.279175,150.983276 1199.688965,92.252724 1014.707886,86.901031 
	C1014.707886,191.191223 1014.707886,294.716431 1014.707886,397.306885 
	C1045.852905,397.306885 1076.177856,397.306885 1107.501953,397.299652 
M811.469788,1837.138184 
	C843.875000,1842.036743 876.185303,1847.744019 908.717590,1851.558838 
	C931.663147,1854.249756 954.912903,1854.319946 978.019104,1855.690918 
	C982.037964,1855.929321 984.620911,1855.287598 983.733948,1850.466797 
	C983.644958,1849.983398 983.725403,1849.469360 983.724243,1848.969482 
	C983.532227,1762.664307 983.341187,1676.359253 983.124695,1590.054077 
	C983.122803,1589.294800 982.778625,1588.536255 982.522278,1587.481201 
	C971.370361,1587.481201 960.384155,1587.540649 949.398682,1587.471558 
	C874.733765,1587.001709 800.183105,1584.086426 725.813538,1577.153687 
	C673.399292,1572.267822 621.134949,1566.327637 569.558228,1555.465820 
	C566.333740,1554.786865 564.778076,1555.673462 563.162720,1558.315674 
	C558.737061,1565.554688 554.162720,1572.711548 549.408386,1579.739380 
	C529.322144,1609.430176 508.125702,1638.250122 482.172089,1663.203003 
	C476.714050,1668.450439 470.738098,1673.159058 464.705780,1678.371094 
	C568.205444,1757.595459 683.594421,1809.975220 811.469788,1837.138184 
M1371.539551,1554.999878 
	C1364.638672,1556.134644 1357.732666,1557.238281 1350.837891,1558.408813 
	C1288.245605,1569.034912 1225.246582,1576.510620 1161.928345,1580.660278 
	C1114.242676,1583.785400 1066.436401,1585.072388 1018.684387,1587.186035 
	C1017.237366,1587.250000 1015.794617,1587.408325 1014.298523,1587.526733 
	C1014.298523,1676.937622 1014.298523,1765.942139 1014.298523,1855.503296 
	C1194.082764,1849.515869 1356.538940,1795.539062 1504.099609,1691.837769 
	C1501.260742,1689.547974 1498.968750,1688.104126 1497.176758,1686.191650 
	C1474.822754,1662.334473 1457.430664,1634.946289 1441.150391,1606.807861 
	C1430.483765,1588.371826 1420.203613,1569.712402 1409.585449,1551.248047 
	C1408.845825,1549.962036 1406.578857,1548.531860 1405.285400,1548.747437 
	C1394.286621,1550.582031 1383.348755,1552.782837 1371.539551,1554.999878 
M1666.926636,1300.447388 
	C1609.664062,1397.869141 1530.802490,1474.272095 1436.858032,1536.342163 
	C1442.418091,1546.299927 1447.850342,1556.010986 1453.265991,1565.731323 
	C1468.907959,1593.805542 1484.535522,1621.916382 1504.370972,1647.328491 
	C1511.594727,1656.583374 1519.904297,1664.990967 1528.011353,1674.114868 
	C1648.548828,1581.019287 1739.321045,1466.101685 1800.356201,1327.911377 
	C1850.176880,1215.111938 1875.023315,1096.967896 1875.347534,973.810425 
	C1833.793213,973.810425 1793.058228,973.810425 1751.905640,973.810425 
	C1751.902588,1090.353271 1725.448242,1199.225342 1666.926636,1300.447388 
M1854.839355,780.832031 
	C1854.525024,779.538757 1854.190918,778.249878 1853.899292,776.951477 
	C1842.526855,726.336121 1827.069214,677.021179 1806.962158,629.177734 
	C1759.677612,516.667297 1691.993408,418.091400 1604.138184,333.475677 
	C1585.688599,315.706451 1565.721191,299.516724 1546.568359,282.469757 
	C1543.709106,279.924988 1541.386597,279.618317 1538.381714,281.937714 
	C1534.300049,285.088409 1529.919067,287.858459 1525.904663,291.087952 
	C1504.193970,308.553528 1486.573486,329.888824 1469.510620,351.658936 
	C1458.446899,365.774902 1448.142944,380.486206 1437.339111,395.147095 
	C1439.025879,396.245331 1439.972046,396.879150 1440.935181,397.485657 
	C1451.919922,404.402374 1463.168213,410.935852 1473.847900,418.294922 
	C1517.613037,448.452423 1555.852783,484.642731 1589.653076,525.577026 
	C1620.405884,562.820923 1646.642334,603.050354 1668.824585,645.938416 
	C1695.773804,698.043213 1716.428223,752.538391 1730.570557,809.466553 
	C1739.738037,846.368713 1746.162842,883.749634 1749.179688,921.684143 
	C1749.741577,928.749146 1750.338867,935.811340 1750.892944,942.547913 
	C1792.442505,942.547913 1833.364990,942.547913 1874.881958,942.547913 
	C1873.056152,887.881226 1866.325806,834.494202 1854.839355,780.832031 
M392.283752,326.778290 
	C306.871033,409.131226 241.495514,505.260071 195.154587,614.355469 
	C148.877884,723.299622 124.999168,836.981750 123.175041,954.992981 
	C155.318146,954.992981 186.593277,954.992981 218.265823,954.992981 
	C218.482468,952.550720 218.644272,950.763306 218.799103,948.975281 
	C220.149002,933.385986 221.142410,917.756042 222.909195,902.214111 
	C229.941727,840.350891 245.245193,780.507507 267.827332,722.534058 
	C293.928680,655.526123 329.152832,593.698730 374.059265,537.480835 
	C414.721191,486.576691 461.683594,442.642426 517.580444,408.698456 
	C523.806702,404.917450 530.151062,401.330902 536.601440,397.560211 
	C535.733398,395.964111 535.160339,394.564728 534.297729,393.375397 
	C518.085022,371.021637 502.227722,348.394958 485.464661,326.460754 
	C473.812439,311.214081 460.110077,297.793152 443.962921,287.075623 
	C440.847656,285.007904 438.743835,284.782990 435.800598,287.482971 
	C421.572113,300.535492 407.139740,313.365753 392.283752,326.778290 
M385.492523,1609.005615 
	C402.090668,1624.159058 418.737457,1639.259888 435.240082,1654.516602 
	C438.055756,1657.119385 440.298737,1657.570435 443.334717,1655.045532 
	C449.471527,1649.941406 456.158813,1645.442871 461.936829,1639.973755 
	C483.335846,1619.718750 500.776825,1596.147949 517.562317,1572.090576 
	C524.009460,1562.850220 529.984741,1553.280640 536.259460,1543.732544 
	C534.811462,1542.658569 533.894165,1541.968140 532.966553,1541.291748 
	C509.565430,1524.229858 485.502380,1507.997314 462.890076,1489.947266 
	C404.243530,1443.133423 354.730682,1387.928955 314.528961,1324.460938 
	C253.940979,1228.808350 222.758301,1124.133789 218.328827,1011.251770 
	C217.998657,1002.837524 218.285492,994.399048 218.285492,986.239624 
	C185.992722,986.239624 154.906616,986.239624 122.736328,986.239624 
	C130.416946,1228.018555 214.571762,1436.383423 385.492523,1609.005615 
z"/>
<path fill="#058819" opacity="1.000000" stroke="none" 
	d="
M1191.643677,1330.816406 
	C1122.688843,1339.525757 1053.917847,1343.780884 984.845215,1343.436279 
	C914.269653,1343.084229 844.020203,1338.408569 774.233093,1327.804810 
	C699.347168,1316.426514 625.946228,1298.904175 554.600037,1273.217529 
	C490.242371,1250.046997 429.238892,1220.245605 372.967102,1181.119141 
	C329.331787,1150.778931 290.624237,1115.152344 257.775299,1073.312622 
	C255.461929,1070.366211 253.756393,1066.349609 253.287842,1062.638672 
	C248.074829,1021.352600 247.107269,979.904724 250.164642,938.426880 
	C251.534470,919.843018 254.114227,901.345947 256.307831,882.828735 
	C256.547943,880.801453 257.512024,878.638794 258.738770,876.982056 
	C287.334839,838.360840 320.525360,804.080078 357.802368,773.848022 
	C417.982147,725.041504 485.380402,688.925415 557.674072,661.634766 
	C617.192444,639.166626 678.524475,623.398071 741.148254,612.543213 
	C788.133545,604.399048 835.473022,599.437805 883.090027,596.810425 
	C940.407227,593.647766 997.683838,594.264099 1054.909058,598.295410 
	C1111.436279,602.277588 1167.550537,609.562317 1223.204712,620.416016 
	C1295.909912,634.594971 1367.059082,654.152344 1436.077637,681.168884 
	C1492.840088,703.387756 1547.084595,730.517212 1597.198242,765.423706 
	C1636.542114,792.828674 1671.947144,824.433472 1699.285522,864.258972 
	C1704.364258,871.657471 1708.914673,879.451050 1713.228027,887.325684 
	C1714.841919,890.272095 1715.484985,893.921753 1715.892578,897.331726 
	C1722.165039,949.815308 1722.187500,1002.283813 1717.135010,1054.933716 
	C1715.247925,1074.596313 1706.510864,1090.338135 1695.748901,1105.625977 
	C1673.648193,1137.021240 1645.852173,1162.729248 1614.819092,1185.014893 
	C1560.397583,1224.096680 1500.300903,1251.967407 1437.288208,1273.890503 
	C1360.777954,1300.510010 1282.121460,1318.106445 1201.952026,1329.218384 
	C1198.654541,1329.675537 1195.374756,1330.258423 1191.643677,1330.816406 
M548.998108,863.764832 
	C548.713074,863.939575 548.610962,864.189148 548.580505,864.546570 
	C548.580505,864.546570 548.551331,864.658936 547.958740,864.790771 
	C547.345337,865.546875 546.731995,866.303040 545.596558,867.398865 
	C544.595886,868.449158 543.595215,869.499451 542.028015,870.673828 
	C541.709656,871.130249 541.391235,871.586670 540.598389,872.375793 
	C540.081421,872.948242 539.564453,873.520752 538.467590,874.219116 
	C538.007080,874.826843 537.546570,875.434570 536.572876,876.474365 
	C531.260437,881.856567 525.947998,887.238770 520.099060,892.702698 
	C519.921997,892.999084 519.744873,893.295471 519.253967,893.793457 
	C519.253967,893.793457 519.043579,894.101440 518.458496,894.218140 
	C517.993713,894.827087 517.528931,895.436096 517.001892,896.004517 
	C517.001892,896.004517 517.046265,896.064209 516.489441,896.200256 
	C516.157898,896.647278 515.826355,897.094299 515.005493,897.876587 
	C514.355774,898.616394 513.706116,899.356140 512.479431,900.246643 
	C512.012146,900.844238 511.544861,901.441833 511.012268,902.012695 
	C511.012268,902.012695 511.039154,902.077942 510.452698,902.198486 
	C509.984619,902.806641 509.516510,903.414795 508.753113,904.221924 
	C508.753113,904.221924 508.569519,904.527039 508.008575,904.673279 
	C507.691406,905.129150 507.374237,905.585022 506.508301,906.429749 
	C505.062347,907.896362 503.616425,909.362976 501.396881,910.587708 
	C501.188934,910.415222 500.980988,910.242737 500.844788,909.126709 
	C500.789642,871.460571 500.734467,833.794434 500.960846,795.348267 
	C500.217163,794.681519 499.474609,793.441040 498.729584,793.439575 
	C493.146820,793.428284 487.563599,793.661499 481.241791,793.718567 
	C480.498718,793.751831 479.755646,793.785156 478.455994,793.474243 
	C476.964447,793.586121 475.472931,793.698059 473.191040,793.705872 
	C472.131195,793.748962 471.071350,793.792053 469.437897,793.492432 
	C464.841858,795.014587 467.579956,798.464111 467.330170,802.066101 
	C467.323273,822.552551 467.302582,843.039062 467.312134,863.525513 
	C467.338501,919.987305 467.377502,976.449097 467.102386,1033.537720 
	C466.838715,1035.784424 467.439423,1037.062378 470.669434,1036.227905 
	C471.111481,1036.190674 471.553528,1036.153442 472.427551,1036.443604 
	C473.290588,1036.343384 474.153595,1036.243286 475.807434,1036.244263 
	C476.868347,1036.214111 477.929260,1036.183960 479.321777,1036.472168 
	C479.886261,1036.367920 480.450714,1036.263672 481.943909,1036.259399 
	C487.293030,1036.226685 492.642151,1036.193970 498.522583,1036.488525 
	C499.258514,1035.621216 499.994446,1034.753906 500.820282,1032.967651 
	C500.796875,1006.663696 500.773438,980.359680 500.981171,953.512939 
	C500.922180,953.325317 500.863220,953.137695 500.893158,952.810974 
	C500.893158,952.810974 500.835083,952.656372 501.159515,952.548096 
	C501.362183,952.361938 501.388153,952.153748 501.790466,951.455933 
	C514.256775,939.305542 526.723022,927.155090 539.335327,914.862427 
	C540.497437,916.447388 541.300049,917.504272 542.063538,918.588806 
	C568.794739,956.565002 595.551331,994.523621 622.190735,1032.564209 
	C624.135986,1035.342041 626.196167,1036.440674 629.563721,1036.350342 
	C637.888123,1036.127197 646.222595,1036.280029 654.552979,1036.281372 
	C658.946228,1036.282104 663.339478,1036.281494 668.990051,1036.281494 
	C633.177429,987.635803 598.191772,940.113525 562.952087,892.246094 
	C596.657349,859.682251 630.225952,827.250366 664.588623,794.051331 
	C661.708557,793.883667 659.951782,793.696655 658.194580,793.692932 
	C647.532166,793.670166 636.862183,793.926880 626.210693,793.588501 
	C621.303650,793.432617 617.411987,794.444641 614.087708,798.704895 
	C613.921631,799.010742 613.755615,799.316528 613.083435,799.991760 
	C611.935181,801.204895 610.786926,802.418091 609.111694,803.774109 
	C608.961121,804.091064 608.810486,804.408020 608.164062,804.989563 
	C607.649536,805.529907 607.135071,806.070312 606.095886,806.731201 
	C605.928894,807.033081 605.761841,807.334961 605.072998,808.002808 
	C603.598938,809.546448 602.124939,811.090088 600.165588,812.694275 
	C599.837402,812.859985 599.677307,813.126648 599.561951,813.528564 
	C599.561951,813.528564 599.530762,813.652771 599.000671,813.774414 
	C598.706970,814.206299 598.413269,814.638184 597.677917,815.380798 
	C597.348755,815.804504 597.019531,816.228210 596.148438,816.733032 
	C595.959167,817.026428 595.769836,817.319824 595.090393,817.966858 
	C594.295105,818.868042 593.499817,819.769226 592.150330,820.757874 
	C591.979187,821.068909 591.807983,821.379944 591.154846,821.987122 
	C590.636414,822.526367 590.118042,823.065613 589.126526,823.700867 
	C588.818237,823.885071 588.671753,824.156494 588.537170,824.563110 
	C588.537170,824.563110 588.487366,824.712463 588.049255,824.753601 
	C587.751770,824.918640 587.634216,825.168396 587.540894,825.557129 
	C587.540894,825.557129 587.486145,825.712830 587.038879,825.772461 
	C586.739990,825.951599 586.627319,826.211487 586.613220,826.584839 
	C586.613220,826.584839 586.588806,826.675110 586.049377,826.781372 
	C585.746521,827.209961 585.443665,827.638611 584.842896,828.306152 
	C584.842896,828.306152 584.654968,828.638672 584.101929,828.732239 
	C583.944641,829.050781 583.787292,829.369324 583.090332,830.059753 
	C578.595459,834.573425 574.100586,839.087097 569.076355,843.725708 
	C568.920288,844.036621 568.764221,844.347534 568.046143,844.997864 
	C565.050232,848.039429 562.054260,851.080933 558.515381,854.203186 
	C558.217407,854.635559 557.919373,855.067993 557.465881,855.554688 
	C557.465881,855.554688 557.419800,855.712891 556.996704,855.769714 
	C556.714661,855.944458 556.615295,856.192322 556.547791,856.563354 
	C556.547791,856.563354 556.495850,856.713379 556.054260,856.732300 
	C555.747559,856.890442 555.627502,857.138794 555.529907,857.538574 
	C555.529907,857.538574 555.470154,857.703308 554.992676,857.803589 
	C554.682373,858.000977 554.551819,858.281921 554.135315,858.962585 
	C553.637878,859.517212 553.140442,860.071838 552.102844,860.719299 
	C551.930237,861.022278 551.757568,861.325256 551.192810,861.883423 
	C550.943726,862.077881 550.738403,862.310852 550.096008,862.636841 
	C549.772827,862.813110 549.631226,863.084290 549.489197,863.522766 
	C549.489197,863.522766 549.424988,863.707825 548.998108,863.764832 
M1472.871094,862.345093 
	C1460.694946,867.822693 1451.039307,876.239563 1443.754639,887.393738 
	C1433.365601,903.301514 1428.794556,920.994751 1427.674683,939.762939 
	C1426.156128,965.207703 1431.610840,988.711121 1446.916626,1009.500427 
	C1465.672485,1034.975342 1503.522949,1044.244873 1531.708130,1029.805054 
	C1538.523682,1026.313232 1544.498657,1021.180908 1551.621338,1016.279114 
	C1550.984375,1027.059448 1551.300171,1037.765869 1549.517944,1048.110718 
	C1546.855713,1063.564453 1537.883057,1074.954712 1522.115479,1078.447876 
	C1512.852905,1080.499756 1502.904663,1081.151367 1493.459229,1080.293335 
	C1478.514160,1078.935547 1466.571167,1072.479248 1463.881714,1055.603271 
	C1463.692871,1054.418213 1462.276611,1052.666260 1461.223511,1052.501099 
	C1452.100098,1051.069580 1442.929077,1049.941406 1433.799194,1048.726440 
	C1430.875732,1068.701538 1441.312256,1088.550659 1459.826172,1097.651245 
	C1485.409790,1110.227051 1512.071045,1110.542358 1538.520630,1101.343262 
	C1561.654297,1093.297485 1576.288696,1076.802368 1579.919800,1052.042236 
	C1581.582031,1040.707520 1582.725830,1029.190063 1582.797974,1017.747192 
	C1583.119751,966.753479 1582.972168,915.756714 1582.975830,864.761047 
	C1582.975952,863.327026 1582.770386,861.893066 1582.656494,860.401794 
	C1573.006104,860.401794 1563.767456,860.401794 1553.913574,860.401794 
	C1553.913574,866.565735 1553.913574,872.408936 1553.913574,879.061096 
	C1530.449585,854.442932 1503.472046,851.017822 1472.871094,862.345093 
M966.497314,1036.288452 
	C971.088806,1036.288452 975.680298,1036.288452 980.905945,1036.288452 
	C980.905945,1029.668945 980.905945,1023.817078 980.905945,1016.991211 
	C984.079834,1020.372803 986.286011,1023.063599 988.831787,1025.381348 
	C1008.282593,1043.089722 1039.726685,1045.403076 1063.776611,1030.858154 
	C1085.190552,1017.907349 1097.422607,998.588806 1102.000000,974.311951 
	C1107.694458,944.110535 1105.525146,914.958130 1089.459473,887.851562 
	C1069.219727,853.702148 1014.188721,843.673523 985.768005,874.976074 
	C985.159363,875.646362 984.412537,876.191223 982.938232,877.495056 
	C982.938232,849.115112 982.938232,821.734985 982.938232,794.013000 
	C972.363403,794.013000 962.317078,794.013000 952.113525,794.013000 
	C952.113525,874.842163 952.113525,955.364990 952.113525,1036.288086 
	C956.877930,1036.288086 961.189758,1036.288086 966.497314,1036.288452 
M1264.720581,979.098206 
	C1262.916382,978.982117 1261.112305,978.866028 1259.181641,978.741821 
	C1258.322144,980.756531 1257.565918,982.593689 1256.759033,984.408386 
	C1252.200439,994.663025 1246.262573,1003.952698 1235.842285,1009.006714 
	C1218.626221,1017.356750 1201.467041,1016.550720 1185.544556,1005.928772 
	C1168.368774,994.470642 1163.119385,976.774902 1161.661743,956.596924 
	C1205.290161,956.596924 1248.337891,956.596924 1291.736084,956.596924 
	C1291.736084,950.159363 1292.032837,944.342285 1291.683105,938.564392 
	C1290.374756,916.945190 1284.889526,896.731018 1269.708984,880.445129 
	C1249.350342,858.604065 1223.609619,852.799194 1195.212036,857.659180 
	C1168.533447,862.224976 1149.104980,877.318787 1138.417603,902.240173 
	C1126.598999,929.799805 1126.441040,958.315186 1134.833130,986.826294 
	C1140.220459,1005.129822 1151.204224,1019.817810 1167.977905,1028.983887 
	C1195.288574,1043.907959 1223.897339,1044.548828 1252.159790,1032.209839 
	C1273.386230,1022.942444 1285.020508,1005.065552 1291.136719,982.448242 
	C1282.276001,981.339539 1273.910889,980.292847 1264.720581,979.098206 
M996.500000,1271.935303 
	C1009.971008,1271.392822 1023.554932,1271.753418 1036.885132,1270.085327 
	C1054.544800,1267.875366 1066.120117,1256.849609 1071.681641,1240.276123 
	C1076.724731,1225.247559 1075.769897,1210.364746 1064.598877,1198.117920 
	C1059.752930,1192.805298 1053.019653,1189.213989 1047.216919,1184.895264 
	C1047.203857,1184.904297 1047.742554,1184.526245 1048.287354,1184.157227 
	C1060.530396,1175.860596 1066.899536,1164.304321 1066.338745,1149.533325 
	C1065.727539,1133.432739 1057.694336,1121.279907 1043.051270,1115.154785 
	C1034.864868,1111.730347 1025.352783,1110.420532 1016.376587,1110.142944 
	C992.574463,1109.406860 968.738831,1109.749634 944.916565,1109.665283 
	C942.805054,1109.657837 940.693481,1109.664307 938.343872,1109.664307 
	C938.343872,1164.027466 938.343872,1217.732056 938.343872,1271.941284 
	C957.607361,1271.941284 976.553650,1271.941284 996.500000,1271.935303 
M772.969238,1039.633423 
	C774.610840,1039.356567 776.265015,1039.138916 777.892212,1038.794067 
	C809.143555,1032.169922 831.010681,1014.817627 839.554871,983.275513 
	C844.931641,963.426270 845.236633,943.092896 841.842712,922.816895 
	C839.613770,909.500488 834.704346,897.156433 826.268982,886.477905 
	C806.643921,861.633667 780.256287,853.439148 749.872131,856.939575 
	C720.377258,860.337585 697.697754,874.874695 686.734375,903.054932 
	C674.486450,934.536743 674.850281,966.686157 688.649597,997.840332 
	C696.703247,1016.022827 711.132324,1028.116211 729.735779,1035.052368 
	C743.419189,1040.154053 757.627563,1041.099731 772.969238,1039.633423 
M1196.840088,1112.184570 
	C1176.505127,1134.304321 1156.170166,1156.424072 1135.835205,1178.543823 
	C1135.459106,1178.405762 1135.082886,1178.267700 1134.706787,1178.129639 
	C1134.706787,1155.447388 1134.706787,1132.765137 1134.706787,1109.956299 
	C1123.113647,1109.956299 1112.194702,1109.956299 1101.072510,1109.956299 
	C1101.072510,1164.021240 1101.072510,1217.756226 1101.072510,1271.533813 
	C1112.471069,1271.533813 1123.493774,1271.533813 1134.794556,1271.533813 
	C1134.794556,1260.423096 1135.646606,1249.686523 1134.568359,1239.147461 
	C1133.352783,1227.265503 1136.886597,1218.396484 1146.156982,1211.058838 
	C1151.146484,1207.109497 1155.271729,1202.068359 1160.023315,1197.281860 
	C1161.448608,1199.546997 1162.547729,1201.191406 1163.545654,1202.895020 
	C1176.248779,1224.581421 1189.000366,1246.240112 1201.556396,1268.011475 
	C1203.282471,1271.004517 1205.161133,1272.134277 1208.602417,1272.064697 
	C1219.262939,1271.849243 1229.930786,1271.994873 1240.595703,1272.000000 
	C1242.657715,1272.000977 1244.719727,1272.000244 1247.528687,1272.000244 
	C1246.172607,1269.641479 1245.428345,1268.192139 1244.544922,1266.833252 
	C1225.219360,1237.101929 1205.929688,1207.347046 1186.468872,1177.704468 
	C1184.284302,1174.376953 1184.080322,1172.378906 1187.123291,1169.344482 
	C1199.267944,1157.233521 1211.104614,1144.813110 1223.021118,1132.474243 
	C1230.014282,1125.233154 1236.943115,1117.930054 1244.845215,1109.667725 
	C1229.197021,1109.667725 1214.923096,1109.624268 1200.650513,1109.752075 
	C1199.539185,1109.761963 1198.438599,1110.969849 1196.840088,1112.184570 
M890.256958,1109.644043 
	C887.026855,1109.176636 886.554810,1111.554932 885.809814,1113.815430 
	C876.962341,1140.662354 868.087280,1167.500122 859.202576,1194.334717 
	C855.792969,1204.633057 852.340637,1214.917114 848.550049,1226.279541 
	C847.471863,1223.765991 846.802002,1222.451904 846.330872,1221.069946 
	C834.415100,1186.123535 822.467712,1151.187866 810.685791,1116.196289 
	C809.155334,1111.651123 807.434875,1108.714355 801.794312,1109.525635 
	C797.389465,1110.159180 792.819031,1109.638062 788.322144,1109.635376 
	C782.919312,1109.632080 777.516479,1109.634521 771.688477,1109.634521 
	C772.244873,1111.547119 772.470886,1112.501465 772.797363,1113.420166 
	C780.923462,1136.290894 789.033447,1159.167603 797.202026,1182.023193 
	C807.443665,1210.679443 817.772461,1239.304688 827.947388,1267.984497 
	C828.980103,1270.895264 830.283447,1272.205688 833.560913,1272.048218 
	C839.542969,1271.760986 845.548706,1271.967041 851.544556,1271.967041 
	C865.046570,1271.967285 865.119507,1271.993408 869.616760,1259.497925 
	C884.648682,1217.732666 899.628235,1175.948608 914.615784,1134.167358 
	C917.449646,1126.267212 920.228821,1118.347656 923.316162,1109.638916 
	C912.023560,1109.638916 901.576538,1109.638916 890.256958,1109.644043 
M907.467651,882.500427 
	C907.467651,852.956726 907.467651,823.412964 907.467651,794.019775 
	C896.599976,794.019775 886.664124,794.019775 876.502808,794.019775 
	C876.409973,795.808960 876.266968,797.280823 876.266846,798.752686 
	C876.261719,875.861267 876.268494,952.969910 876.275146,1030.078491 
	C876.275269,1031.244263 875.940735,1032.574341 876.391113,1033.532227 
	C876.900696,1034.616333 878.105042,1036.124756 879.034363,1036.144043 
	C888.329529,1036.337280 897.630310,1036.261475 907.467590,1036.261475 
	C907.467590,985.015198 907.467590,934.257874 907.467651,882.500427 
M1360.630005,916.309265 
	C1364.939819,895.806885 1378.557495,885.461914 1397.072632,889.113586 
	C1402.186401,890.122070 1407.031616,892.491760 1412.458740,894.397888 
	C1415.919312,885.034485 1419.395630,875.628845 1422.915161,866.106201 
	C1410.668823,858.783264 1398.355347,854.392395 1384.434692,856.907349 
	C1369.985107,859.517883 1362.916016,871.095520 1355.418457,882.114319 
	C1355.035400,881.904114 1354.652344,881.693970 1354.269287,881.483826 
	C1354.269287,874.427368 1354.269287,867.370972 1354.269287,860.323792 
	C1344.709595,860.323792 1335.774902,860.323792 1326.521851,860.323792 
	C1326.521851,918.941711 1326.521851,977.286926 1326.521851,1035.962036 
	C1336.849731,1035.962036 1346.901367,1035.962036 1357.510864,1035.962036 
	C1357.510864,1033.867798 1357.510986,1032.067871 1357.510742,1030.267944 
	C1357.507812,1002.458191 1357.255493,974.644958 1357.635620,946.840454 
	C1357.771118,936.920288 1359.439209,927.021179 1360.630005,916.309265 
z"/>
<path fill="#058819" opacity="1.000000" stroke="none" 
	d="
M1698.504883,812.503174 
	C1682.821045,797.624084 1667.805298,781.954041 1651.318848,768.024841 
	C1612.847656,735.520996 1569.948364,709.655823 1525.068970,687.025757 
	C1445.536255,646.921997 1361.448853,619.868225 1274.899414,599.874023 
	C1217.073364,586.515259 1158.599365,577.113037 1099.563477,571.242004 
	C1020.660400,563.395325 941.616455,561.747375 862.491455,567.142700 
	C779.347534,572.812073 697.477661,586.149353 617.352478,609.383728 
	C531.547424,634.265137 450.831451,670.147217 377.117645,721.074524 
	C339.148773,747.306396 304.474823,777.329285 272.663208,811.183777 
	C272.215668,811.188721 271.866638,810.881714 271.866638,810.881714 
	C276.723999,794.463074 281.023926,777.854614 286.538544,761.659790 
	C306.710968,702.419006 334.141388,646.679993 369.607239,595.096619 
	C418.489838,523.999268 478.068298,464.234833 554.719177,422.868591 
	C559.756836,420.149902 564.591675,419.247467 570.349792,419.541687 
	C623.246948,422.244537 676.138550,425.564270 729.076599,426.833160 
	C801.859680,428.577728 874.690796,429.831482 947.484985,429.248199 
	C1062.604492,428.325806 1177.714966,425.934174 1292.819702,423.676147 
	C1332.118042,422.905212 1371.385864,420.615173 1410.673950,419.193787 
	C1413.650269,419.086090 1417.035645,419.716003 1419.627319,421.118469 
	C1464.577148,445.443268 1503.623535,477.360107 1538.637451,514.373535 
	C1593.390625,572.253601 1634.862305,638.720459 1665.965698,711.853638 
	C1679.667969,744.071838 1690.782227,777.165161 1698.996338,811.679565 
	C1698.776855,812.207336 1698.504883,812.503174 1698.504883,812.503174 
z"/>
<path fill="#068819" opacity="1.000000" stroke="none" 
	d="
M1695.105225,1157.098633 
	C1689.637085,1173.489990 1684.971313,1190.202026 1678.569092,1206.219971 
	C1640.608398,1301.193848 1581.372925,1380.923584 1504.196777,1447.621338 
	C1476.174683,1471.838745 1446.403687,1493.728760 1415.104858,1513.504883 
	C1411.453735,1515.811890 1406.838135,1516.908813 1402.511108,1517.782715 
	C1330.435791,1532.342896 1257.699707,1542.130249 1184.427856,1548.224731 
	C1102.819458,1555.012451 1021.062256,1557.575439 939.221680,1556.516846 
	C892.750305,1555.915649 846.265747,1554.257935 799.851440,1551.841675 
	C742.117126,1548.836182 684.522705,1543.708862 627.363403,1534.746582 
	C607.152466,1531.577759 587.151123,1527.092896 567.001831,1523.501953 
	C556.660278,1521.658936 549.041443,1514.967529 540.839844,1509.472534 
	C483.637634,1471.146729 432.176178,1426.317993 388.056763,1373.301025 
	C329.742065,1303.225586 288.470978,1224.418091 266.621124,1135.697021 
	C266.228882,1134.104248 265.967316,1132.479248 265.399658,1129.645630 
	C267.307495,1131.310425 268.420410,1132.149170 269.379486,1133.137207 
	C314.429077,1179.543823 366.153473,1217.050537 422.807312,1247.918457 
	C476.188293,1277.003296 532.260071,1299.643188 590.304260,1317.582031 
	C643.528381,1334.030884 697.701904,1346.230347 752.663635,1355.168579 
	C858.158020,1372.324707 964.264038,1377.625854 1070.965576,1372.286255 
	C1124.250366,1369.619629 1177.259399,1364.303345 1229.987305,1356.227661 
	C1289.322998,1347.140015 1347.840210,1334.299316 1405.252686,1316.730103 
	C1470.366089,1296.804443 1533.485840,1272.088745 1592.087280,1236.891235 
	C1629.378174,1214.493286 1663.850220,1188.478394 1694.343750,1156.845215 
	C1694.798462,1156.848511 1695.105225,1157.098633 1695.105225,1157.098633 
M1165.846313,1431.416504 
	C1162.158203,1442.178589 1161.681152,1453.309448 1162.506714,1464.486572 
	C1163.213013,1474.049927 1165.452881,1483.261597 1171.445801,1491.102051 
	C1180.945557,1503.530884 1202.539795,1508.458374 1219.478760,1502.304199 
	C1226.340454,1499.811035 1231.894653,1495.767090 1235.433228,1489.409058 
	C1242.015015,1477.582764 1242.418823,1465.439819 1235.334839,1453.791260 
	C1228.731689,1442.933228 1218.465576,1438.275757 1205.956665,1440.093506 
	C1200.764404,1440.847900 1195.853760,1443.539917 1190.563721,1445.441284 
	C1190.702759,1443.840332 1190.731934,1442.020752 1191.045776,1440.251831 
	C1191.480713,1437.800537 1191.941162,1435.324463 1192.724365,1432.969971 
	C1194.604492,1427.317505 1197.888062,1424.724854 1202.668457,1424.711914 
	C1207.966553,1424.697632 1209.668945,1428.387573 1210.929077,1432.588501 
	C1211.063965,1433.038208 1211.380127,1433.433594 1211.878540,1434.336670 
	C1220.541870,1433.267822 1229.320557,1432.184692 1238.190186,1431.090454 
	C1234.621582,1416.674805 1226.153198,1409.777588 1210.031250,1407.512329 
	C1189.391968,1404.612305 1173.550415,1412.975342 1165.846313,1431.416504 
M987.893372,1469.609619 
	C990.151123,1468.275146 992.408875,1466.940674 995.687134,1465.003052 
	C994.596985,1470.438354 994.043762,1475.051147 992.691650,1479.416260 
	C991.340271,1483.778809 988.390747,1486.981079 983.336975,1487.116577 
	C978.548157,1487.244995 976.179321,1484.411499 974.875854,1480.123413 
	C974.579163,1479.147339 973.173096,1477.715820 972.413208,1477.794922 
	C964.041077,1478.667358 955.695740,1479.797119 947.240356,1480.870117 
	C951.330811,1495.091431 960.365784,1502.882202 974.129761,1504.103638 
	C979.243591,1504.557495 984.494385,1504.733398 989.569763,1504.112305 
	C1003.331360,1502.428467 1013.815979,1495.570679 1018.805969,1482.325195 
	C1025.125366,1465.551147 1025.109131,1448.301270 1019.646118,1431.346558 
	C1016.295715,1420.948853 1009.559875,1412.894531 998.622437,1409.552368 
	C988.723145,1406.527344 978.659546,1406.176514 968.534424,1408.750244 
	C950.930725,1413.224731 940.993347,1432.335449 946.770691,1450.753174 
	C952.206238,1468.081299 969.849792,1476.452026 987.893372,1469.609619 
M1245.993652,1464.285889 
	C1245.993652,1471.357422 1245.993652,1478.428955 1245.993652,1486.018188 
	C1262.037476,1486.018188 1277.274780,1486.018188 1293.072266,1486.018188 
	C1293.072266,1491.961548 1293.072266,1497.365479 1293.072266,1502.804199 
	C1301.230347,1502.804199 1308.807739,1502.804199 1316.941895,1502.804199 
	C1316.941895,1497.109619 1316.941895,1491.698486 1316.941895,1485.721558 
	C1321.052612,1485.721558 1324.619263,1485.721558 1328.253906,1485.721558 
	C1328.253906,1478.228516 1328.253906,1471.332275 1328.253906,1464.325195 
	C1324.322754,1464.145386 1320.755859,1463.982178 1316.771851,1463.799805 
	C1316.771851,1444.673462 1316.771851,1426.089233 1316.771851,1407.039917 
	C1309.358887,1407.039917 1302.395508,1406.939087 1295.440186,1407.131836 
	C1294.174561,1407.166870 1292.599365,1408.111450 1291.745728,1409.124146 
	C1276.510986,1427.196045 1261.365479,1445.343262 1245.993652,1464.285889 
M759.076477,1436.977783 
	C759.852539,1435.234009 760.731323,1433.527710 761.385254,1431.739258 
	C763.321106,1426.445068 767.047913,1424.161743 772.655396,1425.006226 
	C777.213867,1425.692749 779.172607,1428.604004 779.291809,1432.983154 
	C779.427979,1437.984619 775.847290,1442.290283 770.749573,1443.095947 
	C768.818604,1443.401123 766.827820,1443.327759 764.343811,1443.453003 
	C763.870850,1449.976074 763.409302,1456.341675 762.937439,1462.849243 
	C776.739380,1460.753662 781.258606,1462.482544 783.094482,1470.216309 
	C784.823792,1477.501587 781.800110,1484.758667 776.229797,1486.692139 
	C769.030762,1489.190918 765.156067,1486.246338 759.451111,1473.616943 
	C750.815796,1474.776123 742.030396,1475.955322 733.227783,1477.136841 
	C735.273560,1489.712524 744.855896,1500.793579 756.952148,1502.755493 
	C766.026062,1504.227173 775.592590,1504.567383 784.700806,1503.454712 
	C796.994995,1501.952759 805.560974,1494.499512 809.639282,1482.441528 
	C813.578979,1470.793091 810.175720,1459.199829 801.063232,1453.668579 
	C799.274109,1452.582764 797.330933,1451.750732 795.023438,1450.581055 
	C804.129089,1444.627197 807.995789,1436.661987 805.706177,1426.359131 
	C803.603210,1416.896118 796.912598,1411.558228 788.029846,1409.166992 
	C777.072021,1406.216919 765.948059,1406.213989 754.946411,1409.319824 
	C744.338562,1412.314453 735.974426,1421.931274 734.772705,1432.687378 
	C742.577332,1434.107178 750.410767,1435.532104 759.076477,1436.977783 
M668.019531,1425.637451 
	C663.928345,1427.473877 659.797180,1429.228516 655.770630,1431.197144 
	C654.572449,1431.782959 652.803162,1432.936890 652.767334,1433.886108 
	C652.508911,1440.729858 652.628906,1447.588013 652.628906,1455.935669 
	C662.362427,1451.385986 670.707275,1447.485474 679.605225,1443.326538 
	C679.605225,1463.000244 679.605225,1482.813354 679.605225,1502.697266 
	C689.214417,1502.697266 698.078003,1502.697266 707.001099,1502.697266 
	C707.001099,1470.760498 707.001099,1439.207764 707.001099,1407.057617 
	C700.617493,1407.057617 694.491150,1406.808472 688.407410,1407.207520 
	C686.552673,1407.329224 684.531067,1408.946533 683.075562,1410.377075 
	C678.149719,1415.218750 673.443481,1420.283691 668.019531,1425.637451 
M854.697815,1503.668091 
	C858.028870,1503.690063 861.386719,1503.456055 864.683777,1503.801880 
	C868.398132,1504.191284 870.303284,1502.858643 871.837402,1499.393188 
	C879.175964,1482.814453 886.824463,1466.373169 894.330688,1449.868530 
	C898.924133,1439.768555 903.459778,1429.642334 908.315918,1418.874878 
	C903.967773,1418.874878 900.306519,1419.238403 896.750000,1418.783569 
	C892.237122,1418.206543 890.449890,1420.426880 888.787598,1424.156372 
	C877.750793,1448.918579 866.496582,1473.583740 855.371399,1498.306763 
	C854.663391,1499.880249 854.444580,1501.673706 854.697815,1503.668091 
M1112.247803,1476.379517 
	C1112.247803,1470.291382 1112.247803,1464.203125 1112.247803,1458.000977 
	C1099.045532,1458.000977 1086.364380,1458.000977 1073.566162,1458.000977 
	C1073.566162,1465.179321 1073.566162,1472.021606 1073.566162,1479.107300 
	C1085.748901,1479.107300 1097.529419,1479.148560 1109.308594,1479.031372 
	C1110.286621,1479.021729 1111.253906,1477.940552 1112.247803,1476.379517 
z"/>
<path fill="#058819" opacity="1.000000" stroke="none" 
	d="
M982.953735,147.000000 
	C982.954346,230.941803 982.954346,314.383606 982.954346,398.397125 
	C980.872498,398.495514 978.450012,398.731537 976.030090,398.706787 
	C891.067444,397.838562 806.095093,397.470306 721.146667,395.847809 
	C674.700134,394.960724 628.293762,391.955658 581.870850,389.870728 
	C578.716125,389.729004 575.569946,389.013641 572.428345,389.067413 
	C568.802185,389.129425 566.804260,387.524475 564.949585,384.511993 
	C546.677856,354.833557 526.628113,326.379730 503.525665,300.278442 
	C492.101807,287.371674 479.196564,275.776154 466.382385,263.010315 
	C618.231628,147.197968 790.943848,89.674065 982.953125,86.650696 
	C982.953125,106.997444 982.953125,126.748726 982.953735,147.000000 
z"/>
<path fill="#058819" opacity="1.000000" stroke="none" 
	d="
M1107.002441,397.303284 
	C1076.177856,397.306885 1045.852905,397.306885 1014.707886,397.306885 
	C1014.707886,294.716431 1014.707886,191.191223 1014.707886,86.901031 
	C1199.688965,92.252724 1366.279175,150.983276 1516.621582,259.294830 
	C1491.053223,277.809113 1470.776123,300.578461 1451.920410,324.555054 
	C1437.111328,343.386200 1423.330688,363.039948 1409.498901,382.614960 
	C1406.492920,386.868805 1403.546509,388.819092 1398.321045,388.984558 
	C1334.699585,390.998810 1271.089600,393.386871 1207.465942,395.325958 
	C1174.155518,396.341125 1140.823975,396.664062 1107.002441,397.303284 
z"/>
<path fill="#058819" opacity="1.000000" stroke="none" 
	d="
M811.051147,1837.066650 
	C683.594421,1809.975220 568.205444,1757.595459 464.705780,1678.371094 
	C470.738098,1673.159058 476.714050,1668.450439 482.172089,1663.203003 
	C508.125702,1638.250122 529.322144,1609.430176 549.408386,1579.739380 
	C554.162720,1572.711548 558.737061,1565.554688 563.162720,1558.315674 
	C564.778076,1555.673462 566.333740,1554.786865 569.558228,1555.465820 
	C621.134949,1566.327637 673.399292,1572.267822 725.813538,1577.153687 
	C800.183105,1584.086426 874.733765,1587.001709 949.398682,1587.471558 
	C960.384155,1587.540649 971.370361,1587.481201 982.522278,1587.481201 
	C982.778625,1588.536255 983.122803,1589.294800 983.124695,1590.054077 
	C983.341187,1676.359253 983.532227,1762.664307 983.724243,1848.969482 
	C983.725403,1849.469360 983.644958,1849.983398 983.733948,1850.466797 
	C984.620911,1855.287598 982.037964,1855.929321 978.019104,1855.690918 
	C954.912903,1854.319946 931.663147,1854.249756 908.717590,1851.558838 
	C876.185303,1847.744019 843.875000,1842.036743 811.051147,1837.066650 
z"/>
<path fill="#058819" opacity="1.000000" stroke="none" 
	d="
M1371.966064,1554.936890 
	C1383.348755,1552.782837 1394.286621,1550.582031 1405.285400,1548.747437 
	C1406.578857,1548.531860 1408.845825,1549.962036 1409.585449,1551.248047 
	C1420.203613,1569.712402 1430.483765,1588.371826 1441.150391,1606.807861 
	C1457.430664,1634.946289 1474.822754,1662.334473 1497.176758,1686.191650 
	C1498.968750,1688.104126 1501.260742,1689.547974 1504.099609,1691.837769 
	C1356.538940,1795.539062 1194.082764,1849.515869 1014.298523,1855.503296 
	C1014.298523,1765.942139 1014.298523,1676.937622 1014.298523,1587.526733 
	C1015.794617,1587.408325 1017.237366,1587.250000 1018.684387,1587.186035 
	C1066.436401,1585.072388 1114.242676,1583.785400 1161.928345,1580.660278 
	C1225.246582,1576.510620 1288.245605,1569.034912 1350.837891,1558.408813 
	C1357.732666,1557.238281 1364.638672,1556.134644 1371.966064,1554.936890 
z"/>
<path fill="#058819" opacity="1.000000" stroke="none" 
	d="
M1667.087402,1300.118652 
	C1725.448242,1199.225342 1751.902588,1090.353271 1751.905640,973.810425 
	C1793.058228,973.810425 1833.793213,973.810425 1875.347534,973.810425 
	C1875.023315,1096.967896 1850.176880,1215.111938 1800.356201,1327.911377 
	C1739.321045,1466.101685 1648.548828,1581.019287 1528.011353,1674.114868 
	C1519.904297,1664.990967 1511.594727,1656.583374 1504.370972,1647.328491 
	C1484.535522,1621.916382 1468.907959,1593.805542 1453.265991,1565.731323 
	C1447.850342,1556.010986 1442.418091,1546.299927 1436.858032,1536.342163 
	C1530.802490,1474.272095 1609.664062,1397.869141 1667.087402,1300.118652 
z"/>
<path fill="#058819" opacity="1.000000" stroke="none" 
	d="
M1854.900757,781.248901 
	C1866.325806,834.494202 1873.056152,887.881226 1874.881958,942.547913 
	C1833.364990,942.547913 1792.442505,942.547913 1750.892944,942.547913 
	C1750.338867,935.811340 1749.741577,928.749146 1749.179688,921.684143 
	C1746.162842,883.749634 1739.738037,846.368713 1730.570557,809.466553 
	C1716.428223,752.538391 1695.773804,698.043213 1668.824585,645.938416 
	C1646.642334,603.050354 1620.405884,562.820923 1589.653076,525.577026 
	C1555.852783,484.642731 1517.613037,448.452423 1473.847900,418.294922 
	C1463.168213,410.935852 1451.919922,404.402374 1440.935181,397.485657 
	C1439.972046,396.879150 1439.025879,396.245331 1437.339111,395.147095 
	C1448.142944,380.486206 1458.446899,365.774902 1469.510620,351.658936 
	C1486.573486,329.888824 1504.193970,308.553528 1525.904663,291.087952 
	C1529.919067,287.858459 1534.300049,285.088409 1538.381714,281.937714 
	C1541.386597,279.618317 1543.709106,279.924988 1546.568359,282.469757 
	C1565.721191,299.516724 1585.688599,315.706451 1604.138184,333.475677 
	C1691.993408,418.091400 1759.677612,516.667297 1806.962158,629.177734 
	C1827.069214,677.021179 1842.526855,726.336121 1853.899292,776.951477 
	C1854.190918,778.249878 1854.525024,779.538757 1854.900757,781.248901 
z"/>
<path fill="#068819" opacity="1.000000" stroke="none" 
	d="
M392.531738,326.526550 
	C407.139740,313.365753 421.572113,300.535492 435.800598,287.482971 
	C438.743835,284.782990 440.847656,285.007904 443.962921,287.075623 
	C460.110077,297.793152 473.812439,311.214081 485.464661,326.460754 
	C502.227722,348.394958 518.085022,371.021637 534.297729,393.375397 
	C535.160339,394.564728 535.733398,395.964111 536.601440,397.560211 
	C530.151062,401.330902 523.806702,404.917450 517.580444,408.698456 
	C461.683594,442.642426 414.721191,486.576691 374.059265,537.480835 
	C329.152832,593.698730 293.928680,655.526123 267.827332,722.534058 
	C245.245193,780.507507 229.941727,840.350891 222.909195,902.214111 
	C221.142410,917.756042 220.149002,933.385986 218.799103,948.975281 
	C218.644272,950.763306 218.482468,952.550720 218.265823,954.992981 
	C186.593277,954.992981 155.318146,954.992981 123.175041,954.992981 
	C124.999168,836.981750 148.877884,723.299622 195.154587,614.355469 
	C241.495514,505.260071 306.871033,409.131226 392.531738,326.526550 
z"/>
<path fill="#068819" opacity="1.000000" stroke="none" 
	d="
M385.256927,1608.741455 
	C214.571762,1436.383423 130.416946,1228.018555 122.736328,986.239624 
	C154.906616,986.239624 185.992722,986.239624 218.285492,986.239624 
	C218.285492,994.399048 217.998657,1002.837524 218.328827,1011.251770 
	C222.758301,1124.133789 253.940979,1228.808350 314.528961,1324.460938 
	C354.730682,1387.928955 404.243530,1443.133423 462.890076,1489.947266 
	C485.502380,1507.997314 509.565430,1524.229858 532.966553,1541.291748 
	C533.894165,1541.968140 534.811462,1542.658569 536.259460,1543.732544 
	C529.984741,1553.280640 524.009460,1562.850220 517.562317,1572.090576 
	C500.776825,1596.147949 483.335846,1619.718750 461.936829,1639.973755 
	C456.158813,1645.442871 449.471527,1649.941406 443.334717,1655.045532 
	C440.298737,1657.570435 438.055756,1657.119385 435.240082,1654.516602 
	C418.737457,1639.259888 402.090668,1624.159058 385.256927,1608.741455 
z"/>
<path fill="#058819" opacity="1.000000" stroke="none" 
	d="
M272.379333,811.353638 
	C272.144745,811.846863 271.746490,812.175171 271.348236,812.503418 
	C271.352325,812.048828 271.356415,811.594299 271.613556,811.010742 
	C271.866638,810.881714 272.215668,811.188721 272.379333,811.353638 
z"/>
<path fill="#068819" opacity="1.000000" stroke="none" 
	d="
M1694.648804,1156.718994 
	C1694.890137,1156.224243 1695.281128,1155.859131 1695.672119,1155.494019 
	C1695.663330,1155.955078 1695.654541,1156.416138 1695.375488,1156.987915 
	C1695.105225,1157.098633 1694.798462,1156.848511 1694.648804,1156.718994 
z"/>
<path fill="#058819" opacity="1.000000" stroke="none" 
	d="
M1698.926025,812.072754 
	C1699.217407,812.222900 1699.359741,812.507690 1699.502075,812.792480 
	C1699.266968,812.832336 1699.031982,812.872131 1698.650879,812.707581 
	C1698.504883,812.503174 1698.776855,812.207336 1698.926025,812.072754 
z"/>
<path fill="#F5FAF6" opacity="1.000000" stroke="none" 
	d="
M1473.217041,862.183716 
	C1503.472046,851.017822 1530.449585,854.442932 1553.913574,879.061096 
	C1553.913574,872.408936 1553.913574,866.565735 1553.913574,860.401794 
	C1563.767456,860.401794 1573.006104,860.401794 1582.656494,860.401794 
	C1582.770386,861.893066 1582.975952,863.327026 1582.975830,864.761047 
	C1582.972168,915.756714 1583.119751,966.753479 1582.797974,1017.747192 
	C1582.725830,1029.190063 1581.582031,1040.707520 1579.919800,1052.042236 
	C1576.288696,1076.802368 1561.654297,1093.297485 1538.520630,1101.343262 
	C1512.071045,1110.542358 1485.409790,1110.227051 1459.826172,1097.651245 
	C1441.312256,1088.550659 1430.875732,1068.701538 1433.799194,1048.726440 
	C1442.929077,1049.941406 1452.100098,1051.069580 1461.223511,1052.501099 
	C1462.276611,1052.666260 1463.692871,1054.418213 1463.881714,1055.603271 
	C1466.571167,1072.479248 1478.514160,1078.935547 1493.459229,1080.293335 
	C1502.904663,1081.151367 1512.852905,1080.499756 1522.115479,1078.447876 
	C1537.883057,1074.954712 1546.855713,1063.564453 1549.517944,1048.110718 
	C1551.300171,1037.765869 1550.984375,1027.059448 1551.621338,1016.279114 
	C1544.498657,1021.180908 1538.523682,1026.313232 1531.708130,1029.805054 
	C1503.522949,1044.244873 1465.672485,1034.975342 1446.916626,1009.500427 
	C1431.610840,988.711121 1426.156128,965.207703 1427.674683,939.762939 
	C1428.794556,920.994751 1433.365601,903.301514 1443.754639,887.393738 
	C1451.039307,876.239563 1460.694946,867.822693 1473.217041,862.183716 
M1459.437256,948.251709 
	C1461.050049,958.573853 1461.586914,969.212036 1464.506226,979.150391 
	C1470.075928,998.111206 1486.234619,1009.685547 1505.323364,1010.119507 
	C1524.900513,1010.564636 1541.391235,999.849426 1548.114746,981.051147 
	C1555.982178,959.054504 1556.083252,936.543701 1548.867798,914.383545 
	C1542.619873,895.194763 1526.202271,883.050171 1507.339478,882.264038 
	C1489.570801,881.523499 1473.327759,892.350769 1465.365479,910.661743 
	C1460.288452,922.337463 1459.473267,934.822510 1459.437256,948.251709 
z"/>
<path fill="#F7FBF7" opacity="1.000000" stroke="none" 
	d="
M609.638672,803.631226 
	C610.786926,802.418091 611.935181,801.204895 613.604065,799.758911 
	C614.291748,799.221985 614.458801,798.917847 614.625793,798.613708 
	C617.411987,794.444641 621.303650,793.432617 626.210693,793.588501 
	C636.862183,793.926880 647.532166,793.670166 658.194580,793.692932 
	C659.951782,793.696655 661.708557,793.883667 664.588623,794.051331 
	C630.225952,827.250366 596.657349,859.682251 562.952087,892.246094 
	C598.191772,940.113525 633.177429,987.635803 668.990051,1036.281494 
	C663.339478,1036.281494 658.946228,1036.282104 654.552979,1036.281372 
	C646.222595,1036.280029 637.888123,1036.127197 629.563721,1036.350342 
	C626.196167,1036.440674 624.135986,1035.342041 622.190735,1032.564209 
	C595.551331,994.523621 568.794739,956.565002 542.063538,918.588806 
	C541.300049,917.504272 540.497437,916.447388 539.335327,914.862427 
	C526.723022,927.155090 514.256775,939.305542 501.334686,951.726074 
	C500.655853,952.202454 500.641235,952.422485 500.835083,952.656372 
	C500.835083,952.656372 500.893158,952.810974 500.677185,952.966919 
	C500.415192,953.242493 500.298553,953.396362 500.336761,953.474976 
	C500.439056,953.685791 500.607727,953.864380 500.750000,954.055725 
	C500.773438,980.359680 500.796875,1006.663696 500.477112,1033.494385 
	C499.419739,1034.734497 498.705505,1035.447754 497.991272,1036.161133 
	C492.642151,1036.193970 487.293030,1036.226685 481.327332,1036.015137 
	C480.137207,1035.898438 479.563690,1036.026123 478.990173,1036.153809 
	C477.929260,1036.183960 476.868347,1036.214111 475.212616,1035.984497 
	C473.743713,1035.855225 472.869659,1035.985596 471.995575,1036.116089 
	C471.553528,1036.153442 471.111481,1036.190674 470.182800,1035.927246 
	C468.934631,1034.721313 468.173065,1033.816040 467.411499,1032.910889 
	C467.377502,976.449097 467.338501,919.987305 467.312134,863.525513 
	C467.302582,843.039062 467.323273,822.552551 467.672363,801.434937 
	C468.680237,798.480957 469.345886,796.158020 470.011505,793.835144 
	C471.071350,793.792053 472.131195,793.748962 473.840973,793.989990 
	C475.998138,794.122253 477.505341,793.970337 479.012573,793.818481 
	C479.755646,793.785156 480.498718,793.751831 481.939331,794.013550 
	C485.384827,794.452576 488.144318,794.485229 490.877655,794.769470 
	C494.156525,795.110474 497.413086,795.665771 500.679321,796.128296 
	C500.734467,833.794434 500.789642,871.460571 500.620728,909.749023 
	C500.680359,910.842957 500.963989,911.314636 501.247650,911.786316 
	C501.555267,911.467407 501.862854,911.148499 502.170471,910.829590 
	C503.616425,909.362976 505.062347,907.896362 507.088928,906.207275 
	C507.969574,905.498840 508.269562,905.012939 508.569519,904.527039 
	C508.569519,904.527039 508.753113,904.221924 509.208557,904.090332 
	C510.122345,903.331726 510.580750,902.704834 511.039124,902.077942 
	C511.039154,902.077942 511.012268,902.012695 511.353058,901.998169 
	C512.148010,901.354431 512.602234,900.725220 513.056396,900.095947 
	C513.706116,899.356140 514.355774,898.616394 515.558716,897.701172 
	C516.423340,897.038513 516.734802,896.551392 517.046265,896.064209 
	C517.046265,896.064209 517.001892,896.004517 517.339600,895.991577 
	C518.132690,895.352905 518.588135,894.727173 519.043579,894.101440 
	C519.043579,894.101440 519.253967,893.793457 519.679932,893.654541 
	C520.282471,893.217346 520.458984,892.919128 520.635498,892.620972 
	C525.947998,887.238770 531.260437,881.856567 537.135864,876.224243 
	C538.148438,875.347107 538.597961,874.720154 539.047485,874.093201 
	C539.564453,873.520752 540.081421,872.948242 541.136658,872.176758 
	C541.981506,871.501770 542.288086,871.025818 542.594604,870.549805 
	C543.595215,869.499451 544.595886,868.449158 546.172729,867.198914 
	C547.349731,866.218933 547.950562,865.438965 548.551331,864.658936 
	C548.551331,864.658936 548.580505,864.546570 548.863525,864.522461 
	C549.460205,864.312744 549.553040,864.049255 549.424988,863.707825 
	C549.424988,863.707825 549.489197,863.522766 549.831909,863.476318 
	C550.308655,863.147339 550.442688,862.864807 550.576721,862.582336 
	C550.738403,862.310852 550.943726,862.077881 551.658264,861.709473 
	C552.296814,861.232544 552.469849,860.929443 552.642944,860.626404 
	C553.140442,860.071838 553.637878,859.517212 554.616882,858.769958 
	C555.222351,858.286011 555.346252,857.994629 555.470154,857.703308 
	C555.470154,857.703308 555.529907,857.538574 555.838562,857.508545 
	C556.467468,857.316467 556.583679,857.061462 556.495850,856.713379 
	C556.495850,856.713379 556.547791,856.563354 556.846313,856.527100 
	C557.451233,856.307556 557.542847,856.048218 557.419800,855.712891 
	C557.419800,855.712891 557.465881,855.554688 557.829712,855.515015 
	C558.481750,855.024292 558.770020,854.573364 559.058289,854.122437 
	C562.054260,851.080933 565.050232,848.039429 568.594238,844.768677 
	C569.296753,844.226624 569.451172,843.913696 569.605652,843.600769 
	C574.100586,839.087097 578.595459,834.573425 583.624268,829.809326 
	C584.323792,829.252197 584.489380,828.945435 584.654968,828.638672 
	C584.654968,828.638672 584.842896,828.306152 585.277527,828.159790 
	C586.004395,827.567322 586.296570,827.121216 586.588806,826.675110 
	C586.588806,826.675110 586.613220,826.584839 586.887329,826.548706 
	C587.472412,826.328369 587.580627,826.061768 587.486145,825.712830 
	C587.486145,825.712830 587.540894,825.557129 587.846680,825.523682 
	C588.469543,825.319580 588.581177,825.060303 588.487366,824.712463 
	C588.487366,824.712463 588.537170,824.563110 588.862854,824.510864 
	C589.325562,824.174072 589.462585,823.889526 589.599670,823.604919 
	C590.118042,823.065613 590.636414,822.526367 591.660767,821.778687 
	C592.346008,821.270386 592.525330,820.970398 592.704590,820.670410 
	C593.499817,819.769226 594.295105,818.868042 595.608826,817.755676 
	C596.314941,817.246948 596.502625,816.949402 596.690308,816.651855 
	C597.019531,816.228210 597.348755,815.804504 598.184570,815.199341 
	C598.971008,814.562866 599.250854,814.107788 599.530762,813.652771 
	C599.530762,813.652771 599.561951,813.528564 599.874390,813.493408 
	C600.341492,813.183411 600.496216,812.908569 600.650940,812.633789 
	C602.124939,811.090088 603.598938,809.546448 605.602295,807.768555 
	C606.294556,807.226440 606.457520,806.918518 606.620544,806.610657 
	C607.135071,806.070312 607.649536,805.529907 608.674438,804.782959 
	C609.336121,804.261230 609.487366,803.946228 609.638672,803.631226 
z"/>
<path fill="#F6FBF6" opacity="1.000000" stroke="none" 
	d="
M965.999390,1036.288330 
	C961.189758,1036.288086 956.877930,1036.288086 952.113525,1036.288086 
	C952.113525,955.364990 952.113525,874.842163 952.113525,794.013000 
	C962.317078,794.013000 972.363403,794.013000 982.938232,794.013000 
	C982.938232,821.734985 982.938232,849.115112 982.938232,877.495056 
	C984.412537,876.191223 985.159363,875.646362 985.768005,874.976074 
	C1014.188721,843.673523 1069.219727,853.702148 1089.459473,887.851562 
	C1105.525146,914.958130 1107.694458,944.110535 1102.000000,974.311951 
	C1097.422607,998.588806 1085.190552,1017.907349 1063.776611,1030.858154 
	C1039.726685,1045.403076 1008.282593,1043.089722 988.831787,1025.381348 
	C986.286011,1023.063599 984.079834,1020.372803 980.905945,1016.991211 
	C980.905945,1023.817078 980.905945,1029.668945 980.905945,1036.288452 
	C975.680298,1036.288452 971.088806,1036.288452 965.999390,1036.288330 
M981.941528,927.597473 
	C979.449219,946.266418 979.320801,964.869263 984.952759,983.030273 
	C990.464478,1000.803467 1005.550110,1012.952820 1022.662842,1014.145081 
	C1040.262939,1015.371155 1057.212769,1005.636780 1064.769531,988.534302 
	C1076.296631,962.445984 1076.114258,935.569031 1066.059937,909.254944 
	C1060.256958,894.067261 1048.441406,884.213440 1031.592651,882.394653 
	C1014.689697,880.570068 1002.011597,888.213562 992.260193,901.474304 
	C986.712280,909.018677 983.847839,917.669800 981.941528,927.597473 
z"/>
<path fill="#F5FAF6" opacity="1.000000" stroke="none" 
	d="
M1265.133301,979.172241 
	C1273.910889,980.292847 1282.276001,981.339539 1291.136719,982.448242 
	C1285.020508,1005.065552 1273.386230,1022.942444 1252.159790,1032.209839 
	C1223.897339,1044.548828 1195.288574,1043.907959 1167.977905,1028.983887 
	C1151.204224,1019.817810 1140.220459,1005.129822 1134.833130,986.826294 
	C1126.441040,958.315186 1126.598999,929.799805 1138.417603,902.240173 
	C1149.104980,877.318787 1168.533447,862.224976 1195.212036,857.659180 
	C1223.609619,852.799194 1249.350342,858.604065 1269.708984,880.445129 
	C1284.889526,896.731018 1290.374756,916.945190 1291.683105,938.564392 
	C1292.032837,944.342285 1291.736084,950.159363 1291.736084,956.596924 
	C1248.337891,956.596924 1205.290161,956.596924 1161.661743,956.596924 
	C1163.119385,976.774902 1168.368774,994.470642 1185.544556,1005.928772 
	C1201.467041,1016.550720 1218.626221,1017.356750 1235.842285,1009.006714 
	C1246.262573,1003.952698 1252.200439,994.663025 1256.759033,984.408386 
	C1257.565918,982.593689 1258.322144,980.756531 1259.181641,978.741821 
	C1261.112305,978.866028 1262.916382,978.982117 1265.133301,979.172241 
M1247.019043,897.513611 
	C1230.489258,878.671692 1205.858398,879.806519 1191.724487,886.248840 
	C1174.781738,893.971497 1162.511719,913.437378 1163.818359,930.396484 
	C1195.465210,930.396484 1227.113281,930.396484 1259.033936,930.396484 
	C1257.719360,918.340210 1255.160278,907.294434 1247.019043,897.513611 
z"/>
<path fill="#F7FBF7" opacity="1.000000" stroke="none" 
	d="
M996.000000,1271.938232 
	C976.553650,1271.941284 957.607361,1271.941284 938.343872,1271.941284 
	C938.343872,1217.732056 938.343872,1164.027466 938.343872,1109.664307 
	C940.693481,1109.664307 942.805054,1109.657837 944.916565,1109.665283 
	C968.738831,1109.749634 992.574463,1109.406860 1016.376587,1110.142944 
	C1025.352783,1110.420532 1034.864868,1111.730347 1043.051270,1115.154785 
	C1057.694336,1121.279907 1065.727539,1133.432739 1066.338745,1149.533325 
	C1066.899536,1164.304321 1060.530396,1175.860596 1048.287354,1184.157227 
	C1047.742554,1184.526245 1047.203857,1184.904297 1047.216919,1184.895264 
	C1053.019653,1189.213989 1059.752930,1192.805298 1064.598877,1198.117920 
	C1075.769897,1210.364746 1076.724731,1225.247559 1071.681641,1240.276123 
	C1066.120117,1256.849609 1054.544800,1267.875366 1036.885132,1270.085327 
	C1023.554932,1271.753418 1009.971008,1271.392822 996.000000,1271.938232 
M999.441833,1202.325806 
	C990.507019,1202.325806 981.572144,1202.325806 972.396851,1202.325806 
	C972.396851,1216.167725 972.396851,1229.387207 972.396851,1243.713623 
	C990.092468,1243.169312 1007.529358,1243.271973 1024.840088,1241.844360 
	C1034.197998,1241.072632 1039.245850,1232.838623 1039.122070,1222.545898 
	C1039.004395,1212.745850 1033.720215,1205.615845 1024.252319,1204.134766 
	C1016.406372,1202.907349 1008.371765,1202.885498 999.441833,1202.325806 
M1029.962402,1144.671265 
	C1026.220215,1139.930298 1020.953979,1138.613037 1015.331360,1138.478271 
	C1004.694336,1138.222656 994.052368,1138.166138 983.412231,1138.050659 
	C979.811462,1138.011475 976.209900,1138.044434 972.538086,1138.044434 
	C972.538086,1150.216064 972.538086,1161.722656 972.538086,1173.377441 
	C973.768494,1173.465576 974.578918,1173.581787 975.387939,1173.572876 
	C988.520996,1173.428101 1001.666443,1173.572021 1014.783508,1173.031738 
	C1030.622803,1172.379150 1037.763794,1159.403076 1029.962402,1144.671265 
z"/>
<path fill="#F5FAF6" opacity="1.000000" stroke="none" 
	d="
M772.514282,1039.702393 
	C757.627563,1041.099731 743.419189,1040.154053 729.735779,1035.052368 
	C711.132324,1028.116211 696.703247,1016.022827 688.649597,997.840332 
	C674.850281,966.686157 674.486450,934.536743 686.734375,903.054932 
	C697.697754,874.874695 720.377258,860.337585 749.872131,856.939575 
	C780.256287,853.439148 806.643921,861.633667 826.268982,886.477905 
	C834.704346,897.156433 839.613770,909.500488 841.842712,922.816895 
	C845.236633,943.092896 844.931641,963.426270 839.554871,983.275513 
	C831.010681,1014.817627 809.143555,1032.169922 777.892212,1038.794067 
	C776.265015,1039.138916 774.610840,1039.356567 772.514282,1039.702393 
M802.932922,906.682617 
	C792.584351,889.635315 777.570068,881.086670 757.529419,882.489502 
	C737.354126,883.901672 723.272583,894.811157 716.415588,913.268982 
	C707.792786,936.480164 707.747559,960.530518 716.626953,983.714600 
	C723.850952,1002.576477 738.389526,1013.312622 758.972229,1014.203308 
	C779.476929,1015.090759 795.501648,1006.225891 803.737000,987.657471 
	C815.461304,961.222473 815.298706,934.038696 802.932922,906.682617 
z"/>
<path fill="#F6FBF6" opacity="1.000000" stroke="none" 
	d="
M1197.086426,1111.902710 
	C1198.438599,1110.969849 1199.539185,1109.761963 1200.650513,1109.752075 
	C1214.923096,1109.624268 1229.197021,1109.667725 1244.845215,1109.667725 
	C1236.943115,1117.930054 1230.014282,1125.233154 1223.021118,1132.474243 
	C1211.104614,1144.813110 1199.267944,1157.233521 1187.123291,1169.344482 
	C1184.080322,1172.378906 1184.284302,1174.376953 1186.468872,1177.704468 
	C1205.929688,1207.347046 1225.219360,1237.101929 1244.544922,1266.833252 
	C1245.428345,1268.192139 1246.172607,1269.641479 1247.528687,1272.000244 
	C1244.719727,1272.000244 1242.657715,1272.000977 1240.595703,1272.000000 
	C1229.930786,1271.994873 1219.262939,1271.849243 1208.602417,1272.064697 
	C1205.161133,1272.134277 1203.282471,1271.004517 1201.556396,1268.011475 
	C1189.000366,1246.240112 1176.248779,1224.581421 1163.545654,1202.895020 
	C1162.547729,1201.191406 1161.448608,1199.546997 1160.023315,1197.281860 
	C1155.271729,1202.068359 1151.146484,1207.109497 1146.156982,1211.058838 
	C1136.886597,1218.396484 1133.352783,1227.265503 1134.568359,1239.147461 
	C1135.646606,1249.686523 1134.794556,1260.423096 1134.794556,1271.533813 
	C1123.493774,1271.533813 1112.471069,1271.533813 1101.072510,1271.533813 
	C1101.072510,1217.756226 1101.072510,1164.021240 1101.072510,1109.956299 
	C1112.194702,1109.956299 1123.113647,1109.956299 1134.706787,1109.956299 
	C1134.706787,1132.765137 1134.706787,1155.447388 1134.706787,1178.129639 
	C1135.082886,1178.267700 1135.459106,1178.405762 1135.835205,1178.543823 
	C1156.170166,1156.424072 1176.505127,1134.304321 1197.086426,1111.902710 
z"/>
<path fill="#F6FBF6" opacity="1.000000" stroke="none" 
	d="
M890.693237,1109.641479 
	C901.576538,1109.638916 912.023560,1109.638916 923.316162,1109.638916 
	C920.228821,1118.347656 917.449646,1126.267212 914.615784,1134.167358 
	C899.628235,1175.948608 884.648682,1217.732666 869.616760,1259.497925 
	C865.119507,1271.993408 865.046570,1271.967285 851.544556,1271.967041 
	C845.548706,1271.967041 839.542969,1271.760986 833.560913,1272.048218 
	C830.283447,1272.205688 828.980103,1270.895264 827.947388,1267.984497 
	C817.772461,1239.304688 807.443665,1210.679443 797.202026,1182.023193 
	C789.033447,1159.167603 780.923462,1136.290894 772.797363,1113.420166 
	C772.470886,1112.501465 772.244873,1111.547119 771.688477,1109.634521 
	C777.516479,1109.634521 782.919312,1109.632080 788.322144,1109.635376 
	C792.819031,1109.638062 797.389465,1110.159180 801.794312,1109.525635 
	C807.434875,1108.714355 809.155334,1111.651123 810.685791,1116.196289 
	C822.467712,1151.187866 834.415100,1186.123535 846.330872,1221.069946 
	C846.802002,1222.451904 847.471863,1223.765991 848.550049,1226.279541 
	C852.340637,1214.917114 855.792969,1204.633057 859.202576,1194.334717 
	C868.087280,1167.500122 876.962341,1140.662354 885.809814,1113.815430 
	C886.554810,1111.554932 887.026855,1109.176636 890.693237,1109.641479 
z"/>
<path fill="#F6FBF6" opacity="1.000000" stroke="none" 
	d="
M907.467651,883.000488 
	C907.467590,934.257874 907.467590,985.015198 907.467590,1036.261475 
	C897.630310,1036.261475 888.329529,1036.337280 879.034363,1036.144043 
	C878.105042,1036.124756 876.900696,1034.616333 876.391113,1033.532227 
	C875.940735,1032.574341 876.275269,1031.244263 876.275146,1030.078491 
	C876.268494,952.969910 876.261719,875.861267 876.266846,798.752686 
	C876.266968,797.280823 876.409973,795.808960 876.502808,794.019775 
	C886.664124,794.019775 896.599976,794.019775 907.467651,794.019775 
	C907.467651,823.412964 907.467651,852.956726 907.467651,883.000488 
z"/>
<path fill="#F5FAF6" opacity="1.000000" stroke="none" 
	d="
M1360.518921,916.710815 
	C1359.439209,927.021179 1357.771118,936.920288 1357.635620,946.840454 
	C1357.255493,974.644958 1357.507812,1002.458191 1357.510742,1030.267944 
	C1357.510986,1032.067871 1357.510864,1033.867798 1357.510864,1035.962036 
	C1346.901367,1035.962036 1336.849731,1035.962036 1326.521851,1035.962036 
	C1326.521851,977.286926 1326.521851,918.941711 1326.521851,860.323792 
	C1335.774902,860.323792 1344.709595,860.323792 1354.269287,860.323792 
	C1354.269287,867.370972 1354.269287,874.427368 1354.269287,881.483826 
	C1354.652344,881.693970 1355.035400,881.904114 1355.418457,882.114319 
	C1362.916016,871.095520 1369.985107,859.517883 1384.434692,856.907349 
	C1398.355347,854.392395 1410.668823,858.783264 1422.915161,866.106201 
	C1419.395630,875.628845 1415.919312,885.034485 1412.458740,894.397888 
	C1407.031616,892.491760 1402.186401,890.122070 1397.072632,889.113586 
	C1378.557495,885.461914 1364.939819,895.806885 1360.518921,916.710815 
z"/>
<path fill="#ABDCAF" opacity="1.000000" stroke="none" 
	d="
M500.820068,795.738281 
	C497.413086,795.665771 494.156525,795.110474 490.877655,794.769470 
	C488.144318,794.485229 485.384827,794.452576 482.308716,794.063354 
	C487.563599,793.661499 493.146820,793.428284 498.729584,793.439575 
	C499.474609,793.441040 500.217163,794.681519 500.820068,795.738281 
z"/>
<path fill="#ABDCAF" opacity="1.000000" stroke="none" 
	d="
M469.724701,793.663818 
	C469.345886,796.158020 468.680237,798.480957 467.719635,800.978516 
	C467.579956,798.464111 464.841858,795.014587 469.724701,793.663818 
z"/>
<path fill="#ABDCAF" opacity="1.000000" stroke="none" 
	d="
M478.734283,793.646362 
	C477.505341,793.970337 475.998138,794.122253 474.236145,794.042053 
	C475.472931,793.698059 476.964447,793.586121 478.734283,793.646362 
z"/>
<path fill="#ABDCAF" opacity="1.000000" stroke="none" 
	d="
M467.256958,1033.224365 
	C468.173065,1033.816040 468.934631,1034.721313 469.853210,1035.879395 
	C467.439423,1037.062378 466.838715,1035.784424 467.256958,1033.224365 
z"/>
<path fill="#ABDCAF" opacity="1.000000" stroke="none" 
	d="
M498.256927,1036.324829 
	C498.705505,1035.447754 499.419739,1034.734497 500.432190,1033.953857 
	C499.994446,1034.753906 499.258514,1035.621216 498.256927,1036.324829 
z"/>
<path fill="#ABDCAF" opacity="1.000000" stroke="none" 
	d="
M472.211548,1036.279785 
	C472.869659,1035.985596 473.743713,1035.855225 474.817200,1035.933838 
	C474.153595,1036.243286 473.290588,1036.343384 472.211548,1036.279785 
z"/>
<path fill="#ABDCAF" opacity="1.000000" stroke="none" 
	d="
M548.255005,864.724854 
	C547.950562,865.438965 547.349731,866.218933 546.433777,867.029053 
	C546.731995,866.303040 547.345337,865.546875 548.255005,864.724854 
z"/>
<path fill="#ABDCAF" opacity="1.000000" stroke="none" 
	d="
M479.155975,1036.312988 
	C479.563690,1036.026123 480.137207,1035.898438 480.862946,1035.965088 
	C480.450714,1036.263672 479.886261,1036.367920 479.155975,1036.312988 
z"/>
<path fill="#ABDCAF" opacity="1.000000" stroke="none" 
	d="
M512.767944,900.171265 
	C512.602234,900.725220 512.148010,901.354431 511.385681,902.011475 
	C511.544861,901.441833 512.012146,900.844238 512.767944,900.171265 
z"/>
<path fill="#ABDCAF" opacity="1.000000" stroke="none" 
	d="
M510.745911,902.138184 
	C510.580750,902.704834 510.122345,903.331726 509.356201,903.990784 
	C509.516510,903.414795 509.984619,902.806641 510.745911,902.138184 
z"/>
<path fill="#ABDCAF" opacity="1.000000" stroke="none" 
	d="
M501.783691,910.708618 
	C501.862854,911.148499 501.555267,911.467407 501.247650,911.786316 
	C500.963989,911.314636 500.680359,910.842957 500.584839,910.220764 
	C500.980988,910.242737 501.188934,910.415222 501.783691,910.708618 
z"/>
<path fill="#ABDCAF" opacity="1.000000" stroke="none" 
	d="
M538.757568,874.156128 
	C538.597961,874.720154 538.148438,875.347107 537.392456,876.008179 
	C537.546570,875.434570 538.007080,874.826843 538.757568,874.156128 
z"/>
<path fill="#ABDCAF" opacity="1.000000" stroke="none" 
	d="
M518.751038,894.159790 
	C518.588135,894.727173 518.132690,895.352905 517.370728,896.011841 
	C517.528931,895.436096 517.993713,894.827087 518.751038,894.159790 
z"/>
<path fill="#ABDCAF" opacity="1.000000" stroke="none" 
	d="
M542.311279,870.611816 
	C542.288086,871.025818 541.981506,871.501770 541.373901,872.010376 
	C541.391235,871.586670 541.709656,871.130249 542.311279,870.611816 
z"/>
<path fill="#ABDCAF" opacity="1.000000" stroke="none" 
	d="
M599.265747,813.713623 
	C599.250854,814.107788 598.971008,814.562866 598.405334,815.043945 
	C598.413269,814.638184 598.706970,814.206299 599.265747,813.713623 
z"/>
<path fill="#ABDCAF" opacity="1.000000" stroke="none" 
	d="
M586.319092,826.728271 
	C586.296570,827.121216 586.004395,827.567322 585.426514,828.040283 
	C585.443665,827.638611 585.746521,827.209961 586.319092,826.728271 
z"/>
<path fill="#ABDCAF" opacity="1.000000" stroke="none" 
	d="
M508.289062,904.600159 
	C508.269562,905.012939 507.969574,905.498840 507.363342,906.012817 
	C507.374237,905.585022 507.691406,905.129150 508.289062,904.600159 
z"/>
<path fill="#ABDCAF" opacity="1.000000" stroke="none" 
	d="
M516.767822,896.132202 
	C516.734802,896.551392 516.423340,897.038513 515.803345,897.533569 
	C515.826355,897.094299 516.157898,896.647278 516.767822,896.132202 
z"/>
<path fill="#ABDCAF" opacity="1.000000" stroke="none" 
	d="
M558.786865,854.162842 
	C558.770020,854.573364 558.481750,855.024292 557.907471,855.487793 
	C557.919373,855.067993 558.217407,854.635559 558.786865,854.162842 
z"/>
<path fill="#ABDCAF" opacity="1.000000" stroke="none" 
	d="
M500.997314,952.602234 
	C500.641235,952.422485 500.655853,952.202454 501.058167,951.959778 
	C501.388153,952.153748 501.362183,952.361938 500.997314,952.602234 
z"/>
<path fill="#ABDCAF" opacity="1.000000" stroke="none" 
	d="
M614.356750,798.659302 
	C614.458801,798.917847 614.291748,799.221985 613.857117,799.574219 
	C613.755615,799.316528 613.921631,799.010742 614.356750,798.659302 
z"/>
<path fill="#ABDCAF" opacity="1.000000" stroke="none" 
	d="
M609.375183,803.702637 
	C609.487366,803.946228 609.336121,804.261230 608.922363,804.650635 
	C608.810486,804.408020 608.961121,804.091064 609.375183,803.702637 
z"/>
<path fill="#ABDCAF" opacity="1.000000" stroke="none" 
	d="
M552.372925,860.672852 
	C552.469849,860.929443 552.296814,861.232544 551.854309,861.581909 
	C551.757568,861.325256 551.930237,861.022278 552.372925,860.672852 
z"/>
<path fill="#ABDCAF" opacity="1.000000" stroke="none" 
	d="
M584.378418,828.685425 
	C584.489380,828.945435 584.323792,829.252197 583.894165,829.623413 
	C583.787292,829.369324 583.944641,829.050781 584.378418,828.685425 
z"/>
<path fill="#ABDCAF" opacity="1.000000" stroke="none" 
	d="
M569.341003,843.663208 
	C569.451172,843.913696 569.296753,844.226624 568.875183,844.598999 
	C568.764221,844.347534 568.920288,844.036621 569.341003,843.663208 
z"/>
<path fill="#ABDCAF" opacity="1.000000" stroke="none" 
	d="
M557.208252,855.741333 
	C557.542847,856.048218 557.451233,856.307556 556.921692,856.502136 
	C556.615295,856.192322 556.714661,855.944458 557.208252,855.741333 
z"/>
<path fill="#ABDCAF" opacity="1.000000" stroke="none" 
	d="
M587.262512,825.742676 
	C587.580627,826.061768 587.472412,826.328369 586.931152,826.532349 
	C586.627319,826.211487 586.739990,825.951599 587.262512,825.742676 
z"/>
<path fill="#ABDCAF" opacity="1.000000" stroke="none" 
	d="
M588.268311,824.733032 
	C588.581177,825.060303 588.469543,825.319580 587.924561,825.496521 
	C587.634216,825.168396 587.751770,824.918640 588.268311,824.733032 
z"/>
<path fill="#ABDCAF" opacity="1.000000" stroke="none" 
	d="
M556.275024,856.722839 
	C556.583679,857.061462 556.467468,857.316467 555.920654,857.477905 
	C555.627502,857.138794 555.747559,856.890442 556.275024,856.722839 
z"/>
<path fill="#ABDCAF" opacity="1.000000" stroke="none" 
	d="
M555.231445,857.753418 
	C555.346252,857.994629 555.222351,858.286011 554.849731,858.611877 
	C554.551819,858.281921 554.682373,858.000977 555.231445,857.753418 
z"/>
<path fill="#ABDCAF" opacity="1.000000" stroke="none" 
	d="
M589.363098,823.652893 
	C589.462585,823.889526 589.325562,824.174072 588.937866,824.486938 
	C588.671753,824.156494 588.818237,823.885071 589.363098,823.652893 
z"/>
<path fill="#ABDCAF" opacity="1.000000" stroke="none" 
	d="
M606.358215,806.670898 
	C606.457520,806.918518 606.294556,807.226440 605.863159,807.585571 
	C605.761841,807.334961 605.928894,807.033081 606.358215,806.670898 
z"/>
<path fill="#ABDCAF" opacity="1.000000" stroke="none" 
	d="
M550.336365,862.609619 
	C550.442688,862.864807 550.308655,863.147339 549.922974,863.440063 
	C549.631226,863.084290 549.772827,862.813110 550.336365,862.609619 
z"/>
<path fill="#ABDCAF" opacity="1.000000" stroke="none" 
	d="
M549.211548,863.736328 
	C549.553040,864.049255 549.460205,864.312744 548.919128,864.505920 
	C548.610962,864.189148 548.713074,863.939575 549.211548,863.736328 
z"/>
<path fill="#ABDCAF" opacity="1.000000" stroke="none" 
	d="
M592.427490,820.714111 
	C592.525330,820.970398 592.346008,821.270386 591.901733,821.630676 
	C591.807983,821.379944 591.979187,821.068909 592.427490,820.714111 
z"/>
<path fill="#ABDCAF" opacity="1.000000" stroke="none" 
	d="
M596.419312,816.692444 
	C596.502625,816.949402 596.314941,817.246948 595.853882,817.578857 
	C595.769836,817.319824 595.959167,817.026428 596.419312,816.692444 
z"/>
<path fill="#ABDCAF" opacity="1.000000" stroke="none" 
	d="
M520.367310,892.661865 
	C520.458984,892.919128 520.282471,893.217346 519.836853,893.553711 
	C519.744873,893.295471 519.921997,892.999084 520.367310,892.661865 
z"/>
<path fill="#ABDCAF" opacity="1.000000" stroke="none" 
	d="
M500.865601,953.784302 
	C500.607727,953.864380 500.439056,953.685791 500.336761,953.474976 
	C500.298553,953.396362 500.415192,953.242493 500.632751,953.036499 
	C500.863220,953.137695 500.922180,953.325317 500.865601,953.784302 
z"/>
<path fill="#ABDCAF" opacity="1.000000" stroke="none" 
	d="
M600.408264,812.664062 
	C600.496216,812.908569 600.341492,813.183411 599.936035,813.476196 
	C599.677307,813.126648 599.837402,812.859985 600.408264,812.664062 
z"/>
<path fill="#F4FAF4" opacity="1.000000" stroke="none" 
	d="
M1165.986938,1431.053101 
	C1173.550415,1412.975342 1189.391968,1404.612305 1210.031250,1407.512329 
	C1226.153198,1409.777588 1234.621582,1416.674805 1238.190186,1431.090454 
	C1229.320557,1432.184692 1220.541870,1433.267822 1211.878540,1434.336670 
	C1211.380127,1433.433594 1211.063965,1433.038208 1210.929077,1432.588501 
	C1209.668945,1428.387573 1207.966553,1424.697632 1202.668457,1424.711914 
	C1197.888062,1424.724854 1194.604492,1427.317505 1192.724365,1432.969971 
	C1191.941162,1435.324463 1191.480713,1437.800537 1191.045776,1440.251831 
	C1190.731934,1442.020752 1190.702759,1443.840332 1190.563721,1445.441284 
	C1195.853760,1443.539917 1200.764404,1440.847900 1205.956665,1440.093506 
	C1218.465576,1438.275757 1228.731689,1442.933228 1235.334839,1453.791260 
	C1242.418823,1465.439819 1242.015015,1477.582764 1235.433228,1489.409058 
	C1231.894653,1495.767090 1226.340454,1499.811035 1219.478760,1502.304199 
	C1202.539795,1508.458374 1180.945557,1503.530884 1171.445801,1491.102051 
	C1165.452881,1483.261597 1163.213013,1474.049927 1162.506714,1464.486572 
	C1161.681152,1453.309448 1162.158203,1442.178589 1165.986938,1431.053101 
M1213.832397,1476.852539 
	C1213.719360,1473.220825 1214.089600,1469.491455 1213.380493,1465.980103 
	C1212.305786,1460.658081 1207.603516,1457.136475 1202.705688,1457.131958 
	C1197.566650,1457.127197 1192.907227,1460.301270 1191.815063,1465.665405 
	C1191.043091,1469.457031 1191.019165,1473.639648 1191.743164,1477.441650 
	C1192.858398,1483.296143 1197.655884,1486.888794 1202.988281,1486.950562 
	C1208.407715,1487.013306 1211.678955,1484.178955 1213.832397,1476.852539 
z"/>
<path fill="#F4FAF4" opacity="1.000000" stroke="none" 
	d="
M987.544556,1469.770996 
	C969.849792,1476.452026 952.206238,1468.081299 946.770691,1450.753174 
	C940.993347,1432.335449 950.930725,1413.224731 968.534424,1408.750244 
	C978.659546,1406.176514 988.723145,1406.527344 998.622437,1409.552368 
	C1009.559875,1412.894531 1016.295715,1420.948853 1019.646118,1431.346558 
	C1025.109131,1448.301270 1025.125366,1465.551147 1018.805969,1482.325195 
	C1013.815979,1495.570679 1003.331360,1502.428467 989.569763,1504.112305 
	C984.494385,1504.733398 979.243591,1504.557495 974.129761,1504.103638 
	C960.365784,1502.882202 951.330811,1495.091431 947.240356,1480.870117 
	C955.695740,1479.797119 964.041077,1478.667358 972.413208,1477.794922 
	C973.173096,1477.715820 974.579163,1479.147339 974.875854,1480.123413 
	C976.179321,1484.411499 978.548157,1487.244995 983.336975,1487.116577 
	C988.390747,1486.981079 991.340271,1483.778809 992.691650,1479.416260 
	C994.043762,1475.051147 994.596985,1470.438354 995.687134,1465.003052 
	C992.408875,1466.940674 990.151123,1468.275146 987.544556,1469.770996 
M973.387756,1430.121948 
	C970.736755,1435.860352 970.677490,1441.717529 972.862488,1447.561401 
	C974.542236,1452.053833 977.997864,1454.563110 982.755493,1454.639771 
	C987.689026,1454.719482 992.061646,1452.450073 993.063232,1447.631714 
	C994.064331,1442.815796 994.465332,1437.275146 993.059998,1432.685913 
	C990.283264,1423.618408 980.167908,1422.286987 973.387756,1430.121948 
z"/>
<path fill="#F4FAF4" opacity="1.000000" stroke="none" 
	d="
M1246.097290,1463.880127 
	C1261.365479,1445.343262 1276.510986,1427.196045 1291.745728,1409.124146 
	C1292.599365,1408.111450 1294.174561,1407.166870 1295.440186,1407.131836 
	C1302.395508,1406.939087 1309.358887,1407.039917 1316.771851,1407.039917 
	C1316.771851,1426.089233 1316.771851,1444.673462 1316.771851,1463.799805 
	C1320.755859,1463.982178 1324.322754,1464.145386 1328.253906,1464.325195 
	C1328.253906,1471.332275 1328.253906,1478.228516 1328.253906,1485.721558 
	C1324.619263,1485.721558 1321.052612,1485.721558 1316.941895,1485.721558 
	C1316.941895,1491.698486 1316.941895,1497.109619 1316.941895,1502.804199 
	C1308.807739,1502.804199 1301.230347,1502.804199 1293.072266,1502.804199 
	C1293.072266,1497.365479 1293.072266,1491.961548 1293.072266,1486.018188 
	C1277.274780,1486.018188 1262.037476,1486.018188 1245.993652,1486.018188 
	C1245.993652,1478.428955 1245.993652,1471.357422 1246.097290,1463.880127 
M1276.084351,1457.651245 
	C1274.579102,1459.495605 1273.073853,1461.339844 1271.106934,1463.750000 
	C1278.921753,1463.750000 1285.741577,1463.750000 1292.459961,1463.750000 
	C1292.459961,1455.410156 1292.459961,1447.487549 1292.459961,1438.456543 
	C1286.658081,1445.268921 1281.614502,1451.190918 1276.084351,1457.651245 
z"/>
<path fill="#F4FAF4" opacity="1.000000" stroke="none" 
	d="
M758.660339,1436.967407 
	C750.410767,1435.532104 742.577332,1434.107178 734.772705,1432.687378 
	C735.974426,1421.931274 744.338562,1412.314453 754.946411,1409.319824 
	C765.948059,1406.213989 777.072021,1406.216919 788.029846,1409.166992 
	C796.912598,1411.558228 803.603210,1416.896118 805.706177,1426.359131 
	C807.995789,1436.661987 804.129089,1444.627197 795.023438,1450.581055 
	C797.330933,1451.750732 799.274109,1452.582764 801.063232,1453.668579 
	C810.175720,1459.199829 813.578979,1470.793091 809.639282,1482.441528 
	C805.560974,1494.499512 796.994995,1501.952759 784.700806,1503.454712 
	C775.592590,1504.567383 766.026062,1504.227173 756.952148,1502.755493 
	C744.855896,1500.793579 735.273560,1489.712524 733.227783,1477.136841 
	C742.030396,1475.955322 750.815796,1474.776123 759.451111,1473.616943 
	C765.156067,1486.246338 769.030762,1489.190918 776.229797,1486.692139 
	C781.800110,1484.758667 784.823792,1477.501587 783.094482,1470.216309 
	C781.258606,1462.482544 776.739380,1460.753662 762.937439,1462.849243 
	C763.409302,1456.341675 763.870850,1449.976074 764.343811,1443.453003 
	C766.827820,1443.327759 768.818604,1443.401123 770.749573,1443.095947 
	C775.847290,1442.290283 779.427979,1437.984619 779.291809,1432.983154 
	C779.172607,1428.604004 777.213867,1425.692749 772.655396,1425.006226 
	C767.047913,1424.161743 763.321106,1426.445068 761.385254,1431.739258 
	C760.731323,1433.527710 759.852539,1435.234009 758.660339,1436.967407 
z"/>
<path fill="#F7FBF7" opacity="1.000000" stroke="none" 
	d="
M668.336426,1425.450439 
	C673.443481,1420.283691 678.149719,1415.218750 683.075562,1410.377075 
	C684.531067,1408.946533 686.552673,1407.329224 688.407410,1407.207520 
	C694.491150,1406.808472 700.617493,1407.057617 707.001099,1407.057617 
	C707.001099,1439.207764 707.001099,1470.760498 707.001099,1502.697266 
	C698.078003,1502.697266 689.214417,1502.697266 679.605225,1502.697266 
	C679.605225,1482.813354 679.605225,1463.000244 679.605225,1443.326538 
	C670.707275,1447.485474 662.362427,1451.385986 652.628906,1455.935669 
	C652.628906,1447.588013 652.508911,1440.729858 652.767334,1433.886108 
	C652.803162,1432.936890 654.572449,1431.782959 655.770630,1431.197144 
	C659.797180,1429.228516 663.928345,1427.473877 668.336426,1425.450439 
z"/>
<path fill="#F4FAF4" opacity="1.000000" stroke="none" 
	d="
M854.348022,1503.516479 
	C854.444580,1501.673706 854.663391,1499.880249 855.371399,1498.306763 
	C866.496582,1473.583740 877.750793,1448.918579 888.787598,1424.156372 
	C890.449890,1420.426880 892.237122,1418.206543 896.750000,1418.783569 
	C900.306519,1419.238403 903.967773,1418.874878 908.315918,1418.874878 
	C903.459778,1429.642334 898.924133,1439.768555 894.330688,1449.868530 
	C886.824463,1466.373169 879.175964,1482.814453 871.837402,1499.393188 
	C870.303284,1502.858643 868.398132,1504.191284 864.683777,1503.801880 
	C861.386719,1503.456055 858.028870,1503.690063 854.348022,1503.516479 
z"/>
<path fill="#F4FAF4" opacity="1.000000" stroke="none" 
	d="
M1112.237061,1476.868408 
	C1111.253906,1477.940552 1110.286621,1479.021729 1109.308594,1479.031372 
	C1097.529419,1479.148560 1085.748901,1479.107300 1073.566162,1479.107300 
	C1073.566162,1472.021606 1073.566162,1465.179321 1073.566162,1458.000977 
	C1086.364380,1458.000977 1099.045532,1458.000977 1112.247803,1458.000977 
	C1112.247803,1464.203125 1112.247803,1470.291382 1112.237061,1476.868408 
z"/>
<path fill="#07881A" opacity="1.000000" stroke="none" 
	d="
M1459.419434,947.812012 
	C1459.473267,934.822510 1460.288452,922.337463 1465.365479,910.661743 
	C1473.327759,892.350769 1489.570801,881.523499 1507.339478,882.264038 
	C1526.202271,883.050171 1542.619873,895.194763 1548.867798,914.383545 
	C1556.083252,936.543701 1555.982178,959.054504 1548.114746,981.051147 
	C1541.391235,999.849426 1524.900513,1010.564636 1505.323364,1010.119507 
	C1486.234619,1009.685547 1470.075928,998.111206 1464.506226,979.150391 
	C1461.586914,969.212036 1461.050049,958.573853 1459.419434,947.812012 
z"/>
<path fill="#07881A" opacity="1.000000" stroke="none" 
	d="
M982.005981,927.172302 
	C983.847839,917.669800 986.712280,909.018677 992.260193,901.474304 
	C1002.011597,888.213562 1014.689697,880.570068 1031.592651,882.394653 
	C1048.441406,884.213440 1060.256958,894.067261 1066.059937,909.254944 
	C1076.114258,935.569031 1076.296631,962.445984 1064.769531,988.534302 
	C1057.212769,1005.636780 1040.262939,1015.371155 1022.662842,1014.145081 
	C1005.550110,1012.952820 990.464478,1000.803467 984.952759,983.030273 
	C979.320801,964.869263 979.449219,946.266418 982.005981,927.172302 
z"/>
<path fill="#0A881D" opacity="1.000000" stroke="none" 
	d="
M1247.250244,897.787048 
	C1255.160278,907.294434 1257.719360,918.340210 1259.033936,930.396484 
	C1227.113281,930.396484 1195.465210,930.396484 1163.818359,930.396484 
	C1162.511719,913.437378 1174.781738,893.971497 1191.724487,886.248840 
	C1205.858398,879.806519 1230.489258,878.671692 1247.250244,897.787048 
z"/>
<path fill="#0A881D" opacity="1.000000" stroke="none" 
	d="
M999.931274,1202.327637 
	C1008.371765,1202.885498 1016.406372,1202.907349 1024.252319,1204.134766 
	C1033.720215,1205.615845 1039.004395,1212.745850 1039.122070,1222.545898 
	C1039.245850,1232.838623 1034.197998,1241.072632 1024.840088,1241.844360 
	C1007.529358,1243.271973 990.092468,1243.169312 972.396851,1243.713623 
	C972.396851,1229.387207 972.396851,1216.167725 972.396851,1202.325806 
	C981.572144,1202.325806 990.507019,1202.325806 999.931274,1202.327637 
z"/>
<path fill="#0A881D" opacity="1.000000" stroke="none" 
	d="
M1030.203857,1144.960449 
	C1037.763794,1159.403076 1030.622803,1172.379150 1014.783508,1173.031738 
	C1001.666443,1173.572021 988.520996,1173.428101 975.387939,1173.572876 
	C974.578918,1173.581787 973.768494,1173.465576 972.538086,1173.377441 
	C972.538086,1161.722656 972.538086,1150.216064 972.538086,1138.044434 
	C976.209900,1138.044434 979.811462,1138.011475 983.412231,1138.050659 
	C994.052368,1138.166138 1004.694336,1138.222656 1015.331360,1138.478271 
	C1020.953979,1138.613037 1026.220215,1139.930298 1030.203857,1144.960449 
z"/>
<path fill="#07881A" opacity="1.000000" stroke="none" 
	d="
M803.116211,907.003601 
	C815.298706,934.038696 815.461304,961.222473 803.737000,987.657471 
	C795.501648,1006.225891 779.476929,1015.090759 758.972229,1014.203308 
	C738.389526,1013.312622 723.850952,1002.576477 716.626953,983.714600 
	C707.747559,960.530518 707.792786,936.480164 716.415588,913.268982 
	C723.272583,894.811157 737.354126,883.901672 757.529419,882.489502 
	C777.570068,881.086670 792.584351,889.635315 803.116211,907.003601 
z"/>
<path fill="#0A881D" opacity="1.000000" stroke="none" 
	d="
M1213.754639,1477.271240 
	C1211.678955,1484.178955 1208.407715,1487.013306 1202.988281,1486.950562 
	C1197.655884,1486.888794 1192.858398,1483.296143 1191.743164,1477.441650 
	C1191.019165,1473.639648 1191.043091,1469.457031 1191.815063,1465.665405 
	C1192.907227,1460.301270 1197.566650,1457.127197 1202.705688,1457.131958 
	C1207.603516,1457.136475 1212.305786,1460.658081 1213.380493,1465.980103 
	C1214.089600,1469.491455 1213.719360,1473.220825 1213.754639,1477.271240 
z"/>
<path fill="#0A881D" opacity="1.000000" stroke="none" 
	d="
M973.627686,1429.822998 
	C980.167908,1422.286987 990.283264,1423.618408 993.059998,1432.685913 
	C994.465332,1437.275146 994.064331,1442.815796 993.063232,1447.631714 
	C992.061646,1452.450073 987.689026,1454.719482 982.755493,1454.639771 
	C977.997864,1454.563110 974.542236,1452.053833 972.862488,1447.561401 
	C970.677490,1441.717529 970.736755,1435.860352 973.627686,1429.822998 
z"/>
<path fill="#0A881D" opacity="1.000000" stroke="none" 
	d="
M1276.327637,1457.382080 
	C1281.614502,1451.190918 1286.658081,1445.268921 1292.459961,1438.456543 
	C1292.459961,1447.487549 1292.459961,1455.410156 1292.459961,1463.750000 
	C1285.741577,1463.750000 1278.921753,1463.750000 1271.106934,1463.750000 
	C1273.073853,1461.339844 1274.579102,1459.495605 1276.327637,1457.382080 
z"/>
</svg>