<?xml version="1.0" encoding="UTF-8"?>
<svg xmlns="http://www.w3.org/2000/svg" xmlns:xlink="http://www.w3.org/1999/xlink" width="150px" height="150px" viewBox="0 0 150 150" version="1.1">
<g id="surface1">
<path style=" stroke:none;fill-rule:nonzero;fill:rgb(1.568628%,53.333336%,9.411765%);fill-opacity:1;" d="M 0.0742188 55.589844 C 0.0742188 37.0625 0.0742188 18.566406 0.0742188 0.0742188 C 50.074219 0.0742188 100.074219 0.0742188 150.074219 0.0742188 C 150.074219 50.074219 150.074219 100.074219 150.074219 150.074219 C 100.074219 150.074219 50.074219 150.074219 0.0742188 150.074219 C 0.0742188 118.589844 0.0742188 87.109375 0.0742188 55.589844 M 7.277344 62.867188 C 7.1875 63.753906 7.074219 64.636719 7.003906 65.523438 C 6.605469 70.714844 6.742188 75.886719 7.484375 81.042969 C 8.199219 85.988281 9.421875 90.800781 11.1875 95.472656 C 13.527344 101.679688 16.699219 107.425781 20.761719 112.683594 C 24.496094 117.519531 28.816406 121.761719 33.730469 125.402344 C 38.683594 129.074219 44.054688 131.980469 49.847656 134.109375 C 55.359375 136.132812 61.046875 137.378906 66.890625 137.910156 C 72.136719 138.382812 77.371094 138.222656 82.578125 137.460938 C 86.828125 136.839844 90.984375 135.828125 95.042969 134.421875 C 99.929688 132.726562 104.566406 130.515625 108.929688 127.746094 C 116.945312 122.660156 123.589844 116.171875 128.871094 108.304688 C 134.878906 99.363281 138.441406 89.515625 139.699219 78.84375 C 140.390625 72.996094 140.300781 67.152344 139.429688 61.324219 C 138.554688 55.453125 136.933594 49.800781 134.5625 44.355469 C 131.523438 37.371094 127.394531 31.101562 122.199219 25.53125 C 118.496094 21.5625 114.375 18.085938 109.835938 15.101562 C 104.785156 11.785156 99.386719 9.199219 93.632812 7.351562 C 88.421875 5.679688 83.082031 4.648438 77.625 4.261719 C 72.175781 3.875 66.75 4.125 61.367188 5.066406 C 56.039062 6 50.898438 7.550781 45.957031 9.742188 C 41 11.941406 36.386719 14.710938 32.132812 18.070312 C 28.523438 20.921875 25.25 24.121094 22.308594 27.65625 C 18.257812 32.523438 14.96875 37.855469 12.449219 43.652344 C 9.78125 49.78125 8.082031 56.171875 7.277344 62.867188 Z M 7.277344 62.867188 "/>
<path style=" stroke:none;fill-rule:nonzero;fill:rgb(97.647059%,99.215686%,97.647059%);fill-opacity:1;" d="M 7.28125 62.835938 C 8.082031 56.171875 9.78125 49.78125 12.449219 43.652344 C 14.96875 37.855469 18.257812 32.523438 22.308594 27.65625 C 25.25 24.121094 28.523438 20.921875 32.132812 18.070312 C 36.386719 14.710938 41 11.941406 45.957031 9.742188 C 50.898438 7.550781 56.039062 6 61.367188 5.066406 C 66.75 4.125 72.175781 3.875 77.625 4.261719 C 83.082031 4.648438 88.421875 5.679688 93.632812 7.351562 C 99.386719 9.199219 104.785156 11.785156 109.835938 15.101562 C 114.375 18.085938 118.496094 21.5625 122.199219 25.53125 C 127.394531 31.101562 131.523438 37.371094 134.5625 44.355469 C 136.933594 49.800781 138.554688 55.453125 139.429688 61.324219 C 140.300781 67.152344 140.390625 72.996094 139.699219 78.84375 C 138.441406 89.515625 134.878906 99.363281 128.871094 108.304688 C 123.589844 116.171875 116.945312 122.660156 108.929688 127.746094 C 104.566406 130.515625 99.929688 132.726562 95.042969 134.421875 C 90.984375 135.828125 86.828125 136.839844 82.578125 137.460938 C 77.371094 138.222656 72.136719 138.382812 66.890625 137.910156 C 61.046875 137.378906 55.359375 136.132812 49.847656 134.109375 C 44.054688 131.980469 38.683594 129.074219 33.730469 125.402344 C 28.816406 121.761719 24.496094 117.519531 20.761719 112.683594 C 16.699219 107.425781 13.527344 101.679688 11.1875 95.472656 C 9.421875 90.800781 8.199219 85.988281 7.484375 81.042969 C 6.742188 75.886719 6.605469 70.714844 7.003906 65.523438 C 7.074219 64.636719 7.1875 63.753906 7.28125 62.835938 M 124.550781 84.730469 C 122.34375 87.046875 119.808594 88.953125 117.066406 90.59375 C 112.757812 93.171875 108.113281 94.980469 103.328125 96.441406 C 99.105469 97.726562 94.804688 98.667969 90.441406 99.332031 C 86.5625 99.925781 82.664062 100.3125 78.746094 100.507812 C 70.902344 100.898438 63.101562 100.511719 55.34375 99.253906 C 51.300781 98.601562 47.316406 97.707031 43.40625 96.503906 C 39.136719 95.1875 35.015625 93.53125 31.089844 91.398438 C 26.921875 89.140625 23.121094 86.390625 19.808594 82.992188 C 19.738281 82.921875 19.65625 82.859375 19.515625 82.738281 C 19.554688 82.945312 19.574219 83.0625 19.605469 83.179688 C 21.210938 89.679688 24.246094 95.449219 28.535156 100.582031 C 31.777344 104.464844 35.5625 107.75 39.769531 110.558594 C 40.371094 110.960938 40.929688 111.449219 41.691406 111.585938 C 43.171875 111.847656 44.644531 112.175781 46.128906 112.40625 C 50.332031 113.066406 54.566406 113.441406 58.8125 113.660156 C 62.226562 113.835938 65.644531 113.957031 69.058594 114.003906 C 75.078125 114.082031 81.089844 113.890625 87.089844 113.394531 C 92.476562 112.949219 97.824219 112.230469 103.125 111.164062 C 103.445312 111.101562 103.785156 111.019531 104.050781 110.851562 C 106.351562 109.402344 108.542969 107.800781 110.601562 106.027344 C 116.277344 101.140625 120.632812 95.300781 123.425781 88.347656 C 123.894531 87.171875 124.238281 85.949219 124.679688 84.730469 C 124.679688 84.699219 124.679688 84.664062 124.683594 84.632812 C 124.652344 84.65625 124.625 84.683594 124.550781 84.730469 M 20.082031 59.414062 C 22.386719 56.933594 24.9375 54.734375 27.730469 52.8125 C 33.148438 49.082031 39.085938 46.453125 45.394531 44.632812 C 51.285156 42.929688 57.304688 41.953125 63.417969 41.539062 C 69.238281 41.144531 75.046875 41.265625 80.851562 41.839844 C 85.191406 42.269531 89.492188 42.957031 93.742188 43.9375 C 100.105469 45.402344 106.289062 47.382812 112.136719 50.320312 C 115.4375 51.976562 118.589844 53.871094 121.421875 56.25 C 122.632812 57.273438 123.738281 58.417969 124.910156 59.539062 C 124.929688 59.535156 124.945312 59.535156 124.964844 59.53125 C 124.953125 59.511719 124.941406 59.488281 124.941406 59.410156 C 124.320312 56.921875 123.503906 54.496094 122.496094 52.136719 C 120.210938 46.78125 117.160156 41.914062 113.136719 37.675781 C 110.5625 34.964844 107.691406 32.625 104.382812 30.84375 C 104.195312 30.742188 103.945312 30.695312 103.726562 30.703125 C 100.835938 30.808594 97.949219 30.972656 95.058594 31.03125 C 86.597656 31.195312 78.132812 31.371094 69.667969 31.4375 C 64.316406 31.480469 58.960938 31.390625 53.609375 31.261719 C 49.714844 31.167969 45.828125 30.925781 41.9375 30.726562 C 41.515625 30.707031 41.160156 30.773438 40.789062 30.972656 C 35.152344 34 30.769531 38.378906 27.175781 43.585938 C 24.570312 47.363281 22.550781 51.445312 21.070312 55.785156 C 20.664062 56.972656 20.347656 58.1875 19.953125 59.410156 C 19.953125 59.441406 19.953125 59.476562 19.953125 59.507812 C 19.980469 59.484375 20.011719 59.460938 20.082031 59.414062 M 87.652344 97.46875 C 87.894531 97.429688 88.136719 97.386719 88.378906 97.355469 C 94.273438 96.539062 100.058594 95.253906 105.683594 93.300781 C 110.316406 91.695312 114.734375 89.65625 118.738281 86.792969 C 121.019531 85.160156 123.0625 83.277344 124.6875 80.976562 C 125.480469 79.859375 126.121094 78.707031 126.261719 77.265625 C 126.632812 73.410156 126.628906 69.566406 126.167969 65.722656 C 126.136719 65.472656 126.089844 65.207031 125.972656 64.988281 C 125.65625 64.414062 125.320312 63.84375 124.949219 63.300781 C 122.9375 60.382812 120.332031 58.070312 117.441406 56.0625 C 113.757812 53.503906 109.769531 51.519531 105.59375 49.890625 C 100.519531 47.910156 95.289062 46.480469 89.941406 45.441406 C 85.847656 44.644531 81.722656 44.113281 77.566406 43.820312 C 73.359375 43.523438 69.148438 43.480469 64.933594 43.710938 C 61.433594 43.902344 57.949219 44.265625 54.496094 44.863281 C 49.890625 45.660156 45.382812 46.8125 41.003906 48.460938 C 35.691406 50.457031 30.734375 53.105469 26.308594 56.679688 C 23.566406 58.894531 21.128906 61.402344 19.023438 64.230469 C 18.933594 64.351562 18.863281 64.511719 18.847656 64.660156 C 18.683594 66.015625 18.496094 67.371094 18.394531 68.734375 C 18.167969 71.769531 18.242188 74.804688 18.625 77.828125 C 18.660156 78.101562 18.785156 78.394531 18.953125 78.613281 C 21.371094 81.675781 24.214844 84.285156 27.425781 86.507812 C 31.5625 89.375 36.046875 91.554688 40.78125 93.253906 C 46.027344 95.132812 51.421875 96.417969 56.929688 97.25 C 62.058594 98.027344 67.226562 98.371094 72.414062 98.394531 C 77.492188 98.421875 82.550781 98.109375 87.652344 97.46875 M 72.277344 10.730469 C 72.277344 9.285156 72.277344 7.835938 72.277344 6.347656 C 58.15625 6.566406 45.457031 10.78125 34.292969 19.261719 C 35.234375 20.199219 36.183594 21.046875 37.023438 21.992188 C 38.722656 23.90625 40.195312 25.988281 41.539062 28.164062 C 41.675781 28.382812 41.824219 28.5 42.089844 28.496094 C 42.320312 28.492188 42.550781 28.542969 42.785156 28.554688 C 46.199219 28.707031 49.609375 28.929688 53.027344 28.992188 C 59.273438 29.113281 65.519531 29.136719 71.765625 29.203125 C 71.945312 29.203125 72.121094 29.1875 72.277344 29.179688 C 72.277344 23.027344 72.277344 16.914062 72.277344 10.730469 M 81.433594 29.097656 C 83.882812 29.050781 86.335938 29.027344 88.785156 28.953125 C 93.460938 28.8125 98.140625 28.636719 102.816406 28.488281 C 103.203125 28.476562 103.417969 28.335938 103.640625 28.023438 C 104.65625 26.589844 105.671875 25.148438 106.757812 23.769531 C 108.144531 22.015625 109.636719 20.347656 111.515625 18.992188 C 100.460938 11.058594 88.210938 6.757812 74.609375 6.363281 C 74.609375 14.003906 74.609375 21.585938 74.609375 29.101562 C 76.902344 29.101562 79.128906 29.101562 81.433594 29.097656 M 59.667969 134.554688 C 62.050781 134.914062 64.425781 135.332031 66.816406 135.613281 C 68.503906 135.808594 70.214844 135.8125 71.914062 135.914062 C 72.207031 135.933594 72.398438 135.886719 72.332031 135.53125 C 72.328125 135.496094 72.332031 135.460938 72.332031 135.421875 C 72.320312 129.101562 72.304688 122.78125 72.289062 116.460938 C 72.289062 116.402344 72.261719 116.347656 72.246094 116.269531 C 71.425781 116.269531 70.617188 116.273438 69.808594 116.269531 C 64.320312 116.234375 58.835938 116.023438 53.367188 115.515625 C 49.515625 115.15625 45.671875 114.722656 41.878906 113.925781 C 41.640625 113.875 41.527344 113.941406 41.410156 114.132812 C 41.082031 114.664062 40.746094 115.1875 40.398438 115.703125 C 38.921875 117.878906 37.363281 119.988281 35.453125 121.816406 C 35.050781 122.199219 34.613281 122.546875 34.167969 122.925781 C 41.78125 128.730469 50.265625 132.566406 59.667969 134.554688 M 100.847656 113.890625 C 100.339844 113.976562 99.832031 114.054688 99.328125 114.140625 C 94.722656 114.917969 90.089844 115.46875 85.4375 115.769531 C 81.929688 116 78.414062 116.09375 74.902344 116.25 C 74.796875 116.253906 74.691406 116.265625 74.582031 116.273438 C 74.582031 122.824219 74.582031 129.339844 74.582031 135.902344 C 87.800781 135.460938 99.746094 131.507812 110.59375 123.914062 C 110.386719 123.746094 110.21875 123.640625 110.085938 123.5 C 108.441406 121.753906 107.164062 119.746094 105.96875 117.6875 C 105.183594 116.335938 104.425781 114.96875 103.644531 113.617188 C 103.589844 113.523438 103.425781 113.417969 103.328125 113.433594 C 102.519531 113.566406 101.71875 113.730469 100.847656 113.890625 M 122.566406 95.246094 C 118.359375 102.382812 112.558594 107.980469 105.652344 112.523438 C 106.058594 113.253906 106.460938 113.964844 106.859375 114.675781 C 108.007812 116.734375 109.15625 118.792969 110.617188 120.652344 C 111.148438 121.332031 111.757812 121.949219 112.355469 122.617188 C 121.21875 115.796875 127.890625 107.378906 132.378906 97.257812 C 136.042969 88.996094 137.871094 80.34375 137.894531 71.324219 C 134.835938 71.324219 131.84375 71.324219 128.816406 71.324219 C 128.816406 79.859375 126.871094 87.832031 122.566406 95.246094 M 136.386719 57.191406 C 136.363281 57.09375 136.335938 57 136.316406 56.90625 C 135.480469 53.199219 134.34375 49.585938 132.863281 46.082031 C 129.386719 37.84375 124.410156 30.621094 117.953125 24.425781 C 116.59375 23.121094 115.125 21.9375 113.71875 20.6875 C 113.507812 20.503906 113.335938 20.480469 113.117188 20.648438 C 112.816406 20.878906 112.492188 21.082031 112.199219 21.320312 C 110.601562 22.597656 109.308594 24.160156 108.050781 25.757812 C 107.238281 26.789062 106.480469 27.867188 105.6875 28.941406 C 105.8125 29.023438 105.878906 29.066406 105.949219 29.113281 C 106.757812 29.621094 107.585938 30.097656 108.371094 30.636719 C 111.589844 32.84375 114.402344 35.496094 116.886719 38.496094 C 119.148438 41.222656 121.078125 44.167969 122.707031 47.308594 C 124.6875 51.125 126.207031 55.117188 127.246094 59.285156 C 127.921875 61.988281 128.394531 64.726562 128.617188 67.507812 C 128.65625 68.023438 128.703125 68.539062 128.742188 69.035156 C 131.796875 69.035156 134.804688 69.035156 137.859375 69.035156 C 137.726562 65.03125 137.230469 61.121094 136.386719 57.191406 M 28.84375 23.933594 C 22.5625 29.964844 17.757812 37.007812 14.347656 44.996094 C 10.945312 52.976562 9.191406 61.300781 9.058594 69.945312 C 11.421875 69.945312 13.71875 69.945312 16.050781 69.945312 C 16.066406 69.765625 16.078125 69.636719 16.089844 69.503906 C 16.1875 68.363281 16.261719 67.21875 16.390625 66.082031 C 16.90625 61.550781 18.03125 57.167969 19.691406 52.921875 C 21.613281 48.011719 24.203125 43.484375 27.503906 39.367188 C 30.496094 35.636719 33.949219 32.421875 38.058594 29.933594 C 38.515625 29.65625 38.980469 29.394531 39.457031 29.117188 C 39.390625 29 39.351562 28.898438 39.285156 28.8125 C 38.09375 27.175781 36.929688 25.515625 35.695312 23.910156 C 34.839844 22.792969 33.832031 21.8125 32.644531 21.027344 C 32.414062 20.875 32.261719 20.859375 32.042969 21.054688 C 30.996094 22.011719 29.9375 22.953125 28.84375 23.933594 M 28.34375 117.847656 C 29.566406 118.957031 30.789062 120.0625 32.003906 121.179688 C 32.210938 121.371094 32.375 121.402344 32.597656 121.21875 C 33.050781 120.84375 33.542969 120.515625 33.964844 120.117188 C 35.539062 118.632812 36.820312 116.90625 38.054688 115.144531 C 38.53125 114.464844 38.96875 113.765625 39.429688 113.066406 C 39.324219 112.988281 39.257812 112.9375 39.1875 112.886719 C 37.46875 111.636719 35.699219 110.449219 34.035156 109.128906 C 29.722656 105.699219 26.082031 101.65625 23.128906 97.007812 C 18.671875 90 16.378906 82.335938 16.054688 74.066406 C 16.03125 73.449219 16.050781 72.832031 16.050781 72.234375 C 13.675781 72.234375 11.390625 72.234375 9.023438 72.234375 C 9.589844 89.941406 15.777344 105.203125 28.34375 117.847656 Z M 28.34375 117.847656 "/>
<path style=" stroke:none;fill-rule:nonzero;fill:rgb(1.960784%,53.333336%,9.803922%);fill-opacity:1;" d="M 87.621094 97.472656 C 82.550781 98.109375 77.492188 98.421875 72.414062 98.394531 C 67.226562 98.371094 62.058594 98.027344 56.929688 97.25 C 51.421875 96.417969 46.027344 95.132812 40.78125 93.253906 C 36.046875 91.554688 31.5625 89.375 27.425781 86.507812 C 24.214844 84.285156 21.371094 81.675781 18.953125 78.613281 C 18.785156 78.394531 18.660156 78.101562 18.625 77.828125 C 18.242188 74.804688 18.167969 71.769531 18.394531 68.734375 C 18.496094 67.371094 18.683594 66.015625 18.847656 64.660156 C 18.863281 64.511719 18.933594 64.351562 19.023438 64.230469 C 21.128906 61.402344 23.566406 58.894531 26.308594 56.679688 C 30.734375 53.105469 35.691406 50.457031 41.003906 48.460938 C 45.382812 46.8125 49.890625 45.660156 54.496094 44.863281 C 57.949219 44.265625 61.433594 43.902344 64.933594 43.710938 C 69.148438 43.480469 73.359375 43.523438 77.566406 43.820312 C 81.722656 44.113281 85.847656 44.644531 89.941406 45.441406 C 95.289062 46.480469 100.519531 47.910156 105.59375 49.890625 C 109.769531 51.519531 113.757812 53.503906 117.441406 56.0625 C 120.332031 58.070312 122.9375 60.382812 124.949219 63.300781 C 125.320312 63.84375 125.65625 64.414062 125.972656 64.988281 C 126.089844 65.207031 126.136719 65.472656 126.167969 65.722656 C 126.628906 69.566406 126.632812 73.410156 126.261719 77.265625 C 126.121094 78.707031 125.480469 79.859375 124.6875 80.976562 C 123.0625 83.277344 121.019531 85.160156 118.738281 86.792969 C 114.734375 89.65625 110.316406 91.695312 105.683594 93.300781 C 100.058594 95.253906 94.273438 96.539062 88.378906 97.355469 C 88.136719 97.386719 87.894531 97.429688 87.621094 97.472656 M 40.367188 63.265625 C 40.347656 63.277344 40.339844 63.296875 40.335938 63.320312 C 40.335938 63.320312 40.335938 63.328125 40.292969 63.339844 C 40.246094 63.394531 40.199219 63.449219 40.117188 63.53125 C 40.042969 63.605469 39.96875 63.683594 39.855469 63.769531 C 39.832031 63.804688 39.808594 63.835938 39.75 63.894531 C 39.710938 63.9375 39.675781 63.980469 39.59375 64.03125 C 39.558594 64.074219 39.527344 64.117188 39.453125 64.195312 C 39.0625 64.589844 38.671875 64.984375 38.242188 65.382812 C 38.230469 65.40625 38.214844 65.425781 38.179688 65.464844 C 38.179688 65.464844 38.164062 65.484375 38.121094 65.496094 C 38.085938 65.539062 38.054688 65.582031 38.015625 65.625 C 38.015625 65.625 38.019531 65.628906 37.976562 65.640625 C 37.953125 65.671875 37.929688 65.707031 37.867188 65.761719 C 37.820312 65.816406 37.773438 65.871094 37.683594 65.9375 C 37.648438 65.980469 37.613281 66.023438 37.574219 66.066406 C 37.574219 66.066406 37.578125 66.070312 37.535156 66.078125 C 37.5 66.125 37.464844 66.167969 37.410156 66.226562 C 37.410156 66.226562 37.394531 66.25 37.355469 66.261719 C 37.332031 66.292969 37.308594 66.328125 37.242188 66.390625 C 37.136719 66.496094 37.03125 66.605469 36.867188 66.695312 C 36.851562 66.679688 36.835938 66.667969 36.828125 66.585938 C 36.824219 63.828125 36.820312 61.070312 36.835938 58.253906 C 36.78125 58.203125 36.726562 58.113281 36.671875 58.113281 C 36.261719 58.113281 35.851562 58.128906 35.386719 58.132812 C 35.332031 58.136719 35.277344 58.136719 35.179688 58.117188 C 35.070312 58.125 34.960938 58.132812 34.792969 58.132812 C 34.714844 58.136719 34.636719 58.140625 34.515625 58.117188 C 34.179688 58.230469 34.382812 58.480469 34.363281 58.746094 C 34.363281 60.246094 34.359375 61.746094 34.359375 63.246094 C 34.363281 67.382812 34.367188 71.515625 34.347656 75.699219 C 34.328125 75.863281 34.371094 75.957031 34.609375 75.894531 C 34.640625 75.894531 34.671875 75.890625 34.738281 75.910156 C 34.800781 75.902344 34.863281 75.898438 34.984375 75.898438 C 35.0625 75.894531 35.140625 75.890625 35.246094 75.914062 C 35.285156 75.90625 35.328125 75.898438 35.4375 75.898438 C 35.832031 75.894531 36.222656 75.894531 36.65625 75.914062 C 36.710938 75.851562 36.765625 75.789062 36.824219 75.65625 C 36.824219 73.730469 36.820312 71.804688 36.835938 69.835938 C 36.832031 69.824219 36.828125 69.808594 36.832031 69.785156 C 36.832031 69.785156 36.824219 69.773438 36.851562 69.765625 C 36.863281 69.753906 36.867188 69.738281 36.894531 69.6875 C 37.8125 68.796875 38.730469 67.90625 39.65625 67.007812 C 39.742188 67.121094 39.800781 67.199219 39.859375 67.28125 C 41.824219 70.0625 43.789062 72.839844 45.75 75.628906 C 45.890625 75.832031 46.042969 75.910156 46.292969 75.90625 C 46.902344 75.886719 47.515625 75.898438 48.128906 75.898438 C 48.453125 75.898438 48.773438 75.898438 49.191406 75.898438 C 46.558594 72.335938 43.984375 68.855469 41.394531 65.351562 C 43.871094 62.964844 46.339844 60.589844 48.867188 58.15625 C 48.65625 58.144531 48.527344 58.132812 48.398438 58.132812 C 47.613281 58.128906 46.828125 58.148438 46.042969 58.125 C 45.683594 58.113281 45.398438 58.1875 45.152344 58.5 C 45.140625 58.519531 45.128906 58.542969 45.078125 58.59375 C 44.996094 58.683594 44.910156 58.769531 44.789062 58.871094 C 44.777344 58.894531 44.765625 58.917969 44.71875 58.960938 C 44.679688 59 44.640625 59.039062 44.566406 59.085938 C 44.554688 59.109375 44.542969 59.132812 44.492188 59.179688 C 44.382812 59.292969 44.273438 59.40625 44.128906 59.523438 C 44.105469 59.535156 44.09375 59.554688 44.085938 59.585938 C 44.085938 59.585938 44.082031 59.59375 44.042969 59.601562 C 44.023438 59.632812 44 59.664062 43.945312 59.71875 C 43.921875 59.75 43.898438 59.78125 43.835938 59.820312 C 43.820312 59.839844 43.804688 59.863281 43.757812 59.910156 C 43.699219 59.976562 43.640625 60.042969 43.539062 60.113281 C 43.527344 60.136719 43.515625 60.160156 43.46875 60.203125 C 43.429688 60.242188 43.390625 60.28125 43.316406 60.328125 C 43.296875 60.34375 43.285156 60.363281 43.273438 60.394531 C 43.273438 60.394531 43.269531 60.402344 43.238281 60.40625 C 43.21875 60.417969 43.207031 60.4375 43.203125 60.464844 C 43.203125 60.464844 43.199219 60.476562 43.164062 60.480469 C 43.144531 60.496094 43.132812 60.511719 43.132812 60.539062 C 43.132812 60.539062 43.132812 60.546875 43.09375 60.554688 C 43.070312 60.585938 43.046875 60.617188 43.003906 60.667969 C 43.003906 60.667969 42.988281 60.691406 42.949219 60.699219 C 42.9375 60.722656 42.925781 60.746094 42.875 60.796875 C 42.542969 61.125 42.214844 61.457031 41.84375 61.796875 C 41.832031 61.820312 41.820312 61.84375 41.769531 61.890625 C 41.546875 62.113281 41.328125 62.335938 41.066406 62.5625 C 41.046875 62.59375 41.023438 62.628906 40.988281 62.664062 C 40.988281 62.664062 40.988281 62.675781 40.957031 62.679688 C 40.933594 62.691406 40.925781 62.710938 40.921875 62.738281 C 40.921875 62.738281 40.917969 62.746094 40.886719 62.75 C 40.863281 62.761719 40.855469 62.777344 40.847656 62.808594 C 40.847656 62.808594 40.84375 62.820312 40.808594 62.828125 C 40.785156 62.84375 40.777344 62.863281 40.746094 62.914062 C 40.707031 62.953125 40.671875 62.992188 40.597656 63.039062 C 40.582031 63.0625 40.570312 63.085938 40.527344 63.125 C 40.511719 63.140625 40.496094 63.15625 40.449219 63.179688 C 40.425781 63.195312 40.414062 63.214844 40.402344 63.246094 C 40.402344 63.246094 40.398438 63.261719 40.367188 63.265625 M 108.300781 63.160156 C 107.402344 63.5625 106.695312 64.175781 106.160156 64.996094 C 105.394531 66.160156 105.058594 67.457031 104.976562 68.832031 C 104.863281 70.695312 105.265625 72.414062 106.390625 73.9375 C 107.769531 75.804688 110.554688 76.484375 112.625 75.425781 C 113.125 75.167969 113.566406 74.792969 114.089844 74.433594 C 114.042969 75.222656 114.066406 76.007812 113.933594 76.765625 C 113.738281 77.898438 113.078125 78.730469 111.921875 78.988281 C 111.238281 79.136719 110.507812 79.1875 109.8125 79.125 C 108.714844 79.023438 107.835938 78.550781 107.636719 77.316406 C 107.625 77.226562 107.519531 77.097656 107.441406 77.085938 C 106.773438 76.984375 106.097656 76.898438 105.425781 76.8125 C 105.210938 78.273438 105.980469 79.726562 107.339844 80.394531 C 109.222656 81.316406 111.183594 81.339844 113.125 80.664062 C 114.828125 80.074219 115.902344 78.867188 116.171875 77.054688 C 116.292969 76.222656 116.375 75.378906 116.382812 74.542969 C 116.40625 70.808594 116.394531 67.070312 116.394531 63.335938 C 116.394531 63.230469 116.378906 63.125 116.371094 63.019531 C 115.664062 63.019531 114.984375 63.019531 114.257812 63.019531 C 114.257812 63.46875 114.257812 63.898438 114.257812 64.382812 C 112.53125 62.582031 110.550781 62.332031 108.300781 63.160156 M 71.066406 75.898438 C 71.402344 75.898438 71.742188 75.898438 72.125 75.898438 C 72.125 75.414062 72.125 74.988281 72.125 74.488281 C 72.359375 74.734375 72.519531 74.929688 72.707031 75.101562 C 74.136719 76.398438 76.449219 76.566406 78.21875 75.503906 C 79.792969 74.554688 80.691406 73.140625 81.03125 71.359375 C 81.449219 69.148438 81.289062 67.011719 80.105469 65.027344 C 78.617188 62.527344 74.574219 61.792969 72.484375 64.085938 C 72.4375 64.132812 72.382812 64.175781 72.273438 64.269531 C 72.273438 62.191406 72.273438 60.1875 72.273438 58.15625 C 71.496094 58.15625 70.757812 58.15625 70.007812 58.15625 C 70.007812 64.074219 70.007812 69.972656 70.007812 75.898438 C 70.359375 75.898438 70.675781 75.898438 71.066406 75.898438 M 92.996094 71.710938 C 92.863281 71.703125 92.730469 71.695312 92.585938 71.683594 C 92.523438 71.832031 92.46875 71.96875 92.410156 72.101562 C 92.074219 72.851562 91.636719 73.53125 90.871094 73.902344 C 89.605469 74.511719 88.34375 74.453125 87.171875 73.675781 C 85.910156 72.835938 85.523438 71.542969 85.417969 70.0625 C 88.625 70.0625 91.789062 70.0625 94.980469 70.0625 C 94.980469 69.589844 95.003906 69.164062 94.976562 68.742188 C 94.878906 67.160156 94.476562 65.679688 93.359375 64.484375 C 91.863281 62.886719 89.972656 62.460938 87.882812 62.816406 C 85.921875 63.152344 84.492188 64.257812 83.707031 66.082031 C 82.839844 68.101562 82.828125 70.1875 83.445312 72.277344 C 83.839844 73.617188 84.648438 74.695312 85.878906 75.363281 C 87.890625 76.457031 89.992188 76.503906 92.070312 75.601562 C 93.632812 74.921875 94.488281 73.613281 94.9375 71.957031 C 94.285156 71.875 93.667969 71.796875 92.996094 71.710938 M 73.273438 93.160156 C 74.261719 93.121094 75.261719 93.144531 76.242188 93.023438 C 77.539062 92.863281 78.390625 92.054688 78.800781 90.839844 C 79.171875 89.738281 79.101562 88.648438 78.28125 87.753906 C 77.921875 87.363281 77.429688 87.101562 77 86.785156 C 77 86.785156 77.039062 86.757812 77.078125 86.730469 C 77.980469 86.121094 78.449219 85.277344 78.40625 84.195312 C 78.363281 83.015625 77.773438 82.125 76.695312 81.675781 C 76.09375 81.425781 75.394531 81.328125 74.734375 81.308594 C 72.984375 81.253906 71.230469 81.28125 69.480469 81.273438 C 69.324219 81.273438 69.167969 81.273438 68.996094 81.273438 C 68.996094 85.257812 68.996094 89.1875 68.996094 93.160156 C 70.414062 93.160156 71.804688 93.160156 73.273438 93.160156 M 56.835938 76.144531 C 56.957031 76.125 57.078125 76.109375 57.199219 76.082031 C 59.496094 75.597656 61.105469 74.328125 61.730469 72.015625 C 62.128906 70.5625 62.148438 69.074219 61.898438 67.589844 C 61.734375 66.613281 61.375 65.710938 60.753906 64.925781 C 59.3125 63.109375 57.371094 62.507812 55.136719 62.765625 C 52.96875 63.011719 51.300781 64.078125 50.496094 66.140625 C 49.59375 68.449219 49.621094 70.800781 50.636719 73.085938 C 51.226562 74.414062 52.289062 75.300781 53.65625 75.808594 C 54.664062 76.183594 55.707031 76.253906 56.835938 76.144531 M 88.003906 81.457031 C 86.507812 83.078125 85.011719 84.699219 83.515625 86.320312 C 83.488281 86.308594 83.460938 86.300781 83.433594 86.289062 C 83.433594 84.628906 83.433594 82.964844 83.433594 81.296875 C 82.582031 81.296875 81.777344 81.296875 80.960938 81.296875 C 80.960938 85.253906 80.960938 89.191406 80.960938 93.128906 C 81.800781 93.128906 82.609375 93.128906 83.441406 93.128906 C 83.441406 92.316406 83.503906 91.53125 83.425781 90.757812 C 83.335938 89.886719 83.59375 89.238281 84.277344 88.699219 C 84.644531 88.410156 84.945312 88.042969 85.296875 87.691406 C 85.402344 87.859375 85.480469 87.976562 85.554688 88.101562 C 86.488281 89.691406 87.425781 91.277344 88.351562 92.871094 C 88.476562 93.089844 88.613281 93.175781 88.867188 93.167969 C 89.652344 93.152344 90.4375 93.164062 91.21875 93.164062 C 91.371094 93.164062 91.523438 93.164062 91.730469 93.164062 C 91.628906 92.992188 91.574219 92.886719 91.511719 92.785156 C 90.089844 90.609375 88.671875 88.429688 87.242188 86.257812 C 87.078125 86.015625 87.066406 85.867188 87.289062 85.644531 C 88.179688 84.757812 89.050781 83.847656 89.929688 82.945312 C 90.441406 82.414062 90.953125 81.878906 91.53125 81.273438 C 90.382812 81.273438 89.332031 81.269531 88.28125 81.28125 C 88.203125 81.28125 88.121094 81.371094 88.003906 81.457031 M 65.460938 81.273438 C 65.222656 81.238281 65.1875 81.414062 65.132812 81.578125 C 64.484375 83.542969 63.828125 85.511719 63.175781 87.476562 C 62.925781 88.230469 62.671875 88.984375 62.394531 89.816406 C 62.3125 89.632812 62.265625 89.535156 62.230469 89.433594 C 61.355469 86.875 60.476562 84.316406 59.609375 81.753906 C 59.496094 81.417969 59.371094 81.203125 58.957031 81.265625 C 58.632812 81.308594 58.296875 81.273438 57.964844 81.273438 C 57.566406 81.273438 57.171875 81.273438 56.742188 81.273438 C 56.78125 81.414062 56.800781 81.480469 56.824219 81.550781 C 57.421875 83.222656 58.015625 84.898438 58.617188 86.574219 C 59.371094 88.671875 60.128906 90.769531 60.878906 92.871094 C 60.953125 93.082031 61.050781 93.179688 61.292969 93.167969 C 61.730469 93.148438 62.171875 93.160156 62.613281 93.160156 C 63.605469 93.160156 63.613281 93.164062 63.941406 92.25 C 65.046875 89.1875 66.148438 86.128906 67.25 83.070312 C 67.460938 82.492188 67.664062 81.910156 67.890625 81.273438 C 67.0625 81.273438 66.292969 81.273438 65.460938 81.273438 M 66.726562 64.636719 C 66.726562 62.472656 66.726562 60.308594 66.726562 58.15625 C 65.925781 58.15625 65.195312 58.15625 64.449219 58.15625 C 64.441406 58.285156 64.429688 58.394531 64.429688 58.503906 C 64.429688 64.148438 64.429688 69.796875 64.433594 75.445312 C 64.433594 75.53125 64.40625 75.628906 64.441406 75.699219 C 64.476562 75.777344 64.566406 75.886719 64.636719 75.890625 C 65.316406 75.902344 66.003906 75.898438 66.726562 75.898438 C 66.726562 72.144531 66.726562 68.425781 66.726562 64.636719 M 100.046875 67.113281 C 100.363281 65.609375 101.363281 64.851562 102.726562 65.121094 C 103.101562 65.195312 103.457031 65.367188 103.855469 65.507812 C 104.113281 64.820312 104.367188 64.132812 104.625 63.433594 C 103.726562 62.898438 102.820312 62.578125 101.796875 62.761719 C 100.734375 62.953125 100.214844 63.800781 99.664062 64.609375 C 99.636719 64.59375 99.605469 64.578125 99.578125 64.5625 C 99.578125 64.046875 99.578125 63.527344 99.578125 63.011719 C 98.875 63.011719 98.21875 63.011719 97.539062 63.011719 C 97.539062 67.304688 97.539062 71.578125 97.539062 75.875 C 98.296875 75.875 99.035156 75.875 99.816406 75.875 C 99.816406 75.722656 99.816406 75.589844 99.816406 75.460938 C 99.816406 73.421875 99.796875 71.386719 99.824219 69.347656 C 99.835938 68.621094 99.957031 67.898438 100.046875 67.113281 Z M 100.046875 67.113281 "/>
<path style=" stroke:none;fill-rule:nonzero;fill:rgb(1.960784%,53.333336%,9.803922%);fill-opacity:1;" d="M 124.890625 59.507812 C 123.738281 58.417969 122.632812 57.273438 121.421875 56.25 C 118.589844 53.871094 115.4375 51.976562 112.136719 50.320312 C 106.289062 47.382812 100.105469 45.402344 93.742188 43.9375 C 89.492188 42.957031 85.191406 42.269531 80.851562 41.839844 C 75.046875 41.265625 69.238281 41.144531 63.417969 41.539062 C 57.304688 41.953125 51.285156 42.929688 45.394531 44.632812 C 39.085938 46.453125 33.148438 49.082031 27.730469 52.8125 C 24.9375 54.734375 22.386719 56.933594 20.046875 59.414062 C 20.015625 59.414062 19.988281 59.390625 19.988281 59.390625 C 20.347656 58.1875 20.664062 56.972656 21.070312 55.785156 C 22.550781 51.445312 24.570312 47.363281 27.175781 43.585938 C 30.769531 38.378906 35.152344 34 40.789062 30.972656 C 41.160156 30.773438 41.515625 30.707031 41.9375 30.726562 C 45.828125 30.925781 49.714844 31.167969 53.609375 31.261719 C 58.960938 31.390625 64.316406 31.480469 69.667969 31.4375 C 78.132812 31.371094 86.597656 31.195312 95.058594 31.03125 C 97.949219 30.972656 100.835938 30.808594 103.726562 30.703125 C 103.945312 30.695312 104.195312 30.742188 104.382812 30.84375 C 107.691406 32.625 110.5625 34.964844 113.136719 37.675781 C 117.160156 41.914062 120.210938 46.78125 122.496094 52.136719 C 123.503906 54.496094 124.320312 56.921875 124.925781 59.449219 C 124.910156 59.488281 124.890625 59.507812 124.890625 59.507812 Z M 124.890625 59.507812 "/>
<path style=" stroke:none;fill-rule:nonzero;fill:rgb(2.352941%,53.333336%,9.803922%);fill-opacity:1;" d="M 124.640625 84.75 C 124.238281 85.949219 123.894531 87.171875 123.425781 88.347656 C 120.632812 95.300781 116.277344 101.140625 110.601562 106.027344 C 108.542969 107.800781 106.351562 109.402344 104.050781 110.851562 C 103.785156 111.019531 103.445312 111.101562 103.125 111.164062 C 97.824219 112.230469 92.476562 112.949219 87.089844 113.394531 C 81.089844 113.890625 75.078125 114.082031 69.058594 114.003906 C 65.644531 113.957031 62.226562 113.835938 58.8125 113.660156 C 54.566406 113.441406 50.332031 113.066406 46.128906 112.40625 C 44.644531 112.175781 43.171875 111.847656 41.691406 111.585938 C 40.929688 111.449219 40.371094 110.960938 39.769531 110.558594 C 35.5625 107.75 31.777344 104.464844 28.535156 100.582031 C 24.246094 95.449219 21.210938 89.679688 19.605469 83.179688 C 19.574219 83.0625 19.554688 82.945312 19.515625 82.738281 C 19.65625 82.859375 19.738281 82.921875 19.808594 82.992188 C 23.121094 86.390625 26.921875 89.140625 31.089844 91.398438 C 35.015625 93.53125 39.136719 95.1875 43.40625 96.503906 C 47.316406 97.707031 51.300781 98.601562 55.34375 99.253906 C 63.101562 100.511719 70.902344 100.898438 78.746094 100.507812 C 82.664062 100.3125 86.5625 99.925781 90.441406 99.332031 C 94.804688 98.667969 99.105469 97.726562 103.328125 96.441406 C 108.113281 94.980469 112.757812 93.171875 117.066406 90.59375 C 119.808594 88.953125 122.34375 87.046875 124.585938 84.730469 C 124.617188 84.730469 124.640625 84.75 124.640625 84.75 M 85.722656 104.839844 C 85.453125 105.628906 85.417969 106.445312 85.476562 107.261719 C 85.53125 107.960938 85.695312 108.636719 86.136719 109.210938 C 86.835938 110.121094 88.421875 110.484375 89.667969 110.03125 C 90.171875 109.847656 90.582031 109.554688 90.839844 109.085938 C 91.324219 108.222656 91.355469 107.332031 90.832031 106.480469 C 90.347656 105.683594 89.59375 105.34375 88.671875 105.476562 C 88.292969 105.53125 87.929688 105.726562 87.542969 105.867188 C 87.550781 105.75 87.554688 105.617188 87.578125 105.488281 C 87.609375 105.308594 87.644531 105.125 87.699219 104.953125 C 87.839844 104.539062 88.078125 104.351562 88.429688 104.347656 C 88.820312 104.347656 88.945312 104.617188 89.039062 104.925781 C 89.046875 104.957031 89.070312 104.988281 89.109375 105.054688 C 89.746094 104.976562 90.390625 104.894531 91.042969 104.816406 C 90.78125 103.761719 90.160156 103.253906 88.972656 103.089844 C 87.457031 102.875 86.289062 103.488281 85.722656 104.839844 M 72.640625 107.636719 C 72.804688 107.539062 72.972656 107.441406 73.210938 107.300781 C 73.132812 107.699219 73.089844 108.035156 72.992188 108.355469 C 72.894531 108.675781 72.675781 108.910156 72.304688 108.917969 C 71.953125 108.929688 71.777344 108.722656 71.683594 108.40625 C 71.660156 108.335938 71.558594 108.230469 71.5 108.238281 C 70.886719 108.300781 70.273438 108.382812 69.648438 108.460938 C 69.949219 109.503906 70.613281 110.074219 71.628906 110.164062 C 72.003906 110.195312 72.390625 110.210938 72.761719 110.164062 C 73.773438 110.042969 74.546875 109.539062 74.914062 108.570312 C 75.375 107.339844 75.375 106.078125 74.972656 104.835938 C 74.726562 104.074219 74.230469 103.484375 73.429688 103.238281 C 72.699219 103.015625 71.960938 102.992188 71.214844 103.179688 C 69.921875 103.507812 69.191406 104.90625 69.617188 106.257812 C 70.015625 107.527344 71.3125 108.136719 72.640625 107.636719 M 91.617188 107.246094 C 91.617188 107.765625 91.617188 108.285156 91.617188 108.839844 C 92.796875 108.839844 93.917969 108.839844 95.078125 108.839844 C 95.078125 109.273438 95.078125 109.671875 95.078125 110.070312 C 95.679688 110.070312 96.234375 110.070312 96.832031 110.070312 C 96.832031 109.652344 96.832031 109.253906 96.832031 108.816406 C 97.136719 108.816406 97.398438 108.816406 97.664062 108.816406 C 97.664062 108.269531 97.664062 107.761719 97.664062 107.25 C 97.375 107.238281 97.113281 107.226562 96.820312 107.210938 C 96.820312 105.8125 96.820312 104.449219 96.820312 103.054688 C 96.277344 103.054688 95.765625 103.046875 95.253906 103.0625 C 95.160156 103.0625 95.042969 103.132812 94.980469 103.207031 C 93.859375 104.53125 92.746094 105.859375 91.617188 107.246094 M 55.8125 105.246094 C 55.871094 105.121094 55.9375 104.996094 55.984375 104.863281 C 56.125 104.476562 56.402344 104.308594 56.8125 104.371094 C 57.148438 104.421875 57.292969 104.632812 57.300781 104.953125 C 57.3125 105.320312 57.046875 105.636719 56.671875 105.695312 C 56.53125 105.71875 56.382812 105.710938 56.203125 105.722656 C 56.167969 106.199219 56.132812 106.664062 56.097656 107.140625 C 57.113281 106.988281 57.445312 107.117188 57.582031 107.683594 C 57.707031 108.214844 57.484375 108.746094 57.074219 108.886719 C 56.546875 109.070312 56.261719 108.855469 55.84375 107.929688 C 55.207031 108.015625 54.5625 108.101562 53.914062 108.1875 C 54.0625 109.109375 54.769531 109.921875 55.660156 110.066406 C 56.324219 110.171875 57.027344 110.199219 57.699219 110.117188 C 58.601562 110.007812 59.234375 109.460938 59.53125 108.578125 C 59.820312 107.722656 59.570312 106.875 58.902344 106.46875 C 58.769531 106.390625 58.628906 106.328125 58.457031 106.242188 C 59.128906 105.808594 59.410156 105.222656 59.242188 104.46875 C 59.089844 103.777344 58.597656 103.386719 57.945312 103.210938 C 57.136719 102.996094 56.320312 102.996094 55.511719 103.222656 C 54.730469 103.441406 54.117188 104.144531 54.027344 104.933594 C 54.601562 105.039062 55.175781 105.140625 55.8125 105.246094 M 49.117188 104.417969 C 48.816406 104.550781 48.515625 104.679688 48.21875 104.824219 C 48.128906 104.867188 48 104.953125 47.996094 105.019531 C 47.980469 105.523438 47.988281 106.023438 47.988281 106.636719 C 48.703125 106.300781 49.316406 106.015625 49.972656 105.710938 C 49.972656 107.152344 49.972656 108.605469 49.972656 110.0625 C 50.675781 110.0625 51.328125 110.0625 51.984375 110.0625 C 51.984375 107.722656 51.984375 105.410156 51.984375 103.054688 C 51.515625 103.054688 51.066406 103.039062 50.617188 103.066406 C 50.480469 103.074219 50.332031 103.195312 50.226562 103.300781 C 49.863281 103.652344 49.519531 104.023438 49.117188 104.417969 M 62.84375 110.132812 C 63.089844 110.132812 63.335938 110.117188 63.578125 110.140625 C 63.851562 110.171875 63.992188 110.074219 64.105469 109.820312 C 64.644531 108.605469 65.207031 107.398438 65.757812 106.191406 C 66.097656 105.453125 66.429688 104.710938 66.789062 103.921875 C 66.46875 103.921875 66.199219 103.949219 65.9375 103.914062 C 65.605469 103.871094 65.472656 104.035156 65.351562 104.308594 C 64.539062 106.121094 63.714844 107.929688 62.894531 109.738281 C 62.84375 109.855469 62.828125 109.984375 62.84375 110.132812 M 81.78125 108.132812 C 81.78125 107.6875 81.78125 107.242188 81.78125 106.789062 C 80.8125 106.789062 79.878906 106.789062 78.9375 106.789062 C 78.9375 107.3125 78.9375 107.8125 78.9375 108.332031 C 79.835938 108.332031 80.699219 108.335938 81.566406 108.328125 C 81.640625 108.328125 81.710938 108.246094 81.78125 108.132812 Z M 81.78125 108.132812 "/>
<path style=" stroke:none;fill-rule:nonzero;fill:rgb(1.960784%,53.333336%,9.803922%);fill-opacity:1;" d="M 72.277344 10.765625 C 72.277344 16.914062 72.277344 23.027344 72.277344 29.179688 C 72.121094 29.1875 71.945312 29.203125 71.765625 29.203125 C 65.519531 29.136719 59.273438 29.113281 53.027344 28.992188 C 49.609375 28.929688 46.199219 28.707031 42.785156 28.554688 C 42.550781 28.542969 42.320312 28.492188 42.089844 28.496094 C 41.824219 28.5 41.675781 28.382812 41.539062 28.164062 C 40.195312 25.988281 38.722656 23.90625 37.023438 21.992188 C 36.183594 21.046875 35.234375 20.199219 34.292969 19.261719 C 45.457031 10.78125 58.15625 6.566406 72.277344 6.347656 C 72.277344 7.835938 72.277344 9.285156 72.277344 10.765625 Z M 72.277344 10.765625 "/>
<path style=" stroke:none;fill-rule:nonzero;fill:rgb(1.960784%,53.333336%,9.803922%);fill-opacity:1;" d="M 81.398438 29.097656 C 79.128906 29.101562 76.902344 29.101562 74.609375 29.101562 C 74.609375 21.585938 74.609375 14.003906 74.609375 6.363281 C 88.210938 6.757812 100.460938 11.058594 111.515625 18.992188 C 109.636719 20.347656 108.144531 22.015625 106.757812 23.769531 C 105.671875 25.148438 104.65625 26.589844 103.640625 28.023438 C 103.417969 28.335938 103.203125 28.476562 102.816406 28.488281 C 98.140625 28.636719 93.460938 28.8125 88.785156 28.953125 C 86.335938 29.027344 83.882812 29.050781 81.398438 29.097656 Z M 81.398438 29.097656 "/>
<path style=" stroke:none;fill-rule:nonzero;fill:rgb(1.960784%,53.333336%,9.803922%);fill-opacity:1;" d="M 59.636719 134.550781 C 50.265625 132.566406 41.78125 128.730469 34.167969 122.925781 C 34.613281 122.546875 35.050781 122.199219 35.453125 121.816406 C 37.363281 119.988281 38.921875 117.878906 40.398438 115.703125 C 40.746094 115.1875 41.082031 114.664062 41.410156 114.132812 C 41.527344 113.941406 41.640625 113.875 41.878906 113.925781 C 45.671875 114.722656 49.515625 115.15625 53.367188 115.515625 C 58.835938 116.023438 64.320312 116.234375 69.808594 116.269531 C 70.617188 116.273438 71.425781 116.269531 72.246094 116.269531 C 72.261719 116.347656 72.289062 116.402344 72.289062 116.460938 C 72.304688 122.78125 72.320312 129.101562 72.332031 135.421875 C 72.332031 135.460938 72.328125 135.496094 72.332031 135.53125 C 72.398438 135.886719 72.207031 135.933594 71.914062 135.914062 C 70.214844 135.8125 68.503906 135.808594 66.816406 135.613281 C 64.425781 135.332031 62.050781 134.914062 59.636719 134.550781 Z M 59.636719 134.550781 "/>
<path style=" stroke:none;fill-rule:nonzero;fill:rgb(1.960784%,53.333336%,9.803922%);fill-opacity:1;" d="M 100.878906 113.886719 C 101.71875 113.730469 102.519531 113.566406 103.328125 113.433594 C 103.425781 113.417969 103.589844 113.523438 103.644531 113.617188 C 104.425781 114.96875 105.183594 116.335938 105.96875 117.6875 C 107.164062 119.746094 108.441406 121.753906 110.085938 123.5 C 110.21875 123.640625 110.386719 123.746094 110.59375 123.914062 C 99.746094 131.507812 87.800781 135.460938 74.582031 135.902344 C 74.582031 129.339844 74.582031 122.824219 74.582031 116.273438 C 74.691406 116.265625 74.796875 116.253906 74.902344 116.25 C 78.414062 116.09375 81.929688 116 85.4375 115.769531 C 90.089844 115.46875 94.722656 114.917969 99.328125 114.140625 C 99.832031 114.054688 100.339844 113.976562 100.878906 113.886719 Z M 100.878906 113.886719 "/>
<path style=" stroke:none;fill-rule:nonzero;fill:rgb(1.960784%,53.333336%,9.803922%);fill-opacity:1;" d="M 122.578125 95.222656 C 126.871094 87.832031 128.816406 79.859375 128.816406 71.324219 C 131.84375 71.324219 134.835938 71.324219 137.894531 71.324219 C 137.871094 80.34375 136.042969 88.996094 132.378906 97.257812 C 127.890625 107.378906 121.21875 115.796875 112.355469 122.617188 C 111.757812 121.949219 111.148438 121.332031 110.617188 120.652344 C 109.15625 118.792969 108.007812 116.734375 106.859375 114.675781 C 106.460938 113.964844 106.058594 113.253906 105.652344 112.523438 C 112.558594 107.980469 118.359375 102.382812 122.578125 95.222656 Z M 122.578125 95.222656 "/>
<path style=" stroke:none;fill-rule:nonzero;fill:rgb(1.960784%,53.333336%,9.803922%);fill-opacity:1;" d="M 136.390625 57.21875 C 137.230469 61.121094 137.726562 65.03125 137.859375 69.035156 C 134.804688 69.035156 131.796875 69.035156 128.742188 69.035156 C 128.703125 68.539062 128.65625 68.023438 128.617188 67.507812 C 128.394531 64.726562 127.921875 61.988281 127.246094 59.285156 C 126.207031 55.117188 124.6875 51.125 122.707031 47.308594 C 121.078125 44.167969 119.148438 41.222656 116.886719 38.496094 C 114.402344 35.496094 111.589844 32.84375 108.371094 30.636719 C 107.585938 30.097656 106.757812 29.621094 105.949219 29.113281 C 105.878906 29.066406 105.8125 29.023438 105.6875 28.941406 C 106.480469 27.867188 107.238281 26.789062 108.050781 25.757812 C 109.308594 24.160156 110.601562 22.597656 112.199219 21.320312 C 112.492188 21.082031 112.816406 20.878906 113.117188 20.648438 C 113.335938 20.480469 113.507812 20.503906 113.71875 20.6875 C 115.125 21.9375 116.59375 23.121094 117.953125 24.425781 C 124.410156 30.621094 129.386719 37.84375 132.863281 46.082031 C 134.34375 49.585938 135.480469 53.199219 136.316406 56.90625 C 136.335938 57 136.363281 57.09375 136.390625 57.21875 Z M 136.390625 57.21875 "/>
<path style=" stroke:none;fill-rule:nonzero;fill:rgb(2.352941%,53.333336%,9.803922%);fill-opacity:1;" d="M 28.863281 23.914062 C 29.9375 22.953125 30.996094 22.011719 32.042969 21.054688 C 32.261719 20.859375 32.414062 20.875 32.644531 21.027344 C 33.832031 21.8125 34.839844 22.792969 35.695312 23.910156 C 36.929688 25.515625 38.09375 27.175781 39.285156 28.8125 C 39.351562 28.898438 39.390625 29 39.457031 29.117188 C 38.980469 29.394531 38.515625 29.65625 38.058594 29.933594 C 33.949219 32.421875 30.496094 35.636719 27.503906 39.367188 C 24.203125 43.484375 21.613281 48.011719 19.691406 52.921875 C 18.03125 57.167969 16.90625 61.550781 16.390625 66.082031 C 16.261719 67.21875 16.1875 68.363281 16.089844 69.503906 C 16.078125 69.636719 16.066406 69.765625 16.050781 69.945312 C 13.71875 69.945312 11.421875 69.945312 9.058594 69.945312 C 9.191406 61.300781 10.945312 52.976562 14.347656 44.996094 C 17.757812 37.007812 22.5625 29.964844 28.863281 23.914062 Z M 28.863281 23.914062 "/>
<path style=" stroke:none;fill-rule:nonzero;fill:rgb(2.352941%,53.333336%,9.803922%);fill-opacity:1;" d="M 28.328125 117.828125 C 15.777344 105.203125 9.589844 89.941406 9.023438 72.234375 C 11.390625 72.234375 13.675781 72.234375 16.050781 72.234375 C 16.050781 72.832031 16.03125 73.449219 16.054688 74.066406 C 16.378906 82.335938 18.671875 90 23.128906 97.007812 C 26.082031 101.65625 29.722656 105.699219 34.035156 109.128906 C 35.699219 110.449219 37.46875 111.636719 39.1875 112.886719 C 39.257812 112.9375 39.324219 112.988281 39.429688 113.066406 C 38.96875 113.765625 38.53125 114.464844 38.054688 115.144531 C 36.820312 116.90625 35.539062 118.632812 33.964844 120.117188 C 33.542969 120.515625 33.050781 120.84375 32.597656 121.21875 C 32.375 121.402344 32.210938 121.371094 32.003906 121.179688 C 30.789062 120.0625 29.566406 118.957031 28.328125 117.828125 Z M 28.328125 117.828125 "/>
<path style=" stroke:none;fill-rule:nonzero;fill:rgb(1.960784%,53.333336%,9.803922%);fill-opacity:1;" d="M 20.027344 59.425781 C 20.011719 59.460938 19.980469 59.484375 19.953125 59.507812 C 19.953125 59.476562 19.953125 59.441406 19.972656 59.398438 C 19.988281 59.390625 20.015625 59.414062 20.027344 59.425781 Z M 20.027344 59.425781 "/>
<path style=" stroke:none;fill-rule:nonzero;fill:rgb(2.352941%,53.333336%,9.803922%);fill-opacity:1;" d="M 124.605469 84.71875 C 124.625 84.683594 124.652344 84.65625 124.683594 84.632812 C 124.679688 84.664062 124.679688 84.699219 124.660156 84.742188 C 124.640625 84.75 124.617188 84.730469 124.605469 84.71875 Z M 124.605469 84.71875 "/>
<path style=" stroke:none;fill-rule:nonzero;fill:rgb(1.960784%,53.333336%,9.803922%);fill-opacity:1;" d="M 124.921875 59.476562 C 124.941406 59.488281 124.953125 59.511719 124.964844 59.53125 C 124.945312 59.535156 124.929688 59.535156 124.902344 59.523438 C 124.890625 59.507812 124.910156 59.488281 124.921875 59.476562 Z M 124.921875 59.476562 "/>
<path style=" stroke:none;fill-rule:nonzero;fill:rgb(96.078432%,98.039216%,96.470588%);fill-opacity:1;" d="M 108.324219 63.148438 C 110.550781 62.332031 112.53125 62.582031 114.257812 64.382812 C 114.257812 63.898438 114.257812 63.46875 114.257812 63.019531 C 114.984375 63.019531 115.664062 63.019531 116.371094 63.019531 C 116.378906 63.125 116.394531 63.230469 116.394531 63.335938 C 116.394531 67.070312 116.40625 70.808594 116.382812 74.542969 C 116.375 75.378906 116.292969 76.222656 116.171875 77.054688 C 115.902344 78.867188 114.828125 80.074219 113.125 80.664062 C 111.183594 81.339844 109.222656 81.316406 107.339844 80.394531 C 105.980469 79.726562 105.210938 78.273438 105.425781 76.8125 C 106.097656 76.898438 106.773438 76.984375 107.441406 77.085938 C 107.519531 77.097656 107.625 77.226562 107.636719 77.316406 C 107.835938 78.550781 108.714844 79.023438 109.8125 79.125 C 110.507812 79.1875 111.238281 79.136719 111.921875 78.988281 C 113.078125 78.730469 113.738281 77.898438 113.933594 76.765625 C 114.066406 76.007812 114.042969 75.222656 114.089844 74.433594 C 113.566406 74.792969 113.125 75.167969 112.625 75.425781 C 110.554688 76.484375 107.769531 75.804688 106.390625 73.9375 C 105.265625 72.414062 104.863281 70.695312 104.976562 68.832031 C 105.058594 67.457031 105.394531 66.160156 106.160156 64.996094 C 106.695312 64.175781 107.402344 63.5625 108.324219 63.148438 M 107.3125 69.453125 C 107.429688 70.207031 107.46875 70.988281 107.683594 71.714844 C 108.09375 73.105469 109.28125 73.953125 110.683594 73.984375 C 112.125 74.015625 113.335938 73.230469 113.832031 71.855469 C 114.410156 70.242188 114.417969 68.59375 113.886719 66.972656 C 113.429688 65.566406 112.222656 64.675781 110.832031 64.617188 C 109.527344 64.566406 108.332031 65.359375 107.746094 66.699219 C 107.375 67.554688 107.3125 68.46875 107.3125 69.453125 Z M 107.3125 69.453125 "/>
<path style=" stroke:none;fill-rule:nonzero;fill:rgb(96.862745%,98.431373%,96.862745%);fill-opacity:1;" d="M 44.828125 58.859375 C 44.910156 58.769531 44.996094 58.683594 45.117188 58.574219 C 45.167969 58.535156 45.179688 58.515625 45.191406 58.492188 C 45.398438 58.1875 45.683594 58.113281 46.042969 58.125 C 46.828125 58.148438 47.613281 58.128906 48.398438 58.132812 C 48.527344 58.132812 48.65625 58.144531 48.867188 58.15625 C 46.339844 60.589844 43.871094 62.964844 41.394531 65.351562 C 43.984375 68.855469 46.558594 72.335938 49.191406 75.898438 C 48.773438 75.898438 48.453125 75.898438 48.128906 75.898438 C 47.515625 75.898438 46.902344 75.886719 46.292969 75.90625 C 46.042969 75.910156 45.890625 75.832031 45.75 75.628906 C 43.789062 72.839844 41.824219 70.0625 39.859375 67.28125 C 39.800781 67.199219 39.742188 67.121094 39.65625 67.007812 C 38.730469 67.90625 37.8125 68.796875 36.863281 69.707031 C 36.8125 69.742188 36.8125 69.757812 36.824219 69.773438 C 36.824219 69.773438 36.832031 69.785156 36.816406 69.796875 C 36.796875 69.816406 36.785156 69.828125 36.789062 69.835938 C 36.796875 69.851562 36.808594 69.863281 36.820312 69.878906 C 36.820312 71.804688 36.824219 73.730469 36.800781 75.695312 C 36.722656 75.785156 36.667969 75.839844 36.617188 75.890625 C 36.222656 75.894531 35.832031 75.894531 35.390625 75.878906 C 35.304688 75.871094 35.261719 75.878906 35.21875 75.890625 C 35.140625 75.890625 35.0625 75.894531 34.941406 75.878906 C 34.835938 75.867188 34.769531 75.878906 34.707031 75.886719 C 34.671875 75.890625 34.640625 75.894531 34.570312 75.875 C 34.480469 75.785156 34.425781 75.71875 34.367188 75.652344 C 34.367188 71.515625 34.363281 67.382812 34.359375 63.246094 C 34.359375 61.746094 34.363281 60.246094 34.386719 58.699219 C 34.460938 58.484375 34.511719 58.3125 34.558594 58.140625 C 34.636719 58.140625 34.714844 58.136719 34.839844 58.152344 C 35 58.164062 35.109375 58.152344 35.222656 58.140625 C 35.277344 58.136719 35.332031 58.136719 35.4375 58.15625 C 35.691406 58.1875 35.894531 58.191406 36.09375 58.210938 C 36.335938 58.234375 36.574219 58.277344 36.816406 58.308594 C 36.820312 61.070312 36.824219 63.828125 36.808594 66.632812 C 36.816406 66.710938 36.835938 66.746094 36.855469 66.78125 C 36.878906 66.757812 36.902344 66.734375 36.925781 66.710938 C 37.03125 66.605469 37.136719 66.496094 37.285156 66.371094 C 37.351562 66.320312 37.371094 66.285156 37.394531 66.25 C 37.394531 66.25 37.410156 66.226562 37.441406 66.21875 C 37.507812 66.160156 37.542969 66.117188 37.578125 66.070312 C 37.578125 66.070312 37.574219 66.066406 37.597656 66.0625 C 37.65625 66.015625 37.691406 65.972656 37.726562 65.925781 C 37.773438 65.871094 37.820312 65.816406 37.910156 65.75 C 37.972656 65.699219 37.996094 65.664062 38.019531 65.628906 C 38.019531 65.628906 38.015625 65.625 38.039062 65.625 C 38.097656 65.578125 38.132812 65.53125 38.164062 65.484375 C 38.164062 65.484375 38.179688 65.464844 38.210938 65.453125 C 38.257812 65.421875 38.269531 65.398438 38.28125 65.378906 C 38.671875 64.984375 39.0625 64.589844 39.496094 64.175781 C 39.570312 64.113281 39.601562 64.066406 39.636719 64.019531 C 39.675781 63.980469 39.710938 63.9375 39.789062 63.878906 C 39.851562 63.832031 39.875 63.796875 39.898438 63.761719 C 39.96875 63.683594 40.042969 63.605469 40.160156 63.515625 C 40.246094 63.445312 40.289062 63.386719 40.335938 63.328125 C 40.335938 63.328125 40.335938 63.320312 40.359375 63.320312 C 40.402344 63.304688 40.410156 63.285156 40.398438 63.261719 C 40.398438 63.261719 40.402344 63.246094 40.429688 63.242188 C 40.464844 63.21875 40.472656 63.199219 40.484375 63.175781 C 40.496094 63.15625 40.511719 63.140625 40.5625 63.113281 C 40.609375 63.078125 40.621094 63.054688 40.636719 63.035156 C 40.671875 62.992188 40.707031 62.953125 40.78125 62.898438 C 40.824219 62.863281 40.835938 62.839844 40.84375 62.820312 C 40.84375 62.820312 40.847656 62.808594 40.871094 62.804688 C 40.917969 62.792969 40.925781 62.773438 40.917969 62.746094 C 40.917969 62.746094 40.921875 62.738281 40.945312 62.734375 C 40.988281 62.71875 40.996094 62.699219 40.988281 62.675781 C 40.988281 62.675781 40.988281 62.664062 41.015625 62.660156 C 41.066406 62.625 41.085938 62.589844 41.105469 62.558594 C 41.328125 62.335938 41.546875 62.113281 41.808594 61.871094 C 41.859375 61.832031 41.871094 61.808594 41.882812 61.789062 C 42.214844 61.457031 42.542969 61.125 42.914062 60.777344 C 42.964844 60.734375 42.976562 60.714844 42.988281 60.691406 C 42.988281 60.691406 43.003906 60.667969 43.035156 60.65625 C 43.089844 60.613281 43.109375 60.582031 43.132812 60.546875 C 43.132812 60.546875 43.132812 60.539062 43.152344 60.539062 C 43.195312 60.523438 43.203125 60.503906 43.199219 60.476562 C 43.199219 60.476562 43.203125 60.464844 43.222656 60.464844 C 43.269531 60.449219 43.277344 60.429688 43.269531 60.402344 C 43.269531 60.402344 43.273438 60.394531 43.296875 60.390625 C 43.332031 60.363281 43.34375 60.34375 43.351562 60.324219 C 43.390625 60.28125 43.429688 60.242188 43.503906 60.1875 C 43.554688 60.152344 43.566406 60.128906 43.582031 60.109375 C 43.640625 60.042969 43.699219 59.976562 43.792969 59.894531 C 43.847656 59.855469 43.859375 59.835938 43.875 59.8125 C 43.898438 59.78125 43.921875 59.75 43.984375 59.707031 C 44.042969 59.660156 44.0625 59.628906 44.082031 59.59375 C 44.082031 59.59375 44.085938 59.585938 44.109375 59.582031 C 44.144531 59.558594 44.152344 59.539062 44.164062 59.519531 C 44.273438 59.40625 44.382812 59.292969 44.53125 59.164062 C 44.582031 59.121094 44.59375 59.101562 44.605469 59.078125 C 44.640625 59.039062 44.679688 59 44.753906 58.945312 C 44.804688 58.90625 44.816406 58.882812 44.828125 58.859375 Z M 44.828125 58.859375 "/>
<path style=" stroke:none;fill-rule:nonzero;fill:rgb(96.470588%,98.431373%,96.470588%);fill-opacity:1;" d="M 71.03125 75.898438 C 70.675781 75.898438 70.359375 75.898438 70.007812 75.898438 C 70.007812 69.972656 70.007812 64.074219 70.007812 58.15625 C 70.757812 58.15625 71.496094 58.15625 72.273438 58.15625 C 72.273438 60.1875 72.273438 62.191406 72.273438 64.269531 C 72.382812 64.175781 72.4375 64.132812 72.484375 64.085938 C 74.574219 61.792969 78.617188 62.527344 80.105469 65.027344 C 81.289062 67.011719 81.449219 69.148438 81.03125 71.359375 C 80.691406 73.140625 79.792969 74.554688 78.21875 75.503906 C 76.449219 76.566406 74.136719 76.398438 72.707031 75.101562 C 72.519531 74.929688 72.359375 74.734375 72.125 74.488281 C 72.125 74.988281 72.125 75.414062 72.125 75.898438 C 71.742188 75.898438 71.402344 75.898438 71.03125 75.898438 M 72.203125 67.9375 C 72.019531 69.304688 72.007812 70.667969 72.421875 72 C 72.828125 73.300781 73.9375 74.191406 75.195312 74.277344 C 76.488281 74.367188 77.734375 73.65625 78.292969 72.402344 C 79.140625 70.492188 79.125 68.523438 78.386719 66.597656 C 77.960938 65.484375 77.089844 64.761719 75.851562 64.628906 C 74.609375 64.496094 73.675781 65.054688 72.960938 66.027344 C 72.550781 66.578125 72.339844 67.210938 72.203125 67.9375 Z M 72.203125 67.9375 "/>
<path style=" stroke:none;fill-rule:nonzero;fill:rgb(96.078432%,98.039216%,96.470588%);fill-opacity:1;" d="M 93.023438 71.714844 C 93.667969 71.796875 94.285156 71.875 94.9375 71.957031 C 94.488281 73.613281 93.632812 74.921875 92.070312 75.601562 C 89.992188 76.503906 87.890625 76.457031 85.878906 75.363281 C 84.648438 74.695312 83.839844 73.617188 83.445312 72.277344 C 82.828125 70.1875 82.839844 68.101562 83.707031 66.082031 C 84.492188 64.257812 85.921875 63.152344 87.882812 62.816406 C 89.972656 62.460938 91.863281 62.886719 93.359375 64.484375 C 94.476562 65.679688 94.878906 67.160156 94.976562 68.742188 C 95.003906 69.164062 94.980469 69.589844 94.980469 70.0625 C 91.789062 70.0625 88.625 70.0625 85.417969 70.0625 C 85.523438 71.542969 85.910156 72.835938 87.171875 73.675781 C 88.34375 74.453125 89.605469 74.511719 90.871094 73.902344 C 91.636719 73.53125 92.074219 72.851562 92.410156 72.101562 C 92.46875 71.96875 92.523438 71.832031 92.585938 71.683594 C 92.730469 71.695312 92.863281 71.703125 93.023438 71.714844 M 91.691406 65.734375 C 90.476562 64.355469 88.667969 64.4375 87.625 64.910156 C 86.382812 65.476562 85.480469 66.902344 85.574219 68.144531 C 87.902344 68.144531 90.230469 68.144531 92.574219 68.144531 C 92.480469 67.261719 92.292969 66.453125 91.691406 65.734375 Z M 91.691406 65.734375 "/>
<path style=" stroke:none;fill-rule:nonzero;fill:rgb(96.862745%,98.431373%,96.862745%);fill-opacity:1;" d="M 73.234375 93.160156 C 71.804688 93.160156 70.414062 93.160156 68.996094 93.160156 C 68.996094 89.1875 68.996094 85.257812 68.996094 81.273438 C 69.167969 81.273438 69.324219 81.273438 69.480469 81.273438 C 71.230469 81.28125 72.984375 81.253906 74.734375 81.308594 C 75.394531 81.328125 76.09375 81.425781 76.695312 81.675781 C 77.773438 82.125 78.363281 83.015625 78.40625 84.195312 C 78.449219 85.277344 77.980469 86.121094 77.078125 86.730469 C 77.039062 86.757812 77 86.785156 77 86.785156 C 77.429688 87.101562 77.921875 87.363281 78.28125 87.753906 C 79.101562 88.648438 79.171875 89.738281 78.800781 90.839844 C 78.390625 92.054688 77.539062 92.863281 76.242188 93.023438 C 75.261719 93.144531 74.261719 93.121094 73.234375 93.160156 M 73.488281 88.0625 C 72.832031 88.0625 72.175781 88.0625 71.5 88.0625 C 71.5 89.074219 71.5 90.042969 71.5 91.09375 C 72.800781 91.050781 74.082031 91.058594 75.355469 90.957031 C 76.042969 90.898438 76.414062 90.296875 76.40625 89.542969 C 76.398438 88.824219 76.007812 88.300781 75.3125 88.195312 C 74.734375 88.105469 74.144531 88.101562 73.488281 88.0625 M 75.734375 83.839844 C 75.457031 83.492188 75.070312 83.394531 74.65625 83.382812 C 73.875 83.367188 73.09375 83.363281 72.308594 83.351562 C 72.046875 83.351562 71.78125 83.351562 71.511719 83.351562 C 71.511719 84.246094 71.511719 85.085938 71.511719 85.941406 C 71.601562 85.945312 71.660156 85.957031 71.71875 85.953125 C 72.683594 85.945312 73.652344 85.953125 74.617188 85.914062 C 75.78125 85.867188 76.304688 84.917969 75.734375 83.839844 Z M 75.734375 83.839844 "/>
<path style=" stroke:none;fill-rule:nonzero;fill:rgb(96.078432%,98.039216%,96.470588%);fill-opacity:1;" d="M 56.800781 76.148438 C 55.707031 76.253906 54.664062 76.183594 53.65625 75.808594 C 52.289062 75.300781 51.226562 74.414062 50.636719 73.085938 C 49.621094 70.800781 49.59375 68.449219 50.496094 66.140625 C 51.300781 64.078125 52.96875 63.011719 55.136719 62.765625 C 57.371094 62.507812 59.3125 63.109375 60.753906 64.925781 C 61.375 65.710938 61.734375 66.613281 61.898438 67.589844 C 62.148438 69.074219 62.128906 70.5625 61.730469 72.015625 C 61.105469 74.328125 59.496094 75.597656 57.199219 76.082031 C 57.078125 76.109375 56.957031 76.125 56.800781 76.148438 M 59.039062 66.40625 C 58.277344 65.160156 57.175781 64.53125 55.699219 64.636719 C 54.21875 64.738281 53.183594 65.539062 52.675781 66.890625 C 52.042969 68.589844 52.039062 70.351562 52.691406 72.050781 C 53.222656 73.429688 54.292969 74.21875 55.808594 74.28125 C 57.316406 74.347656 58.492188 73.699219 59.097656 72.339844 C 59.960938 70.402344 59.949219 68.410156 59.039062 66.40625 Z M 59.039062 66.40625 "/>
<path style=" stroke:none;fill-rule:nonzero;fill:rgb(96.470588%,98.431373%,96.470588%);fill-opacity:1;" d="M 88.019531 81.4375 C 88.121094 81.371094 88.203125 81.28125 88.28125 81.28125 C 89.332031 81.269531 90.382812 81.273438 91.53125 81.273438 C 90.953125 81.878906 90.441406 82.414062 89.929688 82.945312 C 89.050781 83.847656 88.179688 84.757812 87.289062 85.644531 C 87.066406 85.867188 87.078125 86.015625 87.242188 86.257812 C 88.671875 88.429688 90.089844 90.609375 91.511719 92.785156 C 91.574219 92.886719 91.628906 92.992188 91.730469 93.164062 C 91.523438 93.164062 91.371094 93.164062 91.21875 93.164062 C 90.4375 93.164062 89.652344 93.152344 88.867188 93.167969 C 88.613281 93.175781 88.476562 93.089844 88.351562 92.871094 C 87.425781 91.277344 86.488281 89.691406 85.554688 88.101562 C 85.480469 87.976562 85.402344 87.859375 85.296875 87.691406 C 84.945312 88.042969 84.644531 88.410156 84.277344 88.699219 C 83.59375 89.238281 83.335938 89.886719 83.425781 90.757812 C 83.503906 91.53125 83.441406 92.316406 83.441406 93.128906 C 82.609375 93.128906 81.800781 93.128906 80.960938 93.128906 C 80.960938 89.191406 80.960938 85.253906 80.960938 81.296875 C 81.777344 81.296875 82.582031 81.296875 83.433594 81.296875 C 83.433594 82.964844 83.433594 84.628906 83.433594 86.289062 C 83.460938 86.300781 83.488281 86.308594 83.515625 86.320312 C 85.011719 84.699219 86.507812 83.078125 88.019531 81.4375 Z M 88.019531 81.4375 "/>
<path style=" stroke:none;fill-rule:nonzero;fill:rgb(96.470588%,98.431373%,96.470588%);fill-opacity:1;" d="M 65.492188 81.273438 C 66.292969 81.273438 67.0625 81.273438 67.890625 81.273438 C 67.664062 81.910156 67.460938 82.492188 67.25 83.070312 C 66.148438 86.128906 65.046875 89.1875 63.941406 92.25 C 63.613281 93.164062 63.605469 93.160156 62.613281 93.160156 C 62.171875 93.160156 61.730469 93.148438 61.292969 93.167969 C 61.050781 93.179688 60.953125 93.082031 60.878906 92.871094 C 60.128906 90.769531 59.371094 88.671875 58.617188 86.574219 C 58.015625 84.898438 57.421875 83.222656 56.824219 81.550781 C 56.800781 81.480469 56.78125 81.414062 56.742188 81.273438 C 57.171875 81.273438 57.566406 81.273438 57.964844 81.273438 C 58.296875 81.273438 58.632812 81.308594 58.957031 81.265625 C 59.371094 81.203125 59.496094 81.417969 59.609375 81.753906 C 60.476562 84.316406 61.355469 86.875 62.230469 89.433594 C 62.265625 89.535156 62.3125 89.632812 62.394531 89.816406 C 62.671875 88.984375 62.925781 88.230469 63.175781 87.476562 C 63.828125 85.511719 64.484375 83.542969 65.132812 81.578125 C 65.1875 81.414062 65.222656 81.238281 65.492188 81.273438 Z M 65.492188 81.273438 "/>
<path style=" stroke:none;fill-rule:nonzero;fill:rgb(96.470588%,98.431373%,96.470588%);fill-opacity:1;" d="M 66.726562 64.671875 C 66.726562 68.425781 66.726562 72.144531 66.726562 75.898438 C 66.003906 75.898438 65.316406 75.902344 64.636719 75.890625 C 64.566406 75.886719 64.476562 75.777344 64.441406 75.699219 C 64.40625 75.628906 64.433594 75.53125 64.433594 75.445312 C 64.429688 69.796875 64.429688 64.148438 64.429688 58.503906 C 64.429688 58.394531 64.441406 58.285156 64.449219 58.15625 C 65.195312 58.15625 65.925781 58.15625 66.726562 58.15625 C 66.726562 60.308594 66.726562 62.472656 66.726562 64.671875 Z M 66.726562 64.671875 "/>
<path style=" stroke:none;fill-rule:nonzero;fill:rgb(96.078432%,98.039216%,96.470588%);fill-opacity:1;" d="M 100.039062 67.140625 C 99.957031 67.898438 99.835938 68.621094 99.824219 69.347656 C 99.796875 71.386719 99.816406 73.421875 99.816406 75.460938 C 99.816406 75.589844 99.816406 75.722656 99.816406 75.875 C 99.035156 75.875 98.296875 75.875 97.539062 75.875 C 97.539062 71.578125 97.539062 67.304688 97.539062 63.011719 C 98.21875 63.011719 98.875 63.011719 99.578125 63.011719 C 99.578125 63.527344 99.578125 64.046875 99.578125 64.5625 C 99.605469 64.578125 99.636719 64.59375 99.664062 64.609375 C 100.214844 63.800781 100.734375 62.953125 101.796875 62.761719 C 102.820312 62.578125 103.726562 62.898438 104.625 63.433594 C 104.367188 64.132812 104.113281 64.820312 103.855469 65.507812 C 103.457031 65.367188 103.101562 65.195312 102.726562 65.121094 C 101.363281 64.851562 100.363281 65.609375 100.039062 67.140625 Z M 100.039062 67.140625 "/>
<path style=" stroke:none;fill-rule:nonzero;fill:rgb(67.058825%,86.274511%,68.627453%);fill-opacity:1;" d="M 36.824219 58.28125 C 36.574219 58.277344 36.335938 58.234375 36.09375 58.210938 C 35.894531 58.191406 35.691406 58.1875 35.464844 58.160156 C 35.851562 58.128906 36.261719 58.113281 36.671875 58.113281 C 36.726562 58.113281 36.78125 58.203125 36.824219 58.28125 Z M 36.824219 58.28125 "/>
<path style=" stroke:none;fill-rule:nonzero;fill:rgb(67.058825%,86.274511%,68.627453%);fill-opacity:1;" d="M 34.539062 58.128906 C 34.511719 58.3125 34.460938 58.484375 34.390625 58.664062 C 34.382812 58.480469 34.179688 58.230469 34.539062 58.128906 Z M 34.539062 58.128906 "/>
<path style=" stroke:none;fill-rule:nonzero;fill:rgb(67.058825%,86.274511%,68.627453%);fill-opacity:1;" d="M 35.199219 58.128906 C 35.109375 58.152344 35 58.164062 34.871094 58.15625 C 34.960938 58.132812 35.070312 58.125 35.199219 58.128906 Z M 35.199219 58.128906 "/>
<path style=" stroke:none;fill-rule:nonzero;fill:rgb(67.058825%,86.274511%,68.627453%);fill-opacity:1;" d="M 34.355469 75.675781 C 34.425781 75.71875 34.480469 75.785156 34.546875 75.871094 C 34.371094 75.957031 34.328125 75.863281 34.355469 75.675781 Z M 34.355469 75.675781 "/>
<path style=" stroke:none;fill-rule:nonzero;fill:rgb(67.058825%,86.274511%,68.627453%);fill-opacity:1;" d="M 36.636719 75.902344 C 36.667969 75.839844 36.722656 75.785156 36.796875 75.730469 C 36.765625 75.789062 36.710938 75.851562 36.636719 75.902344 Z M 36.636719 75.902344 "/>
<path style=" stroke:none;fill-rule:nonzero;fill:rgb(67.058825%,86.274511%,68.627453%);fill-opacity:1;" d="M 34.722656 75.898438 C 34.769531 75.878906 34.835938 75.867188 34.914062 75.875 C 34.863281 75.898438 34.800781 75.902344 34.722656 75.898438 Z M 34.722656 75.898438 "/>
<path style=" stroke:none;fill-rule:nonzero;fill:rgb(67.058825%,86.274511%,68.627453%);fill-opacity:1;" d="M 40.3125 63.335938 C 40.289062 63.386719 40.246094 63.445312 40.179688 63.503906 C 40.199219 63.449219 40.246094 63.394531 40.3125 63.335938 Z M 40.3125 63.335938 "/>
<path style=" stroke:none;fill-rule:nonzero;fill:rgb(67.058825%,86.274511%,68.627453%);fill-opacity:1;" d="M 35.230469 75.902344 C 35.261719 75.878906 35.304688 75.871094 35.359375 75.875 C 35.328125 75.898438 35.285156 75.90625 35.230469 75.902344 Z M 35.230469 75.902344 "/>
<path style=" stroke:none;fill-rule:nonzero;fill:rgb(67.058825%,86.274511%,68.627453%);fill-opacity:1;" d="M 37.703125 65.929688 C 37.691406 65.972656 37.65625 66.015625 37.601562 66.066406 C 37.613281 66.023438 37.648438 65.980469 37.703125 65.929688 Z M 37.703125 65.929688 "/>
<path style=" stroke:none;fill-rule:nonzero;fill:rgb(67.058825%,86.274511%,68.627453%);fill-opacity:1;" d="M 37.554688 66.074219 C 37.542969 66.117188 37.507812 66.160156 37.453125 66.210938 C 37.464844 66.167969 37.5 66.125 37.554688 66.074219 Z M 37.554688 66.074219 "/>
<path style=" stroke:none;fill-rule:nonzero;fill:rgb(67.058825%,86.274511%,68.627453%);fill-opacity:1;" d="M 36.894531 66.703125 C 36.902344 66.734375 36.878906 66.757812 36.855469 66.78125 C 36.835938 66.746094 36.816406 66.710938 36.808594 66.667969 C 36.835938 66.667969 36.851562 66.679688 36.894531 66.703125 Z M 36.894531 66.703125 "/>
<path style=" stroke:none;fill-rule:nonzero;fill:rgb(67.058825%,86.274511%,68.627453%);fill-opacity:1;" d="M 39.613281 64.023438 C 39.601562 64.066406 39.570312 64.113281 39.515625 64.160156 C 39.527344 64.117188 39.558594 64.074219 39.613281 64.023438 Z M 39.613281 64.023438 "/>
<path style=" stroke:none;fill-rule:nonzero;fill:rgb(67.058825%,86.274511%,68.627453%);fill-opacity:1;" d="M 38.144531 65.488281 C 38.132812 65.53125 38.097656 65.578125 38.042969 65.625 C 38.054688 65.582031 38.085938 65.539062 38.144531 65.488281 Z M 38.144531 65.488281 "/>
<path style=" stroke:none;fill-rule:nonzero;fill:rgb(67.058825%,86.274511%,68.627453%);fill-opacity:1;" d="M 39.875 63.765625 C 39.875 63.796875 39.851562 63.832031 39.808594 63.867188 C 39.808594 63.835938 39.832031 63.804688 39.875 63.765625 Z M 39.875 63.765625 "/>
<path style=" stroke:none;fill-rule:nonzero;fill:rgb(67.058825%,86.274511%,68.627453%);fill-opacity:1;" d="M 44.0625 59.597656 C 44.0625 59.628906 44.042969 59.660156 44 59.695312 C 44 59.664062 44.023438 59.632812 44.0625 59.597656 Z M 44.0625 59.597656 "/>
<path style=" stroke:none;fill-rule:nonzero;fill:rgb(67.058825%,86.274511%,68.627453%);fill-opacity:1;" d="M 43.113281 60.550781 C 43.109375 60.582031 43.089844 60.613281 43.046875 60.648438 C 43.046875 60.617188 43.070312 60.585938 43.113281 60.550781 Z M 43.113281 60.550781 "/>
<path style=" stroke:none;fill-rule:nonzero;fill:rgb(67.058825%,86.274511%,68.627453%);fill-opacity:1;" d="M 37.375 66.253906 C 37.371094 66.285156 37.351562 66.320312 37.304688 66.359375 C 37.308594 66.328125 37.332031 66.292969 37.375 66.253906 Z M 37.375 66.253906 "/>
<path style=" stroke:none;fill-rule:nonzero;fill:rgb(67.058825%,86.274511%,68.627453%);fill-opacity:1;" d="M 37.996094 65.632812 C 37.996094 65.664062 37.972656 65.699219 37.925781 65.738281 C 37.929688 65.707031 37.953125 65.671875 37.996094 65.632812 Z M 37.996094 65.632812 "/>
<path style=" stroke:none;fill-rule:nonzero;fill:rgb(67.058825%,86.274511%,68.627453%);fill-opacity:1;" d="M 41.085938 62.5625 C 41.085938 62.589844 41.066406 62.625 41.023438 62.65625 C 41.023438 62.628906 41.046875 62.59375 41.085938 62.5625 Z M 41.085938 62.5625 "/>
<path style=" stroke:none;fill-rule:nonzero;fill:rgb(67.058825%,86.274511%,68.627453%);fill-opacity:1;" d="M 36.839844 69.769531 C 36.8125 69.757812 36.8125 69.742188 36.84375 69.722656 C 36.867188 69.738281 36.863281 69.753906 36.839844 69.769531 Z M 36.839844 69.769531 "/>
<path style=" stroke:none;fill-rule:nonzero;fill:rgb(67.058825%,86.274511%,68.627453%);fill-opacity:1;" d="M 45.171875 58.496094 C 45.179688 58.515625 45.167969 58.535156 45.136719 58.5625 C 45.128906 58.542969 45.140625 58.519531 45.171875 58.496094 Z M 45.171875 58.496094 "/>
<path style=" stroke:none;fill-rule:nonzero;fill:rgb(67.058825%,86.274511%,68.627453%);fill-opacity:1;" d="M 44.808594 58.863281 C 44.816406 58.882812 44.804688 58.90625 44.773438 58.933594 C 44.765625 58.917969 44.777344 58.894531 44.808594 58.863281 Z M 44.808594 58.863281 "/>
<path style=" stroke:none;fill-rule:nonzero;fill:rgb(67.058825%,86.274511%,68.627453%);fill-opacity:1;" d="M 40.617188 63.039062 C 40.621094 63.054688 40.609375 63.078125 40.578125 63.105469 C 40.570312 63.085938 40.582031 63.0625 40.617188 63.039062 Z M 40.617188 63.039062 "/>
<path style=" stroke:none;fill-rule:nonzero;fill:rgb(67.058825%,86.274511%,68.627453%);fill-opacity:1;" d="M 42.96875 60.695312 C 42.976562 60.714844 42.964844 60.734375 42.933594 60.761719 C 42.925781 60.746094 42.9375 60.722656 42.96875 60.695312 Z M 42.96875 60.695312 "/>
<path style=" stroke:none;fill-rule:nonzero;fill:rgb(67.058825%,86.274511%,68.627453%);fill-opacity:1;" d="M 41.863281 61.792969 C 41.871094 61.808594 41.859375 61.832031 41.828125 61.859375 C 41.820312 61.84375 41.832031 61.820312 41.863281 61.792969 Z M 41.863281 61.792969 "/>
<path style=" stroke:none;fill-rule:nonzero;fill:rgb(67.058825%,86.274511%,68.627453%);fill-opacity:1;" d="M 40.972656 62.675781 C 40.996094 62.699219 40.988281 62.71875 40.949219 62.730469 C 40.925781 62.710938 40.933594 62.691406 40.972656 62.675781 Z M 40.972656 62.675781 "/>
<path style=" stroke:none;fill-rule:nonzero;fill:rgb(67.058825%,86.274511%,68.627453%);fill-opacity:1;" d="M 43.179688 60.480469 C 43.203125 60.503906 43.195312 60.523438 43.15625 60.535156 C 43.132812 60.511719 43.144531 60.496094 43.179688 60.480469 Z M 43.179688 60.480469 "/>
<path style=" stroke:none;fill-rule:nonzero;fill:rgb(67.058825%,86.274511%,68.627453%);fill-opacity:1;" d="M 43.253906 60.40625 C 43.277344 60.429688 43.269531 60.449219 43.230469 60.460938 C 43.207031 60.4375 43.21875 60.417969 43.253906 60.40625 Z M 43.253906 60.40625 "/>
<path style=" stroke:none;fill-rule:nonzero;fill:rgb(67.058825%,86.274511%,68.627453%);fill-opacity:1;" d="M 40.902344 62.75 C 40.925781 62.773438 40.917969 62.792969 40.875 62.804688 C 40.855469 62.777344 40.863281 62.761719 40.902344 62.75 Z M 40.902344 62.75 "/>
<path style=" stroke:none;fill-rule:nonzero;fill:rgb(67.058825%,86.274511%,68.627453%);fill-opacity:1;" d="M 40.824219 62.824219 C 40.835938 62.839844 40.824219 62.863281 40.796875 62.886719 C 40.777344 62.863281 40.785156 62.84375 40.824219 62.824219 Z M 40.824219 62.824219 "/>
<path style=" stroke:none;fill-rule:nonzero;fill:rgb(67.058825%,86.274511%,68.627453%);fill-opacity:1;" d="M 43.335938 60.324219 C 43.34375 60.34375 43.332031 60.363281 43.304688 60.386719 C 43.285156 60.363281 43.296875 60.34375 43.335938 60.324219 Z M 43.335938 60.324219 "/>
<path style=" stroke:none;fill-rule:nonzero;fill:rgb(67.058825%,86.274511%,68.627453%);fill-opacity:1;" d="M 44.585938 59.082031 C 44.59375 59.101562 44.582031 59.121094 44.546875 59.148438 C 44.542969 59.132812 44.554688 59.109375 44.585938 59.082031 Z M 44.585938 59.082031 "/>
<path style=" stroke:none;fill-rule:nonzero;fill:rgb(67.058825%,86.274511%,68.627453%);fill-opacity:1;" d="M 40.464844 63.179688 C 40.472656 63.199219 40.464844 63.21875 40.433594 63.242188 C 40.414062 63.214844 40.425781 63.195312 40.464844 63.179688 Z M 40.464844 63.179688 "/>
<path style=" stroke:none;fill-rule:nonzero;fill:rgb(67.058825%,86.274511%,68.627453%);fill-opacity:1;" d="M 40.382812 63.261719 C 40.410156 63.285156 40.402344 63.304688 40.363281 63.316406 C 40.339844 63.296875 40.347656 63.277344 40.382812 63.261719 Z M 40.382812 63.261719 "/>
<path style=" stroke:none;fill-rule:nonzero;fill:rgb(67.058825%,86.274511%,68.627453%);fill-opacity:1;" d="M 43.5625 60.109375 C 43.566406 60.128906 43.554688 60.152344 43.523438 60.179688 C 43.515625 60.160156 43.527344 60.136719 43.5625 60.109375 Z M 43.5625 60.109375 "/>
<path style=" stroke:none;fill-rule:nonzero;fill:rgb(67.058825%,86.274511%,68.627453%);fill-opacity:1;" d="M 43.855469 59.816406 C 43.859375 59.835938 43.847656 59.855469 43.8125 59.882812 C 43.804688 59.863281 43.820312 59.839844 43.855469 59.816406 Z M 43.855469 59.816406 "/>
<path style=" stroke:none;fill-rule:nonzero;fill:rgb(67.058825%,86.274511%,68.627453%);fill-opacity:1;" d="M 38.261719 65.378906 C 38.269531 65.398438 38.257812 65.421875 38.222656 65.445312 C 38.214844 65.425781 38.230469 65.40625 38.261719 65.378906 Z M 38.261719 65.378906 "/>
<path style=" stroke:none;fill-rule:nonzero;fill:rgb(67.058825%,86.274511%,68.627453%);fill-opacity:1;" d="M 36.828125 69.855469 C 36.808594 69.863281 36.796875 69.851562 36.789062 69.835938 C 36.785156 69.828125 36.796875 69.816406 36.8125 69.800781 C 36.828125 69.808594 36.832031 69.824219 36.828125 69.855469 Z M 36.828125 69.855469 "/>
<path style=" stroke:none;fill-rule:nonzero;fill:rgb(67.058825%,86.274511%,68.627453%);fill-opacity:1;" d="M 44.148438 59.519531 C 44.152344 59.539062 44.144531 59.558594 44.113281 59.582031 C 44.09375 59.554688 44.105469 59.535156 44.148438 59.519531 Z M 44.148438 59.519531 "/>
<path style=" stroke:none;fill-rule:nonzero;fill:rgb(95.686275%,98.039216%,95.686275%);fill-opacity:1;" d="M 85.734375 104.8125 C 86.289062 103.488281 87.457031 102.875 88.972656 103.089844 C 90.160156 103.253906 90.78125 103.761719 91.042969 104.816406 C 90.390625 104.894531 89.746094 104.976562 89.109375 105.054688 C 89.070312 104.988281 89.046875 104.957031 89.039062 104.925781 C 88.945312 104.617188 88.820312 104.347656 88.429688 104.347656 C 88.078125 104.351562 87.839844 104.539062 87.699219 104.953125 C 87.644531 105.125 87.609375 105.308594 87.578125 105.488281 C 87.554688 105.617188 87.550781 105.75 87.542969 105.867188 C 87.929688 105.726562 88.292969 105.53125 88.671875 105.476562 C 89.59375 105.34375 90.347656 105.683594 90.832031 106.480469 C 91.355469 107.332031 91.324219 108.222656 90.839844 109.085938 C 90.582031 109.554688 90.171875 109.847656 89.667969 110.03125 C 88.421875 110.484375 86.835938 110.121094 86.136719 109.210938 C 85.695312 108.636719 85.53125 107.960938 85.476562 107.261719 C 85.417969 106.445312 85.453125 105.628906 85.734375 104.8125 M 89.253906 108.167969 C 89.242188 107.902344 89.269531 107.628906 89.21875 107.371094 C 89.140625 106.980469 88.792969 106.722656 88.433594 106.722656 C 88.054688 106.722656 87.714844 106.957031 87.632812 107.347656 C 87.578125 107.625 87.574219 107.933594 87.628906 108.210938 C 87.710938 108.640625 88.0625 108.902344 88.453125 108.90625 C 88.851562 108.910156 89.09375 108.703125 89.253906 108.167969 Z M 89.253906 108.167969 "/>
<path style=" stroke:none;fill-rule:nonzero;fill:rgb(95.686275%,98.039216%,95.686275%);fill-opacity:1;" d="M 72.613281 107.648438 C 71.3125 108.136719 70.015625 107.527344 69.617188 106.257812 C 69.191406 104.90625 69.921875 103.507812 71.214844 103.179688 C 71.960938 102.992188 72.699219 103.015625 73.429688 103.238281 C 74.230469 103.484375 74.726562 104.074219 74.972656 104.835938 C 75.375 106.078125 75.375 107.339844 74.914062 108.570312 C 74.546875 109.539062 73.773438 110.042969 72.761719 110.164062 C 72.390625 110.210938 72.003906 110.195312 71.628906 110.164062 C 70.613281 110.074219 69.949219 109.503906 69.648438 108.460938 C 70.273438 108.382812 70.886719 108.300781 71.5 108.238281 C 71.558594 108.230469 71.660156 108.335938 71.683594 108.40625 C 71.777344 108.722656 71.953125 108.929688 72.304688 108.917969 C 72.675781 108.910156 72.894531 108.675781 72.992188 108.355469 C 73.089844 108.035156 73.132812 107.699219 73.210938 107.300781 C 72.972656 107.441406 72.804688 107.539062 72.613281 107.648438 M 71.574219 104.746094 C 71.378906 105.164062 71.375 105.59375 71.535156 106.023438 C 71.65625 106.351562 71.910156 106.535156 72.261719 106.539062 C 72.625 106.546875 72.945312 106.378906 73.019531 106.027344 C 73.09375 105.675781 73.121094 105.269531 73.019531 104.933594 C 72.816406 104.269531 72.070312 104.171875 71.574219 104.746094 Z M 71.574219 104.746094 "/>
<path style=" stroke:none;fill-rule:nonzero;fill:rgb(95.686275%,98.039216%,95.686275%);fill-opacity:1;" d="M 91.625 107.21875 C 92.746094 105.859375 93.859375 104.53125 94.980469 103.207031 C 95.042969 103.132812 95.160156 103.0625 95.253906 103.0625 C 95.765625 103.046875 96.277344 103.054688 96.820312 103.054688 C 96.820312 104.449219 96.820312 105.8125 96.820312 107.210938 C 97.113281 107.226562 97.375 107.238281 97.664062 107.25 C 97.664062 107.761719 97.664062 108.269531 97.664062 108.816406 C 97.398438 108.816406 97.136719 108.816406 96.832031 108.816406 C 96.832031 109.253906 96.832031 109.652344 96.832031 110.070312 C 96.234375 110.070312 95.679688 110.070312 95.078125 110.070312 C 95.078125 109.671875 95.078125 109.273438 95.078125 108.839844 C 93.917969 108.839844 92.796875 108.839844 91.617188 108.839844 C 91.617188 108.285156 91.617188 107.765625 91.625 107.21875 M 93.828125 106.761719 C 93.71875 106.898438 93.609375 107.03125 93.464844 107.207031 C 94.039062 107.207031 94.539062 107.207031 95.035156 107.207031 C 95.035156 106.597656 95.035156 106.015625 95.035156 105.355469 C 94.605469 105.855469 94.238281 106.289062 93.828125 106.761719 Z M 93.828125 106.761719 "/>
<path style=" stroke:none;fill-rule:nonzero;fill:rgb(95.686275%,98.039216%,95.686275%);fill-opacity:1;" d="M 55.785156 105.246094 C 55.175781 105.140625 54.601562 105.039062 54.027344 104.933594 C 54.117188 104.144531 54.730469 103.441406 55.511719 103.222656 C 56.320312 102.996094 57.136719 102.996094 57.945312 103.210938 C 58.597656 103.386719 59.089844 103.777344 59.242188 104.46875 C 59.410156 105.222656 59.128906 105.808594 58.457031 106.242188 C 58.628906 106.328125 58.769531 106.390625 58.902344 106.46875 C 59.570312 106.875 59.820312 107.722656 59.53125 108.578125 C 59.234375 109.460938 58.601562 110.007812 57.699219 110.117188 C 57.027344 110.199219 56.324219 110.171875 55.660156 110.066406 C 54.769531 109.921875 54.0625 109.109375 53.914062 108.1875 C 54.5625 108.101562 55.207031 108.015625 55.84375 107.929688 C 56.261719 108.855469 56.546875 109.070312 57.074219 108.886719 C 57.484375 108.746094 57.707031 108.214844 57.582031 107.683594 C 57.445312 107.117188 57.113281 106.988281 56.097656 107.140625 C 56.132812 106.664062 56.167969 106.199219 56.203125 105.722656 C 56.382812 105.710938 56.53125 105.71875 56.671875 105.695312 C 57.046875 105.636719 57.3125 105.320312 57.300781 104.953125 C 57.292969 104.632812 57.148438 104.421875 56.8125 104.371094 C 56.402344 104.308594 56.125 104.476562 55.984375 104.863281 C 55.9375 104.996094 55.871094 105.121094 55.785156 105.246094 Z M 55.785156 105.246094 "/>
<path style=" stroke:none;fill-rule:nonzero;fill:rgb(96.862745%,98.431373%,96.862745%);fill-opacity:1;" d="M 49.140625 104.402344 C 49.519531 104.023438 49.863281 103.652344 50.226562 103.300781 C 50.332031 103.195312 50.480469 103.074219 50.617188 103.066406 C 51.066406 103.039062 51.515625 103.054688 51.984375 103.054688 C 51.984375 105.410156 51.984375 107.722656 51.984375 110.0625 C 51.328125 110.0625 50.675781 110.0625 49.972656 110.0625 C 49.972656 108.605469 49.972656 107.152344 49.972656 105.710938 C 49.316406 106.015625 48.703125 106.300781 47.988281 106.636719 C 47.988281 106.023438 47.980469 105.523438 47.996094 105.019531 C 48 104.953125 48.128906 104.867188 48.21875 104.824219 C 48.515625 104.679688 48.816406 104.550781 49.140625 104.402344 Z M 49.140625 104.402344 "/>
<path style=" stroke:none;fill-rule:nonzero;fill:rgb(95.686275%,98.039216%,95.686275%);fill-opacity:1;" d="M 62.820312 110.121094 C 62.828125 109.984375 62.84375 109.855469 62.894531 109.738281 C 63.714844 107.929688 64.539062 106.121094 65.351562 104.308594 C 65.472656 104.035156 65.605469 103.871094 65.9375 103.914062 C 66.199219 103.949219 66.46875 103.921875 66.789062 103.921875 C 66.429688 104.710938 66.097656 105.453125 65.757812 106.191406 C 65.207031 107.398438 64.644531 108.605469 64.105469 109.820312 C 63.992188 110.074219 63.851562 110.171875 63.578125 110.140625 C 63.335938 110.117188 63.089844 110.132812 62.820312 110.121094 Z M 62.820312 110.121094 "/>
<path style=" stroke:none;fill-rule:nonzero;fill:rgb(95.686275%,98.039216%,95.686275%);fill-opacity:1;" d="M 81.78125 108.167969 C 81.710938 108.246094 81.640625 108.328125 81.566406 108.328125 C 80.699219 108.335938 79.835938 108.332031 78.9375 108.332031 C 78.9375 107.8125 78.9375 107.3125 78.9375 106.789062 C 79.878906 106.789062 80.8125 106.789062 81.78125 106.789062 C 81.78125 107.242188 81.78125 107.6875 81.78125 108.167969 Z M 81.78125 108.167969 "/>
<path style=" stroke:none;fill-rule:nonzero;fill:rgb(2.745098%,53.333336%,10.196079%);fill-opacity:1;" d="M 107.308594 69.417969 C 107.3125 68.46875 107.375 67.554688 107.746094 66.699219 C 108.332031 65.359375 109.527344 64.566406 110.832031 64.617188 C 112.222656 64.675781 113.429688 65.566406 113.886719 66.972656 C 114.417969 68.59375 114.410156 70.242188 113.832031 71.855469 C 113.335938 73.230469 112.125 74.015625 110.683594 73.984375 C 109.28125 73.953125 108.09375 73.105469 107.683594 71.714844 C 107.46875 70.988281 107.429688 70.207031 107.308594 69.417969 Z M 107.308594 69.417969 "/>
<path style=" stroke:none;fill-rule:nonzero;fill:rgb(2.745098%,53.333336%,10.196079%);fill-opacity:1;" d="M 72.207031 67.90625 C 72.339844 67.210938 72.550781 66.578125 72.960938 66.027344 C 73.675781 65.054688 74.609375 64.496094 75.851562 64.628906 C 77.089844 64.761719 77.960938 65.484375 78.386719 66.597656 C 79.125 68.523438 79.140625 70.492188 78.292969 72.402344 C 77.734375 73.65625 76.488281 74.367188 75.195312 74.277344 C 73.9375 74.191406 72.828125 73.300781 72.421875 72 C 72.007812 70.667969 72.019531 69.304688 72.207031 67.90625 Z M 72.207031 67.90625 "/>
<path style=" stroke:none;fill-rule:nonzero;fill:rgb(3.921569%,53.333336%,11.372549%);fill-opacity:1;" d="M 91.710938 65.757812 C 92.292969 66.453125 92.480469 67.261719 92.574219 68.144531 C 90.230469 68.144531 87.902344 68.144531 85.574219 68.144531 C 85.480469 66.902344 86.382812 65.476562 87.625 64.910156 C 88.667969 64.4375 90.476562 64.355469 91.710938 65.757812 Z M 91.710938 65.757812 "/>
<path style=" stroke:none;fill-rule:nonzero;fill:rgb(3.921569%,53.333336%,11.372549%);fill-opacity:1;" d="M 73.523438 88.0625 C 74.144531 88.101562 74.734375 88.105469 75.3125 88.195312 C 76.007812 88.300781 76.398438 88.824219 76.40625 89.542969 C 76.414062 90.296875 76.042969 90.898438 75.355469 90.957031 C 74.082031 91.058594 72.800781 91.050781 71.5 91.09375 C 71.5 90.042969 71.5 89.074219 71.5 88.0625 C 72.175781 88.0625 72.832031 88.0625 73.523438 88.0625 Z M 73.523438 88.0625 "/>
<path style=" stroke:none;fill-rule:nonzero;fill:rgb(3.921569%,53.333336%,11.372549%);fill-opacity:1;" d="M 75.75 83.859375 C 76.304688 84.917969 75.78125 85.867188 74.617188 85.914062 C 73.652344 85.953125 72.683594 85.945312 71.71875 85.953125 C 71.660156 85.957031 71.601562 85.945312 71.511719 85.941406 C 71.511719 85.085938 71.511719 84.246094 71.511719 83.351562 C 71.78125 83.351562 72.046875 83.351562 72.308594 83.351562 C 73.09375 83.363281 73.875 83.367188 74.65625 83.382812 C 75.070312 83.394531 75.457031 83.492188 75.75 83.859375 Z M 75.75 83.859375 "/>
<path style=" stroke:none;fill-rule:nonzero;fill:rgb(2.745098%,53.333336%,10.196079%);fill-opacity:1;" d="M 59.050781 66.429688 C 59.949219 68.410156 59.960938 70.402344 59.097656 72.339844 C 58.492188 73.699219 57.316406 74.347656 55.808594 74.28125 C 54.292969 74.21875 53.222656 73.429688 52.691406 72.050781 C 52.039062 70.351562 52.042969 68.589844 52.675781 66.890625 C 53.183594 65.539062 54.21875 64.738281 55.699219 64.636719 C 57.175781 64.53125 58.277344 65.160156 59.050781 66.429688 Z M 59.050781 66.429688 "/>
<path style=" stroke:none;fill-rule:nonzero;fill:rgb(3.921569%,53.333336%,11.372549%);fill-opacity:1;" d="M 89.246094 108.199219 C 89.09375 108.703125 88.851562 108.910156 88.453125 108.90625 C 88.0625 108.902344 87.710938 108.640625 87.628906 108.210938 C 87.574219 107.933594 87.578125 107.625 87.632812 107.347656 C 87.714844 106.957031 88.054688 106.722656 88.433594 106.722656 C 88.792969 106.722656 89.140625 106.980469 89.21875 107.371094 C 89.269531 107.628906 89.242188 107.902344 89.246094 108.199219 Z M 89.246094 108.199219 "/>
<path style=" stroke:none;fill-rule:nonzero;fill:rgb(3.921569%,53.333336%,11.372549%);fill-opacity:1;" d="M 71.589844 104.722656 C 72.070312 104.171875 72.816406 104.269531 73.019531 104.933594 C 73.121094 105.269531 73.09375 105.675781 73.019531 106.027344 C 72.945312 106.378906 72.625 106.546875 72.261719 106.539062 C 71.910156 106.535156 71.65625 106.351562 71.535156 106.023438 C 71.375 105.59375 71.378906 105.164062 71.589844 104.722656 Z M 71.589844 104.722656 "/>
<path style=" stroke:none;fill-rule:nonzero;fill:rgb(3.921569%,53.333336%,11.372549%);fill-opacity:1;" d="M 93.847656 106.742188 C 94.238281 106.289062 94.605469 105.855469 95.035156 105.355469 C 95.035156 106.015625 95.035156 106.597656 95.035156 107.207031 C 94.539062 107.207031 94.039062 107.207031 93.464844 107.207031 C 93.609375 107.03125 93.71875 106.898438 93.847656 106.742188 Z M 93.847656 106.742188 "/>
</g>
</svg>
