<?xml version="1.0" encoding="UTF-8"?>
<svg xmlns="http://www.w3.org/2000/svg" xmlns:xlink="http://www.w3.org/1999/xlink" width="100px" height="100px" viewBox="0 0 100 100" version="1.1">
<g id="surface1">
<path style=" stroke:none;fill-rule:nonzero;fill:rgb(1.568628%,53.333336%,9.411765%);fill-opacity:1;" d="M 0.0507812 37.0625 C 0.0507812 24.707031 0.0507812 12.378906 0.0507812 0.046875 C 33.382812 0.046875 66.714844 0.046875 100.050781 0.046875 C 100.050781 33.382812 100.050781 66.714844 100.050781 100.046875 C 66.714844 100.046875 33.382812 100.046875 0.0507812 100.046875 C 0.0507812 79.0625 0.0507812 58.074219 0.0507812 37.0625 M 4.851562 41.910156 C 4.792969 42.503906 4.714844 43.089844 4.671875 43.683594 C 4.402344 47.144531 4.496094 50.589844 4.992188 54.03125 C 5.464844 57.324219 6.28125 60.535156 7.457031 63.648438 C 9.019531 67.785156 11.132812 71.617188 13.839844 75.125 C 16.332031 78.347656 19.210938 81.175781 22.488281 83.601562 C 25.789062 86.046875 29.367188 87.988281 33.230469 89.40625 C 36.90625 90.753906 40.695312 91.585938 44.59375 91.9375 C 48.09375 92.253906 51.578125 92.148438 55.050781 91.640625 C 57.886719 91.226562 60.65625 90.550781 63.359375 89.613281 C 66.621094 88.484375 69.710938 87.011719 72.621094 85.164062 C 77.964844 81.773438 82.394531 77.445312 85.914062 72.203125 C 89.917969 66.242188 92.292969 59.679688 93.132812 52.5625 C 93.59375 48.664062 93.535156 44.769531 92.953125 40.882812 C 92.371094 36.96875 91.289062 33.199219 89.707031 29.570312 C 87.683594 24.914062 84.929688 20.734375 81.464844 17.019531 C 79 14.375 76.25 12.058594 73.222656 10.070312 C 69.859375 7.855469 66.257812 6.132812 62.421875 4.902344 C 58.949219 3.785156 55.390625 3.097656 51.75 2.839844 C 48.117188 2.585938 44.5 2.75 40.910156 3.378906 C 37.359375 4 33.933594 5.035156 30.636719 6.496094 C 27.332031 7.960938 24.257812 9.808594 21.421875 12.046875 C 19.015625 13.949219 16.835938 16.082031 14.875 18.4375 C 12.171875 21.679688 9.980469 25.238281 8.296875 29.101562 C 6.523438 33.1875 5.390625 37.449219 4.851562 41.910156 Z M 4.851562 41.910156 "/>
<path style=" stroke:none;fill-rule:nonzero;fill:rgb(97.647059%,99.215686%,97.647059%);fill-opacity:1;" d="M 4.855469 41.890625 C 5.390625 37.449219 6.523438 33.1875 8.296875 29.101562 C 9.980469 25.238281 12.171875 21.679688 14.875 18.4375 C 16.835938 16.082031 19.015625 13.949219 21.421875 12.046875 C 24.257812 9.808594 27.332031 7.960938 30.636719 6.496094 C 33.933594 5.035156 37.359375 4 40.910156 3.378906 C 44.5 2.75 48.117188 2.585938 51.75 2.839844 C 55.390625 3.097656 58.949219 3.785156 62.421875 4.902344 C 66.257812 6.132812 69.859375 7.855469 73.222656 10.070312 C 76.25 12.058594 79 14.375 81.464844 17.019531 C 84.929688 20.734375 87.683594 24.914062 89.707031 29.570312 C 91.289062 33.199219 92.371094 36.96875 92.953125 40.882812 C 93.535156 44.769531 93.59375 48.664062 93.132812 52.5625 C 92.292969 59.679688 89.917969 66.242188 85.914062 72.203125 C 82.394531 77.445312 77.964844 81.773438 72.621094 85.164062 C 69.710938 87.011719 66.621094 88.484375 63.359375 89.613281 C 60.65625 90.550781 57.886719 91.226562 55.050781 91.640625 C 51.578125 92.148438 48.09375 92.253906 44.59375 91.9375 C 40.695312 91.585938 36.90625 90.753906 33.230469 89.40625 C 29.367188 87.988281 25.789062 86.046875 22.488281 83.601562 C 19.210938 81.175781 16.332031 78.347656 13.839844 75.125 C 11.132812 71.617188 9.019531 67.785156 7.457031 63.648438 C 6.28125 60.535156 5.464844 57.324219 4.992188 54.03125 C 4.496094 50.589844 4.402344 47.144531 4.671875 43.683594 C 4.714844 43.089844 4.792969 42.503906 4.855469 41.890625 M 83.035156 56.488281 C 81.5625 58.03125 79.871094 59.300781 78.042969 60.394531 C 75.171875 62.113281 72.078125 63.320312 68.886719 64.292969 C 66.070312 65.152344 63.203125 65.777344 60.292969 66.222656 C 57.707031 66.617188 55.109375 66.875 52.5 67.007812 C 47.269531 67.265625 42.066406 67.007812 36.894531 66.171875 C 34.199219 65.734375 31.546875 65.136719 28.9375 64.335938 C 26.089844 63.460938 23.34375 62.355469 20.726562 60.933594 C 17.949219 59.425781 15.414062 57.59375 13.203125 55.328125 C 13.15625 55.28125 13.101562 55.238281 13.011719 55.160156 C 13.039062 55.296875 13.050781 55.375 13.070312 55.453125 C 14.140625 59.785156 16.164062 63.632812 19.023438 67.054688 C 21.183594 69.644531 23.707031 71.832031 26.511719 73.703125 C 26.914062 73.972656 27.289062 74.300781 27.792969 74.390625 C 28.78125 74.566406 29.761719 74.785156 30.753906 74.9375 C 33.554688 75.375 36.378906 75.625 39.207031 75.773438 C 41.484375 75.890625 43.761719 75.972656 46.039062 76 C 50.050781 76.054688 54.058594 75.929688 58.058594 75.597656 C 61.652344 75.300781 65.21875 74.820312 68.75 74.109375 C 68.960938 74.066406 69.1875 74.015625 69.367188 73.902344 C 70.902344 72.9375 72.363281 71.867188 73.734375 70.683594 C 77.519531 67.429688 80.421875 63.535156 82.28125 58.898438 C 82.597656 58.117188 82.824219 57.300781 83.121094 56.488281 C 83.121094 56.464844 83.121094 56.441406 83.121094 56.421875 C 83.101562 56.4375 83.082031 56.457031 83.035156 56.488281 M 13.386719 39.609375 C 14.925781 37.957031 16.625 36.488281 18.484375 35.207031 C 22.097656 32.722656 26.054688 30.96875 30.261719 29.753906 C 34.191406 28.621094 38.203125 27.96875 42.277344 27.691406 C 46.15625 27.429688 50.03125 27.507812 53.898438 27.894531 C 56.792969 28.179688 59.660156 28.636719 62.496094 29.289062 C 66.738281 30.265625 70.859375 31.589844 74.757812 33.546875 C 76.957031 34.652344 79.0625 35.914062 80.945312 37.5 C 81.753906 38.179688 82.492188 38.945312 83.273438 39.691406 C 83.285156 39.691406 83.296875 39.6875 83.308594 39.6875 C 83.300781 39.671875 83.296875 39.660156 83.292969 39.605469 C 82.882812 37.949219 82.335938 36.332031 81.664062 34.757812 C 80.140625 31.1875 78.105469 27.941406 75.421875 25.117188 C 73.707031 23.308594 71.792969 21.75 69.589844 20.5625 C 69.460938 20.492188 69.296875 20.464844 69.152344 20.46875 C 67.226562 20.539062 65.300781 20.648438 63.375 20.6875 C 57.730469 20.796875 52.089844 20.914062 46.445312 20.960938 C 42.878906 20.988281 39.308594 20.925781 35.738281 20.839844 C 33.144531 20.78125 30.550781 20.617188 27.957031 20.484375 C 27.675781 20.472656 27.4375 20.515625 27.191406 20.648438 C 23.433594 22.667969 20.515625 25.585938 18.117188 29.058594 C 16.378906 31.574219 15.035156 34.296875 14.046875 37.191406 C 13.777344 37.980469 13.566406 38.792969 13.300781 39.605469 C 13.300781 39.628906 13.300781 39.652344 13.300781 39.671875 C 13.320312 39.65625 13.339844 39.640625 13.386719 39.609375 M 58.4375 64.980469 C 58.597656 64.953125 58.757812 64.925781 58.917969 64.902344 C 62.847656 64.359375 66.703125 63.5 70.457031 62.203125 C 73.542969 61.132812 76.488281 59.769531 79.15625 57.863281 C 80.679688 56.773438 82.042969 55.519531 83.125 53.984375 C 83.652344 53.238281 84.082031 52.46875 84.171875 51.511719 C 84.421875 48.941406 84.417969 46.378906 84.113281 43.816406 C 84.09375 43.648438 84.0625 43.46875 83.980469 43.328125 C 83.769531 42.941406 83.546875 42.5625 83.296875 42.199219 C 81.957031 40.253906 80.222656 38.710938 78.292969 37.375 C 75.835938 35.667969 73.179688 34.34375 70.394531 33.261719 C 67.011719 31.941406 63.523438 30.984375 59.960938 30.292969 C 57.234375 29.765625 54.480469 29.40625 51.710938 29.214844 C 48.90625 29.015625 46.097656 28.988281 43.289062 29.140625 C 40.953125 29.269531 38.632812 29.511719 36.332031 29.910156 C 33.261719 30.4375 30.253906 31.210938 27.335938 32.304688 C 23.792969 33.640625 20.488281 35.402344 17.539062 37.785156 C 15.710938 39.261719 14.085938 40.9375 12.683594 42.820312 C 12.625 42.902344 12.574219 43.007812 12.5625 43.105469 C 12.457031 44.011719 12.332031 44.914062 12.261719 45.820312 C 12.113281 47.847656 12.160156 49.871094 12.417969 51.886719 C 12.4375 52.066406 12.523438 52.265625 12.636719 52.40625 C 14.246094 54.449219 16.144531 56.191406 18.28125 57.671875 C 21.042969 59.582031 24.03125 61.039062 27.1875 62.167969 C 30.683594 63.421875 34.28125 64.277344 37.953125 64.835938 C 41.375 65.351562 44.816406 65.582031 48.277344 65.597656 C 51.664062 65.613281 55.035156 65.40625 58.4375 64.980469 M 48.183594 7.152344 C 48.183594 6.1875 48.183594 5.222656 48.183594 4.230469 C 38.773438 4.378906 30.304688 7.1875 22.863281 12.84375 C 23.488281 13.464844 24.121094 14.03125 24.683594 14.660156 C 25.816406 15.9375 26.796875 17.324219 27.695312 18.773438 C 27.785156 18.921875 27.882812 19 28.058594 18.996094 C 28.214844 18.996094 28.367188 19.03125 28.523438 19.035156 C 30.796875 19.136719 33.074219 19.285156 35.351562 19.328125 C 39.515625 19.40625 43.679688 19.425781 47.84375 19.46875 C 47.964844 19.46875 48.082031 19.457031 48.183594 19.453125 C 48.183594 15.351562 48.183594 11.277344 48.183594 7.152344 M 54.289062 19.398438 C 55.921875 19.367188 57.558594 19.351562 59.191406 19.304688 C 62.308594 19.207031 65.425781 19.089844 68.546875 18.992188 C 68.800781 18.984375 68.945312 18.890625 69.09375 18.683594 C 69.769531 17.726562 70.445312 16.765625 71.171875 15.847656 C 72.097656 14.675781 73.089844 13.566406 74.34375 12.660156 C 66.972656 7.371094 58.808594 4.503906 49.742188 4.242188 C 49.742188 9.335938 49.742188 14.390625 49.742188 19.398438 C 51.265625 19.398438 52.753906 19.398438 54.289062 19.398438 M 39.777344 89.703125 C 41.367188 89.941406 42.949219 90.222656 44.546875 90.40625 C 45.667969 90.539062 46.808594 90.542969 47.941406 90.609375 C 48.140625 90.621094 48.265625 90.589844 48.222656 90.355469 C 48.21875 90.332031 48.222656 90.304688 48.222656 90.28125 C 48.210938 86.066406 48.203125 81.851562 48.191406 77.640625 C 48.191406 77.601562 48.175781 77.566406 48.164062 77.515625 C 47.617188 77.515625 47.078125 77.515625 46.539062 77.511719 C 42.878906 77.492188 39.226562 77.347656 35.578125 77.007812 C 33.011719 76.769531 30.449219 76.480469 27.917969 75.949219 C 27.761719 75.917969 27.683594 75.960938 27.605469 76.089844 C 27.390625 76.441406 27.164062 76.792969 26.933594 77.136719 C 25.945312 78.585938 24.90625 79.992188 23.636719 81.210938 C 23.367188 81.46875 23.074219 81.695312 22.78125 81.953125 C 27.851562 85.820312 33.507812 88.378906 39.777344 89.703125 M 67.230469 75.925781 C 66.894531 75.984375 66.554688 76.035156 66.21875 76.09375 C 63.148438 76.613281 60.0625 76.976562 56.957031 77.179688 C 54.621094 77.332031 52.277344 77.394531 49.933594 77.5 C 49.863281 77.503906 49.792969 77.511719 49.71875 77.515625 C 49.71875 81.882812 49.71875 86.226562 49.71875 90.601562 C 58.535156 90.308594 66.496094 87.671875 73.730469 82.609375 C 73.589844 82.496094 73.480469 82.425781 73.390625 82.332031 C 72.296875 81.167969 71.441406 79.832031 70.644531 78.457031 C 70.121094 77.558594 69.617188 76.644531 69.097656 75.746094 C 69.0625 75.683594 68.949219 75.613281 68.886719 75.621094 C 68.347656 75.710938 67.8125 75.820312 67.230469 75.925781 M 81.710938 63.5 C 78.90625 68.253906 75.039062 71.984375 70.433594 75.015625 C 70.707031 75.503906 70.972656 75.976562 71.238281 76.453125 C 72.003906 77.824219 72.769531 79.195312 73.742188 80.4375 C 74.097656 80.886719 74.503906 81.296875 74.902344 81.742188 C 80.8125 77.199219 85.261719 71.585938 88.253906 64.839844 C 90.695312 59.332031 91.914062 53.5625 91.929688 47.550781 C 89.890625 47.550781 87.894531 47.550781 85.878906 47.550781 C 85.878906 53.238281 84.582031 58.554688 81.710938 63.5 M 90.921875 38.125 C 90.90625 38.0625 90.890625 38 90.878906 37.9375 C 90.320312 35.464844 89.5625 33.058594 88.578125 30.722656 C 86.257812 25.226562 82.941406 20.414062 78.632812 16.28125 C 77.730469 15.414062 76.75 14.625 75.8125 13.792969 C 75.671875 13.667969 75.558594 13.652344 75.410156 13.765625 C 75.210938 13.921875 74.996094 14.054688 74.800781 14.214844 C 73.734375 15.066406 72.871094 16.109375 72.035156 17.171875 C 71.492188 17.859375 70.988281 18.578125 70.457031 19.292969 C 70.539062 19.347656 70.585938 19.378906 70.632812 19.410156 C 71.171875 19.746094 71.722656 20.066406 72.246094 20.425781 C 74.394531 21.898438 76.265625 23.664062 77.925781 25.664062 C 79.433594 27.480469 80.71875 29.445312 81.804688 31.539062 C 83.125 34.085938 84.136719 36.746094 84.832031 39.523438 C 85.28125 41.328125 85.597656 43.152344 85.742188 45.003906 C 85.773438 45.347656 85.800781 45.695312 85.828125 46.023438 C 87.863281 46.023438 89.871094 46.023438 91.90625 46.023438 C 91.816406 43.355469 91.488281 40.746094 90.921875 38.125 M 19.230469 15.957031 C 15.042969 19.976562 11.839844 24.671875 9.566406 29.996094 C 7.296875 35.316406 6.128906 40.867188 6.039062 46.628906 C 7.613281 46.628906 9.148438 46.628906 10.699219 46.628906 C 10.710938 46.511719 10.71875 46.425781 10.726562 46.335938 C 10.792969 45.574219 10.839844 44.8125 10.925781 44.054688 C 11.273438 41.03125 12.023438 38.109375 13.128906 35.28125 C 14.410156 32.007812 16.136719 28.988281 18.335938 26.246094 C 20.328125 23.757812 22.632812 21.613281 25.371094 19.957031 C 25.675781 19.769531 25.988281 19.597656 26.304688 19.414062 C 26.261719 19.335938 26.234375 19.265625 26.191406 19.207031 C 25.394531 18.117188 24.617188 17.011719 23.796875 15.941406 C 23.226562 15.195312 22.554688 14.539062 21.761719 14.015625 C 21.609375 13.917969 21.507812 13.90625 21.363281 14.039062 C 20.664062 14.675781 19.957031 15.300781 19.230469 15.957031 M 18.898438 78.566406 C 19.710938 79.304688 20.527344 80.042969 21.335938 80.785156 C 21.472656 80.914062 21.582031 80.9375 21.730469 80.8125 C 22.03125 80.5625 22.359375 80.34375 22.644531 80.078125 C 23.691406 79.085938 24.546875 77.9375 25.371094 76.761719 C 25.6875 76.3125 25.980469 75.84375 26.289062 75.378906 C 26.214844 75.324219 26.171875 75.292969 26.125 75.257812 C 24.980469 74.425781 23.800781 73.632812 22.691406 72.75 C 19.816406 70.464844 17.390625 67.769531 15.417969 64.671875 C 12.449219 60 10.917969 54.890625 10.703125 49.378906 C 10.6875 48.964844 10.699219 48.554688 10.699219 48.15625 C 9.117188 48.15625 7.59375 48.15625 6.015625 48.15625 C 6.394531 59.960938 10.519531 70.136719 18.898438 78.566406 Z M 18.898438 78.566406 "/>
<path style=" stroke:none;fill-rule:nonzero;fill:rgb(1.960784%,53.333336%,9.803922%);fill-opacity:1;" d="M 58.414062 64.980469 C 55.035156 65.40625 51.664062 65.613281 48.277344 65.597656 C 44.816406 65.582031 41.375 65.351562 37.953125 64.835938 C 34.28125 64.277344 30.683594 63.421875 27.1875 62.167969 C 24.03125 61.039062 21.042969 59.582031 18.28125 57.671875 C 16.144531 56.191406 14.246094 54.449219 12.636719 52.40625 C 12.523438 52.265625 12.4375 52.066406 12.417969 51.886719 C 12.160156 49.871094 12.113281 47.847656 12.261719 45.820312 C 12.332031 44.914062 12.457031 44.011719 12.5625 43.105469 C 12.574219 43.007812 12.625 42.902344 12.683594 42.820312 C 14.085938 40.9375 15.710938 39.261719 17.539062 37.785156 C 20.488281 35.402344 23.792969 33.640625 27.335938 32.304688 C 30.253906 31.210938 33.261719 30.4375 36.332031 29.910156 C 38.632812 29.511719 40.953125 29.269531 43.289062 29.140625 C 46.097656 28.988281 48.90625 29.015625 51.710938 29.214844 C 54.480469 29.40625 57.234375 29.765625 59.960938 30.292969 C 63.523438 30.984375 67.011719 31.941406 70.394531 33.261719 C 73.179688 34.34375 75.835938 35.667969 78.292969 37.375 C 80.222656 38.710938 81.957031 40.253906 83.296875 42.199219 C 83.546875 42.5625 83.769531 42.941406 83.980469 43.328125 C 84.0625 43.46875 84.09375 43.648438 84.113281 43.816406 C 84.417969 46.378906 84.421875 48.941406 84.171875 51.511719 C 84.082031 52.46875 83.652344 53.238281 83.125 53.984375 C 82.042969 55.519531 80.679688 56.773438 79.15625 57.863281 C 76.488281 59.769531 73.542969 61.132812 70.457031 62.203125 C 66.703125 63.5 62.847656 64.359375 58.917969 64.902344 C 58.757812 64.925781 58.597656 64.953125 58.414062 64.980469 M 26.910156 42.175781 C 26.898438 42.183594 26.894531 42.195312 26.890625 42.214844 C 26.890625 42.214844 26.890625 42.21875 26.859375 42.226562 C 26.832031 42.261719 26.800781 42.300781 26.746094 42.351562 C 26.695312 42.40625 26.648438 42.457031 26.570312 42.511719 C 26.554688 42.535156 26.539062 42.558594 26.5 42.597656 C 26.472656 42.625 26.449219 42.652344 26.394531 42.6875 C 26.371094 42.714844 26.351562 42.746094 26.300781 42.796875 C 26.042969 43.058594 25.78125 43.320312 25.496094 43.589844 C 25.488281 43.601562 25.476562 43.617188 25.453125 43.640625 C 25.453125 43.640625 25.441406 43.65625 25.414062 43.664062 C 25.390625 43.691406 25.367188 43.722656 25.34375 43.75 C 25.34375 43.75 25.34375 43.753906 25.316406 43.761719 C 25.300781 43.78125 25.285156 43.804688 25.246094 43.839844 C 25.214844 43.878906 25.183594 43.914062 25.121094 43.957031 C 25.097656 43.988281 25.074219 44.015625 25.050781 44.042969 C 25.050781 44.042969 25.050781 44.046875 25.023438 44.050781 C 25 44.082031 24.976562 44.113281 24.9375 44.152344 C 24.9375 44.152344 24.929688 44.167969 24.902344 44.171875 C 24.886719 44.195312 24.871094 44.21875 24.828125 44.257812 C 24.757812 44.332031 24.6875 44.402344 24.578125 44.460938 C 24.566406 44.453125 24.558594 44.445312 24.550781 44.390625 C 24.546875 42.550781 24.546875 40.710938 24.558594 38.835938 C 24.519531 38.804688 24.484375 38.742188 24.449219 38.742188 C 24.175781 38.742188 23.898438 38.753906 23.589844 38.753906 C 23.554688 38.757812 23.515625 38.757812 23.453125 38.742188 C 23.378906 38.75 23.308594 38.753906 23.195312 38.753906 C 23.144531 38.757812 23.089844 38.757812 23.011719 38.746094 C 22.785156 38.820312 22.921875 38.988281 22.910156 39.164062 C 22.90625 40.164062 22.90625 41.164062 22.90625 42.164062 C 22.910156 44.921875 22.910156 47.679688 22.898438 50.464844 C 22.882812 50.574219 22.914062 50.636719 23.070312 50.597656 C 23.09375 50.59375 23.117188 50.59375 23.160156 50.609375 C 23.199219 50.601562 23.242188 50.597656 23.324219 50.597656 C 23.375 50.597656 23.429688 50.59375 23.496094 50.609375 C 23.523438 50.605469 23.550781 50.597656 23.625 50.597656 C 23.886719 50.597656 24.148438 50.59375 24.4375 50.609375 C 24.472656 50.566406 24.507812 50.523438 24.550781 50.4375 C 24.550781 49.152344 24.546875 47.867188 24.558594 46.558594 C 24.554688 46.550781 24.550781 46.539062 24.554688 46.523438 C 24.554688 46.523438 24.550781 46.515625 24.566406 46.511719 C 24.578125 46.503906 24.578125 46.492188 24.597656 46.457031 C 25.207031 45.863281 25.820312 45.269531 26.4375 44.671875 C 26.496094 44.75 26.535156 44.800781 26.570312 44.851562 C 27.882812 46.707031 29.195312 48.5625 30.5 50.417969 C 30.59375 50.554688 30.695312 50.609375 30.859375 50.601562 C 31.269531 50.59375 31.675781 50.601562 32.085938 50.601562 C 32.300781 50.601562 32.515625 50.601562 32.792969 50.601562 C 31.039062 48.222656 29.324219 45.902344 27.59375 43.566406 C 29.246094 41.976562 30.894531 40.394531 32.578125 38.773438 C 32.4375 38.765625 32.351562 38.753906 32.265625 38.753906 C 31.742188 38.753906 31.21875 38.765625 30.695312 38.75 C 30.457031 38.742188 30.265625 38.792969 30.101562 39 C 30.09375 39.015625 30.085938 39.027344 30.054688 39.0625 C 29.996094 39.121094 29.941406 39.179688 29.859375 39.246094 C 29.851562 39.261719 29.84375 39.277344 29.8125 39.304688 C 29.785156 39.332031 29.761719 39.359375 29.710938 39.390625 C 29.703125 39.40625 29.695312 39.421875 29.660156 39.453125 C 29.589844 39.527344 29.515625 39.605469 29.417969 39.683594 C 29.402344 39.691406 29.394531 39.703125 29.390625 39.722656 C 29.390625 39.722656 29.390625 39.730469 29.363281 39.734375 C 29.347656 39.757812 29.332031 39.777344 29.296875 39.8125 C 29.28125 39.835938 29.265625 39.855469 29.222656 39.878906 C 29.214844 39.894531 29.203125 39.90625 29.171875 39.941406 C 29.132812 39.984375 29.09375 40.027344 29.027344 40.074219 C 29.019531 40.089844 29.011719 40.105469 28.976562 40.136719 C 28.953125 40.164062 28.925781 40.1875 28.878906 40.21875 C 28.863281 40.230469 28.855469 40.242188 28.851562 40.261719 C 28.851562 40.261719 28.847656 40.269531 28.824219 40.269531 C 28.8125 40.277344 28.804688 40.292969 28.800781 40.308594 C 28.800781 40.308594 28.796875 40.316406 28.777344 40.320312 C 28.761719 40.328125 28.757812 40.34375 28.753906 40.359375 C 28.753906 40.359375 28.753906 40.363281 28.726562 40.371094 C 28.714844 40.390625 28.699219 40.410156 28.667969 40.445312 C 28.667969 40.445312 28.660156 40.460938 28.632812 40.464844 C 28.625 40.480469 28.617188 40.496094 28.582031 40.53125 C 28.363281 40.75 28.140625 40.972656 27.894531 41.199219 C 27.886719 41.210938 27.878906 41.226562 27.84375 41.257812 C 27.699219 41.40625 27.550781 41.558594 27.378906 41.710938 C 27.363281 41.730469 27.347656 41.75 27.328125 41.773438 C 27.328125 41.773438 27.324219 41.78125 27.304688 41.785156 C 27.289062 41.792969 27.285156 41.804688 27.28125 41.824219 C 27.28125 41.824219 27.277344 41.832031 27.257812 41.832031 C 27.242188 41.839844 27.238281 41.851562 27.230469 41.871094 C 27.230469 41.871094 27.230469 41.878906 27.207031 41.886719 C 27.191406 41.894531 27.183594 41.910156 27.164062 41.941406 C 27.140625 41.96875 27.113281 41.996094 27.0625 42.027344 C 27.054688 42.042969 27.046875 42.058594 27.019531 42.085938 C 27.007812 42.09375 26.996094 42.105469 26.964844 42.121094 C 26.949219 42.128906 26.941406 42.144531 26.9375 42.164062 C 26.9375 42.164062 26.933594 42.171875 26.910156 42.175781 M 72.199219 42.105469 C 71.601562 42.375 71.128906 42.785156 70.773438 43.328125 C 70.261719 44.105469 70.039062 44.96875 69.984375 45.886719 C 69.910156 47.128906 70.175781 48.277344 70.925781 49.292969 C 71.847656 50.535156 73.703125 50.988281 75.082031 50.285156 C 75.417969 50.113281 75.710938 49.863281 76.058594 49.621094 C 76.027344 50.148438 76.042969 50.671875 75.957031 51.175781 C 75.828125 51.933594 75.386719 52.488281 74.613281 52.660156 C 74.160156 52.757812 73.671875 52.789062 73.207031 52.75 C 72.476562 52.683594 71.890625 52.367188 71.757812 51.542969 C 71.75 51.484375 71.679688 51.398438 71.628906 51.390625 C 71.179688 51.320312 70.730469 51.265625 70.285156 51.207031 C 70.140625 52.183594 70.652344 53.152344 71.558594 53.597656 C 72.8125 54.210938 74.121094 54.226562 75.417969 53.777344 C 76.550781 53.382812 77.269531 52.578125 77.445312 51.371094 C 77.527344 50.816406 77.585938 50.253906 77.589844 49.695312 C 77.605469 47.203125 77.597656 44.714844 77.597656 42.226562 C 77.597656 42.15625 77.585938 42.085938 77.582031 42.011719 C 77.109375 42.011719 76.65625 42.011719 76.171875 42.011719 C 76.171875 42.3125 76.171875 42.597656 76.171875 42.921875 C 75.023438 41.722656 73.699219 41.554688 72.199219 42.105469 M 47.378906 50.601562 C 47.601562 50.601562 47.828125 50.601562 48.082031 50.601562 C 48.082031 50.277344 48.082031 49.992188 48.082031 49.65625 C 48.238281 49.824219 48.347656 49.953125 48.472656 50.066406 C 49.425781 50.933594 50.96875 51.046875 52.144531 50.335938 C 53.195312 49.703125 53.796875 48.757812 54.019531 47.574219 C 54.296875 46.097656 54.191406 44.675781 53.40625 43.351562 C 52.414062 41.683594 49.714844 41.195312 48.320312 42.722656 C 48.292969 42.757812 48.253906 42.78125 48.183594 42.847656 C 48.183594 41.460938 48.183594 40.125 48.183594 38.769531 C 47.664062 38.769531 47.171875 38.769531 46.671875 38.769531 C 46.671875 42.71875 46.671875 46.648438 46.671875 50.601562 C 46.90625 50.601562 47.117188 50.601562 47.378906 50.601562 M 61.996094 47.808594 C 61.90625 47.800781 61.820312 47.796875 61.722656 47.789062 C 61.683594 47.886719 61.644531 47.976562 61.605469 48.066406 C 61.382812 48.566406 61.089844 49.019531 60.582031 49.269531 C 59.738281 49.675781 58.894531 49.636719 58.113281 49.117188 C 57.273438 48.558594 57.015625 47.695312 56.945312 46.707031 C 59.082031 46.707031 61.191406 46.707031 63.320312 46.707031 C 63.320312 46.394531 63.335938 46.109375 63.316406 45.828125 C 63.253906 44.773438 62.984375 43.785156 62.242188 42.992188 C 61.242188 41.925781 59.980469 41.640625 58.589844 41.878906 C 57.28125 42.101562 56.328125 42.835938 55.804688 44.054688 C 55.226562 45.398438 55.21875 46.792969 55.628906 48.183594 C 55.894531 49.078125 56.429688 49.796875 57.253906 50.242188 C 58.59375 50.972656 59.996094 51.003906 61.378906 50.402344 C 62.421875 49.949219 62.992188 49.074219 63.292969 47.972656 C 62.855469 47.917969 62.445312 47.867188 61.996094 47.808594 M 48.847656 62.105469 C 49.507812 62.078125 50.175781 62.097656 50.828125 62.015625 C 51.695312 61.90625 52.261719 61.371094 52.535156 60.558594 C 52.78125 59.828125 52.734375 59.101562 52.1875 58.5 C 51.949219 58.242188 51.617188 58.066406 51.335938 57.855469 C 51.332031 57.855469 51.359375 57.839844 51.386719 57.820312 C 51.988281 57.414062 52.300781 56.851562 52.273438 56.128906 C 52.242188 55.34375 51.847656 54.75 51.128906 54.449219 C 50.730469 54.285156 50.261719 54.21875 49.824219 54.207031 C 48.65625 54.171875 47.488281 54.1875 46.320312 54.183594 C 46.214844 54.183594 46.113281 54.183594 45.996094 54.183594 C 45.996094 56.835938 45.996094 59.460938 45.996094 62.105469 C 46.941406 62.105469 47.871094 62.105469 48.847656 62.105469 M 37.890625 50.761719 C 37.972656 50.75 38.050781 50.738281 38.132812 50.722656 C 39.664062 50.398438 40.734375 49.550781 41.15625 48.011719 C 41.417969 47.042969 41.433594 46.050781 41.265625 45.058594 C 41.15625 44.410156 40.917969 43.804688 40.503906 43.285156 C 39.542969 42.070312 38.246094 41.671875 36.757812 41.84375 C 35.3125 42.007812 34.199219 42.71875 33.664062 44.09375 C 33.0625 45.632812 33.082031 47.203125 33.757812 48.722656 C 34.152344 49.609375 34.859375 50.199219 35.769531 50.539062 C 36.441406 50.789062 37.136719 50.835938 37.890625 50.761719 M 58.667969 54.304688 C 57.671875 55.386719 56.675781 56.464844 55.679688 57.546875 C 55.660156 57.539062 55.640625 57.53125 55.621094 57.527344 C 55.621094 56.417969 55.621094 55.3125 55.621094 54.195312 C 55.054688 54.195312 54.519531 54.195312 53.972656 54.195312 C 53.972656 56.835938 53.972656 59.460938 53.972656 62.085938 C 54.53125 62.085938 55.074219 62.085938 55.628906 62.085938 C 55.628906 61.542969 55.667969 61.019531 55.617188 60.503906 C 55.554688 59.925781 55.730469 59.492188 56.183594 59.132812 C 56.429688 58.941406 56.632812 58.695312 56.863281 58.460938 C 56.933594 58.570312 56.988281 58.652344 57.035156 58.734375 C 57.660156 59.792969 58.285156 60.851562 58.898438 61.914062 C 58.984375 62.0625 59.078125 62.117188 59.246094 62.113281 C 59.769531 62.101562 60.289062 62.109375 60.8125 62.109375 C 60.914062 62.109375 61.015625 62.109375 61.152344 62.109375 C 61.085938 61.996094 61.050781 61.921875 61.007812 61.855469 C 60.058594 60.40625 59.113281 58.953125 58.160156 57.503906 C 58.054688 57.34375 58.042969 57.246094 58.191406 57.097656 C 58.789062 56.503906 59.367188 55.898438 59.953125 55.296875 C 60.292969 54.941406 60.632812 54.585938 61.023438 54.183594 C 60.253906 54.183594 59.554688 54.179688 58.855469 54.1875 C 58.800781 54.1875 58.746094 54.246094 58.667969 54.304688 M 43.640625 54.183594 C 43.480469 54.160156 43.457031 54.273438 43.421875 54.386719 C 42.988281 55.695312 42.554688 57.007812 42.117188 58.316406 C 41.949219 58.820312 41.78125 59.320312 41.59375 59.875 C 41.542969 59.753906 41.511719 59.691406 41.488281 59.621094 C 40.902344 57.917969 40.316406 56.210938 39.738281 54.5 C 39.664062 54.28125 39.582031 54.136719 39.304688 54.175781 C 39.085938 54.207031 38.863281 54.179688 38.644531 54.179688 C 38.378906 54.179688 38.113281 54.179688 37.828125 54.179688 C 37.855469 54.273438 37.867188 54.320312 37.882812 54.367188 C 38.28125 55.484375 38.679688 56.601562 39.078125 57.714844 C 39.582031 59.113281 40.085938 60.511719 40.585938 61.914062 C 40.636719 62.054688 40.699219 62.121094 40.859375 62.113281 C 41.152344 62.097656 41.449219 62.109375 41.742188 62.109375 C 42.402344 62.109375 42.40625 62.109375 42.628906 61.5 C 43.363281 59.460938 44.097656 57.417969 44.835938 55.378906 C 44.972656 54.992188 45.109375 54.605469 45.261719 54.179688 C 44.707031 54.179688 44.195312 54.179688 43.640625 54.183594 M 44.484375 43.089844 C 44.484375 41.648438 44.484375 40.207031 44.484375 38.769531 C 43.949219 38.769531 43.464844 38.769531 42.964844 38.769531 C 42.960938 38.859375 42.953125 38.929688 42.953125 39 C 42.953125 42.765625 42.953125 46.53125 42.953125 50.296875 C 42.953125 50.355469 42.9375 50.417969 42.960938 50.464844 C 42.984375 50.519531 43.042969 50.59375 43.089844 50.59375 C 43.546875 50.601562 44 50.597656 44.484375 50.597656 C 44.484375 48.097656 44.484375 45.617188 44.484375 43.089844 M 66.699219 44.742188 C 66.910156 43.742188 67.578125 43.234375 68.484375 43.414062 C 68.734375 43.464844 68.972656 43.578125 69.238281 43.671875 C 69.40625 43.214844 69.578125 42.753906 69.75 42.289062 C 69.152344 41.933594 68.546875 41.71875 67.863281 41.839844 C 67.15625 41.96875 66.808594 42.535156 66.441406 43.070312 C 66.421875 43.0625 66.40625 43.050781 66.386719 43.042969 C 66.386719 42.695312 66.386719 42.351562 66.386719 42.007812 C 65.917969 42.007812 65.480469 42.007812 65.027344 42.007812 C 65.027344 44.871094 65.027344 47.71875 65.027344 50.585938 C 65.53125 50.585938 66.023438 50.585938 66.542969 50.585938 C 66.542969 50.480469 66.542969 50.394531 66.542969 50.304688 C 66.542969 48.949219 66.53125 47.589844 66.550781 46.234375 C 66.558594 45.75 66.640625 45.265625 66.699219 44.742188 Z M 66.699219 44.742188 "/>
<path style=" stroke:none;fill-rule:nonzero;fill:rgb(1.960784%,53.333336%,9.803922%);fill-opacity:1;" d="M 83.261719 39.671875 C 82.492188 38.945312 81.753906 38.179688 80.945312 37.5 C 79.0625 35.914062 76.957031 34.652344 74.757812 33.546875 C 70.859375 31.589844 66.738281 30.265625 62.496094 29.289062 C 59.660156 28.636719 56.792969 28.179688 53.898438 27.894531 C 50.03125 27.507812 46.15625 27.429688 42.277344 27.691406 C 38.203125 27.96875 34.191406 28.621094 30.261719 29.753906 C 26.054688 30.96875 22.097656 32.722656 18.484375 35.207031 C 16.625 36.488281 14.925781 37.957031 13.367188 39.609375 C 13.34375 39.609375 13.328125 39.59375 13.328125 39.59375 C 13.566406 38.792969 13.777344 37.980469 14.046875 37.191406 C 15.035156 34.296875 16.378906 31.574219 18.117188 29.058594 C 20.515625 25.585938 23.433594 22.667969 27.191406 20.648438 C 27.4375 20.515625 27.675781 20.472656 27.957031 20.484375 C 30.550781 20.617188 33.144531 20.78125 35.738281 20.839844 C 39.308594 20.925781 42.878906 20.988281 46.445312 20.960938 C 52.089844 20.914062 57.730469 20.796875 63.375 20.6875 C 65.300781 20.648438 67.226562 20.539062 69.152344 20.46875 C 69.296875 20.464844 69.460938 20.492188 69.589844 20.5625 C 71.792969 21.75 73.707031 23.308594 75.421875 25.117188 C 78.105469 27.941406 80.140625 31.1875 81.664062 34.757812 C 82.335938 36.332031 82.882812 37.949219 83.285156 39.632812 C 83.273438 39.660156 83.261719 39.671875 83.261719 39.671875 Z M 83.261719 39.671875 "/>
<path style=" stroke:none;fill-rule:nonzero;fill:rgb(2.352941%,53.333336%,9.803922%);fill-opacity:1;" d="M 83.09375 56.5 C 82.824219 57.300781 82.597656 58.117188 82.28125 58.898438 C 80.421875 63.535156 77.519531 67.429688 73.734375 70.683594 C 72.363281 71.867188 70.902344 72.9375 69.367188 73.902344 C 69.1875 74.015625 68.960938 74.066406 68.75 74.109375 C 65.21875 74.820312 61.652344 75.300781 58.058594 75.597656 C 54.058594 75.929688 50.050781 76.054688 46.039062 76 C 43.761719 75.972656 41.484375 75.890625 39.207031 75.773438 C 36.378906 75.625 33.554688 75.375 30.753906 74.9375 C 29.761719 74.785156 28.78125 74.566406 27.792969 74.390625 C 27.289062 74.300781 26.914062 73.972656 26.511719 73.703125 C 23.707031 71.832031 21.183594 69.644531 19.023438 67.054688 C 16.164062 63.632812 14.140625 59.785156 13.070312 55.453125 C 13.050781 55.375 13.039062 55.296875 13.011719 55.160156 C 13.101562 55.238281 13.15625 55.28125 13.203125 55.328125 C 15.414062 57.59375 17.949219 59.425781 20.726562 60.933594 C 23.34375 62.355469 26.089844 63.460938 28.9375 64.335938 C 31.546875 65.136719 34.199219 65.734375 36.894531 66.171875 C 42.066406 67.007812 47.269531 67.265625 52.5 67.007812 C 55.109375 66.875 57.707031 66.617188 60.292969 66.222656 C 63.203125 65.777344 66.070312 65.152344 68.886719 64.292969 C 72.078125 63.320312 75.171875 62.113281 78.042969 60.394531 C 79.871094 59.300781 81.5625 58.03125 83.054688 56.488281 C 83.078125 56.488281 83.09375 56.5 83.09375 56.5 M 57.148438 69.894531 C 56.96875 70.417969 56.945312 70.960938 56.984375 71.507812 C 57.019531 71.976562 57.128906 72.425781 57.421875 72.808594 C 57.890625 73.414062 58.949219 73.65625 59.777344 73.355469 C 60.113281 73.234375 60.386719 73.035156 60.558594 72.726562 C 60.882812 72.148438 60.902344 71.554688 60.554688 70.984375 C 60.230469 70.457031 59.730469 70.226562 59.117188 70.316406 C 58.859375 70.355469 58.621094 70.484375 58.359375 70.578125 C 58.367188 70.5 58.371094 70.410156 58.382812 70.324219 C 58.40625 70.207031 58.429688 70.085938 58.46875 69.96875 C 58.558594 69.691406 58.71875 69.566406 58.953125 69.566406 C 59.214844 69.566406 59.296875 69.746094 59.359375 69.949219 C 59.367188 69.972656 59.382812 69.992188 59.40625 70.035156 C 59.832031 69.984375 60.261719 69.929688 60.695312 69.878906 C 60.519531 69.171875 60.105469 68.835938 59.316406 68.726562 C 58.304688 68.585938 57.527344 68.992188 57.148438 69.894531 M 48.425781 71.757812 C 48.535156 71.691406 48.648438 71.628906 48.808594 71.535156 C 48.753906 71.796875 48.726562 72.023438 48.660156 72.238281 C 48.59375 72.449219 48.449219 72.605469 48.203125 72.613281 C 47.96875 72.621094 47.851562 72.480469 47.789062 72.273438 C 47.773438 72.222656 47.703125 72.152344 47.667969 72.15625 C 47.257812 72.199219 46.847656 72.253906 46.433594 72.308594 C 46.632812 73.003906 47.078125 73.382812 47.75 73.441406 C 48.003906 73.464844 48.257812 73.472656 48.507812 73.441406 C 49.183594 73.359375 49.695312 73.027344 49.941406 72.378906 C 50.25 71.558594 50.25 70.71875 49.984375 69.890625 C 49.820312 69.382812 49.488281 68.988281 48.953125 68.824219 C 48.46875 68.679688 47.972656 68.660156 47.476562 68.785156 C 46.613281 69.003906 46.128906 69.9375 46.410156 70.835938 C 46.675781 71.683594 47.542969 72.09375 48.425781 71.757812 M 61.078125 71.5 C 61.078125 71.84375 61.078125 72.1875 61.078125 72.558594 C 61.863281 72.558594 62.613281 72.558594 63.386719 72.558594 C 63.386719 72.851562 63.386719 73.113281 63.386719 73.378906 C 63.785156 73.378906 64.15625 73.378906 64.554688 73.378906 C 64.554688 73.101562 64.554688 72.835938 64.554688 72.546875 C 64.757812 72.546875 64.933594 72.546875 65.109375 72.546875 C 65.109375 72.179688 65.109375 71.84375 65.109375 71.5 C 64.917969 71.492188 64.742188 71.484375 64.546875 71.472656 C 64.546875 70.539062 64.546875 69.632812 64.546875 68.703125 C 64.183594 68.703125 63.84375 68.699219 63.503906 68.707031 C 63.441406 68.710938 63.363281 68.753906 63.320312 68.804688 C 62.574219 69.6875 61.832031 70.574219 61.078125 71.5 M 37.210938 70.164062 C 37.246094 70.078125 37.289062 69.996094 37.324219 69.910156 C 37.417969 69.652344 37.601562 69.539062 37.875 69.582031 C 38.097656 69.613281 38.195312 69.757812 38.199219 69.96875 C 38.207031 70.214844 38.03125 70.425781 37.78125 70.464844 C 37.6875 70.480469 37.589844 70.476562 37.46875 70.480469 C 37.445312 70.800781 37.421875 71.109375 37.398438 71.429688 C 38.074219 71.324219 38.296875 71.410156 38.386719 71.789062 C 38.472656 72.144531 38.324219 72.496094 38.050781 72.59375 C 37.699219 72.714844 37.507812 72.570312 37.226562 71.953125 C 36.804688 72.011719 36.375 72.066406 35.941406 72.125 C 36.042969 72.738281 36.511719 73.28125 37.105469 73.375 C 37.550781 73.449219 38.019531 73.464844 38.464844 73.410156 C 39.070312 73.335938 39.488281 72.972656 39.6875 72.386719 C 39.882812 71.816406 39.714844 71.25 39.269531 70.980469 C 39.179688 70.925781 39.085938 70.886719 38.972656 70.828125 C 39.417969 70.539062 39.609375 70.148438 39.496094 69.644531 C 39.390625 69.183594 39.0625 68.921875 38.628906 68.808594 C 38.089844 68.664062 37.546875 68.664062 37.007812 68.8125 C 36.488281 68.960938 36.078125 69.429688 36.019531 69.957031 C 36.402344 70.023438 36.785156 70.09375 37.210938 70.164062 M 32.746094 69.609375 C 32.546875 69.699219 32.34375 69.785156 32.144531 69.882812 C 32.085938 69.910156 32 69.96875 32 70.015625 C 31.984375 70.347656 31.992188 70.683594 31.992188 71.089844 C 32.46875 70.867188 32.878906 70.679688 33.3125 70.476562 C 33.3125 71.4375 33.3125 72.402344 33.3125 73.375 C 33.785156 73.375 34.21875 73.375 34.65625 73.375 C 34.65625 71.816406 34.65625 70.273438 34.65625 68.703125 C 34.34375 68.703125 34.042969 68.691406 33.746094 68.710938 C 33.65625 68.71875 33.554688 68.796875 33.484375 68.867188 C 33.242188 69.101562 33.011719 69.351562 32.746094 69.609375 M 41.898438 73.421875 C 42.058594 73.421875 42.226562 73.410156 42.386719 73.429688 C 42.570312 73.445312 42.660156 73.382812 42.738281 73.210938 C 43.097656 72.402344 43.472656 71.601562 43.839844 70.792969 C 44.066406 70.300781 44.289062 69.808594 44.523438 69.28125 C 44.3125 69.28125 44.132812 69.296875 43.957031 69.277344 C 43.738281 69.25 43.648438 69.355469 43.566406 69.539062 C 43.027344 70.746094 42.476562 71.953125 41.929688 73.160156 C 41.894531 73.238281 41.882812 73.324219 41.898438 73.421875 M 54.523438 72.089844 C 54.523438 71.792969 54.523438 71.496094 54.523438 71.191406 C 53.875 71.191406 53.253906 71.191406 52.625 71.191406 C 52.625 71.542969 52.625 71.875 52.625 72.222656 C 53.222656 72.222656 53.800781 72.222656 54.378906 72.21875 C 54.425781 72.21875 54.472656 72.164062 54.523438 72.089844 Z M 54.523438 72.089844 "/>
<path style=" stroke:none;fill-rule:nonzero;fill:rgb(1.960784%,53.333336%,9.803922%);fill-opacity:1;" d="M 48.183594 7.179688 C 48.183594 11.277344 48.183594 15.351562 48.183594 19.453125 C 48.082031 19.457031 47.964844 19.46875 47.84375 19.46875 C 43.679688 19.425781 39.515625 19.40625 35.351562 19.328125 C 33.074219 19.285156 30.796875 19.136719 28.523438 19.035156 C 28.367188 19.03125 28.214844 18.996094 28.058594 18.996094 C 27.882812 19 27.785156 18.921875 27.695312 18.773438 C 26.796875 17.324219 25.816406 15.9375 24.683594 14.660156 C 24.121094 14.03125 23.488281 13.464844 22.863281 12.84375 C 30.304688 7.1875 38.773438 4.378906 48.183594 4.230469 C 48.183594 5.222656 48.183594 6.1875 48.183594 7.179688 Z M 48.183594 7.179688 "/>
<path style=" stroke:none;fill-rule:nonzero;fill:rgb(1.960784%,53.333336%,9.803922%);fill-opacity:1;" d="M 54.265625 19.398438 C 52.753906 19.398438 51.265625 19.398438 49.742188 19.398438 C 49.742188 14.390625 49.742188 9.335938 49.742188 4.242188 C 58.808594 4.503906 66.972656 7.371094 74.34375 12.660156 C 73.089844 13.566406 72.097656 14.675781 71.171875 15.847656 C 70.445312 16.765625 69.769531 17.726562 69.09375 18.683594 C 68.945312 18.890625 68.800781 18.984375 68.546875 18.992188 C 65.425781 19.089844 62.308594 19.207031 59.191406 19.304688 C 57.558594 19.351562 55.921875 19.367188 54.265625 19.398438 Z M 54.265625 19.398438 "/>
<path style=" stroke:none;fill-rule:nonzero;fill:rgb(1.960784%,53.333336%,9.803922%);fill-opacity:1;" d="M 39.757812 89.699219 C 33.507812 88.378906 27.851562 85.820312 22.78125 81.953125 C 23.074219 81.695312 23.367188 81.46875 23.636719 81.210938 C 24.90625 79.992188 25.945312 78.585938 26.933594 77.136719 C 27.164062 76.792969 27.390625 76.441406 27.605469 76.089844 C 27.683594 75.960938 27.761719 75.917969 27.917969 75.949219 C 30.449219 76.480469 33.011719 76.769531 35.578125 77.007812 C 39.226562 77.347656 42.878906 77.492188 46.539062 77.511719 C 47.078125 77.515625 47.617188 77.515625 48.164062 77.515625 C 48.175781 77.566406 48.191406 77.601562 48.191406 77.640625 C 48.203125 81.851562 48.210938 86.066406 48.222656 90.28125 C 48.222656 90.304688 48.21875 90.332031 48.222656 90.355469 C 48.265625 90.589844 48.140625 90.621094 47.941406 90.609375 C 46.808594 90.542969 45.667969 90.539062 44.546875 90.40625 C 42.949219 90.222656 41.367188 89.941406 39.757812 89.699219 Z M 39.757812 89.699219 "/>
<path style=" stroke:none;fill-rule:nonzero;fill:rgb(1.960784%,53.333336%,9.803922%);fill-opacity:1;" d="M 67.253906 75.925781 C 67.8125 75.820312 68.347656 75.710938 68.886719 75.621094 C 68.949219 75.613281 69.0625 75.683594 69.097656 75.746094 C 69.617188 76.644531 70.121094 77.558594 70.644531 78.457031 C 71.441406 79.832031 72.296875 81.167969 73.390625 82.332031 C 73.480469 82.425781 73.589844 82.496094 73.730469 82.609375 C 66.496094 87.671875 58.535156 90.308594 49.71875 90.601562 C 49.71875 86.226562 49.71875 81.882812 49.71875 77.515625 C 49.792969 77.511719 49.863281 77.503906 49.933594 77.5 C 52.277344 77.394531 54.621094 77.332031 56.957031 77.179688 C 60.0625 76.976562 63.148438 76.613281 66.21875 76.09375 C 66.554688 76.035156 66.894531 75.984375 67.253906 75.925781 Z M 67.253906 75.925781 "/>
<path style=" stroke:none;fill-rule:nonzero;fill:rgb(1.960784%,53.333336%,9.803922%);fill-opacity:1;" d="M 81.71875 63.480469 C 84.582031 58.554688 85.878906 53.238281 85.878906 47.550781 C 87.894531 47.550781 89.890625 47.550781 91.929688 47.550781 C 91.914062 53.5625 90.695312 59.332031 88.253906 64.839844 C 85.261719 71.585938 80.8125 77.199219 74.902344 81.742188 C 74.503906 81.296875 74.097656 80.886719 73.742188 80.4375 C 72.769531 79.195312 72.003906 77.824219 71.238281 76.453125 C 70.972656 75.976562 70.707031 75.503906 70.433594 75.015625 C 75.039062 71.984375 78.90625 68.253906 81.71875 63.480469 Z M 81.71875 63.480469 "/>
<path style=" stroke:none;fill-rule:nonzero;fill:rgb(1.960784%,53.333336%,9.803922%);fill-opacity:1;" d="M 90.925781 38.148438 C 91.488281 40.746094 91.816406 43.355469 91.90625 46.023438 C 89.871094 46.023438 87.863281 46.023438 85.828125 46.023438 C 85.800781 45.695312 85.773438 45.347656 85.742188 45.003906 C 85.597656 43.152344 85.28125 41.328125 84.832031 39.523438 C 84.136719 36.746094 83.125 34.085938 81.804688 31.539062 C 80.71875 29.445312 79.433594 27.480469 77.925781 25.664062 C 76.265625 23.664062 74.394531 21.898438 72.246094 20.425781 C 71.722656 20.066406 71.171875 19.746094 70.632812 19.410156 C 70.585938 19.378906 70.539062 19.347656 70.457031 19.292969 C 70.988281 18.578125 71.492188 17.859375 72.035156 17.171875 C 72.871094 16.109375 73.734375 15.066406 74.800781 14.214844 C 74.996094 14.054688 75.210938 13.921875 75.410156 13.765625 C 75.558594 13.652344 75.671875 13.667969 75.8125 13.792969 C 76.75 14.625 77.730469 15.414062 78.632812 16.28125 C 82.941406 20.414062 86.257812 25.226562 88.578125 30.722656 C 89.5625 33.058594 90.320312 35.464844 90.878906 37.9375 C 90.890625 38 90.90625 38.0625 90.925781 38.148438 Z M 90.925781 38.148438 "/>
<path style=" stroke:none;fill-rule:nonzero;fill:rgb(2.352941%,53.333336%,9.803922%);fill-opacity:1;" d="M 19.242188 15.945312 C 19.957031 15.300781 20.664062 14.675781 21.363281 14.039062 C 21.507812 13.90625 21.609375 13.917969 21.761719 14.015625 C 22.554688 14.539062 23.226562 15.195312 23.796875 15.941406 C 24.617188 17.011719 25.394531 18.117188 26.191406 19.207031 C 26.234375 19.265625 26.261719 19.335938 26.304688 19.414062 C 25.988281 19.597656 25.675781 19.769531 25.371094 19.957031 C 22.632812 21.613281 20.328125 23.757812 18.335938 26.246094 C 16.136719 28.988281 14.410156 32.007812 13.128906 35.28125 C 12.023438 38.109375 11.273438 41.03125 10.925781 44.054688 C 10.839844 44.8125 10.792969 45.574219 10.726562 46.335938 C 10.71875 46.425781 10.710938 46.511719 10.699219 46.628906 C 9.148438 46.628906 7.613281 46.628906 6.039062 46.628906 C 6.128906 40.867188 7.296875 35.316406 9.566406 29.996094 C 11.839844 24.671875 15.042969 19.976562 19.242188 15.945312 Z M 19.242188 15.945312 "/>
<path style=" stroke:none;fill-rule:nonzero;fill:rgb(2.352941%,53.333336%,9.803922%);fill-opacity:1;" d="M 18.886719 78.550781 C 10.519531 70.136719 6.394531 59.960938 6.015625 48.15625 C 7.59375 48.15625 9.117188 48.15625 10.699219 48.15625 C 10.699219 48.554688 10.6875 48.964844 10.703125 49.378906 C 10.917969 54.890625 12.449219 60 15.417969 64.671875 C 17.390625 67.769531 19.816406 70.464844 22.691406 72.75 C 23.800781 73.632812 24.980469 74.425781 26.125 75.257812 C 26.171875 75.292969 26.214844 75.324219 26.289062 75.378906 C 25.980469 75.84375 25.6875 76.3125 25.371094 76.761719 C 24.546875 77.9375 23.691406 79.085938 22.644531 80.078125 C 22.359375 80.34375 22.03125 80.5625 21.730469 80.8125 C 21.582031 80.9375 21.472656 80.914062 21.335938 80.785156 C 20.527344 80.042969 19.710938 79.304688 18.886719 78.550781 Z M 18.886719 78.550781 "/>
<path style=" stroke:none;fill-rule:nonzero;fill:rgb(1.960784%,53.333336%,9.803922%);fill-opacity:1;" d="M 13.351562 39.617188 C 13.339844 39.640625 13.320312 39.65625 13.300781 39.671875 C 13.300781 39.652344 13.300781 39.628906 13.3125 39.601562 C 13.328125 39.59375 13.34375 39.609375 13.351562 39.617188 Z M 13.351562 39.617188 "/>
<path style=" stroke:none;fill-rule:nonzero;fill:rgb(2.352941%,53.333336%,9.803922%);fill-opacity:1;" d="M 83.070312 56.480469 C 83.082031 56.457031 83.101562 56.4375 83.121094 56.421875 C 83.121094 56.441406 83.121094 56.464844 83.105469 56.492188 C 83.09375 56.5 83.078125 56.488281 83.070312 56.480469 Z M 83.070312 56.480469 "/>
<path style=" stroke:none;fill-rule:nonzero;fill:rgb(1.960784%,53.333336%,9.803922%);fill-opacity:1;" d="M 83.28125 39.652344 C 83.296875 39.660156 83.300781 39.671875 83.308594 39.6875 C 83.296875 39.6875 83.285156 39.691406 83.265625 39.683594 C 83.261719 39.671875 83.273438 39.660156 83.28125 39.652344 Z M 83.28125 39.652344 "/>
<path style=" stroke:none;fill-rule:nonzero;fill:rgb(96.078432%,98.039216%,96.470588%);fill-opacity:1;" d="M 72.214844 42.097656 C 73.699219 41.554688 75.023438 41.722656 76.171875 42.921875 C 76.171875 42.597656 76.171875 42.3125 76.171875 42.011719 C 76.65625 42.011719 77.109375 42.011719 77.582031 42.011719 C 77.585938 42.085938 77.597656 42.15625 77.597656 42.226562 C 77.597656 44.714844 77.605469 47.203125 77.589844 49.695312 C 77.585938 50.253906 77.527344 50.816406 77.445312 51.371094 C 77.269531 52.578125 76.550781 53.382812 75.417969 53.777344 C 74.121094 54.226562 72.8125 54.210938 71.558594 53.597656 C 70.652344 53.152344 70.140625 52.183594 70.285156 51.207031 C 70.730469 51.265625 71.179688 51.320312 71.628906 51.390625 C 71.679688 51.398438 71.75 51.484375 71.757812 51.542969 C 71.890625 52.367188 72.476562 52.683594 73.207031 52.75 C 73.671875 52.789062 74.160156 52.757812 74.613281 52.660156 C 75.386719 52.488281 75.828125 51.933594 75.957031 51.175781 C 76.042969 50.671875 76.027344 50.148438 76.058594 49.621094 C 75.710938 49.863281 75.417969 50.113281 75.082031 50.285156 C 73.703125 50.988281 71.847656 50.535156 70.925781 49.292969 C 70.175781 48.277344 69.910156 47.128906 69.984375 45.886719 C 70.039062 44.96875 70.261719 44.105469 70.773438 43.328125 C 71.128906 42.785156 71.601562 42.375 72.214844 42.097656 M 71.542969 46.300781 C 71.621094 46.804688 71.644531 47.324219 71.789062 47.808594 C 72.0625 48.734375 72.855469 49.300781 73.789062 49.320312 C 74.75 49.34375 75.558594 48.820312 75.886719 47.902344 C 76.273438 46.828125 76.277344 45.730469 75.925781 44.648438 C 75.617188 43.710938 74.8125 43.117188 73.890625 43.078125 C 73.019531 43.042969 72.222656 43.570312 71.832031 44.464844 C 71.582031 45.035156 71.542969 45.644531 71.542969 46.300781 Z M 71.542969 46.300781 "/>
<path style=" stroke:none;fill-rule:nonzero;fill:rgb(96.862745%,98.431373%,96.862745%);fill-opacity:1;" d="M 29.882812 39.238281 C 29.941406 39.179688 29.996094 39.121094 30.078125 39.050781 C 30.113281 39.023438 30.121094 39.007812 30.128906 38.996094 C 30.265625 38.792969 30.457031 38.742188 30.695312 38.75 C 31.21875 38.765625 31.742188 38.753906 32.265625 38.753906 C 32.351562 38.753906 32.4375 38.765625 32.578125 38.773438 C 30.894531 40.394531 29.246094 41.976562 27.59375 43.566406 C 29.324219 45.902344 31.039062 48.222656 32.792969 50.601562 C 32.515625 50.601562 32.300781 50.601562 32.085938 50.601562 C 31.675781 50.601562 31.269531 50.59375 30.859375 50.601562 C 30.695312 50.609375 30.59375 50.554688 30.5 50.417969 C 29.195312 48.5625 27.882812 46.707031 26.570312 44.851562 C 26.535156 44.800781 26.496094 44.75 26.4375 44.671875 C 25.820312 45.269531 25.207031 45.863281 24.574219 46.472656 C 24.542969 46.496094 24.542969 46.503906 24.550781 46.515625 C 24.550781 46.515625 24.554688 46.523438 24.542969 46.53125 C 24.53125 46.546875 24.523438 46.550781 24.527344 46.554688 C 24.53125 46.566406 24.539062 46.574219 24.546875 46.585938 C 24.546875 47.867188 24.550781 49.152344 24.53125 50.464844 C 24.480469 50.523438 24.445312 50.558594 24.410156 50.59375 C 24.148438 50.59375 23.886719 50.597656 23.59375 50.585938 C 23.535156 50.582031 23.507812 50.585938 23.480469 50.59375 C 23.429688 50.59375 23.375 50.597656 23.292969 50.585938 C 23.222656 50.578125 23.179688 50.585938 23.136719 50.589844 C 23.117188 50.59375 23.09375 50.59375 23.046875 50.582031 C 22.988281 50.523438 22.949219 50.480469 22.914062 50.433594 C 22.910156 47.679688 22.910156 44.921875 22.90625 42.164062 C 22.90625 41.164062 22.90625 40.164062 22.925781 39.132812 C 22.972656 38.988281 23.007812 38.875 23.039062 38.761719 C 23.089844 38.757812 23.144531 38.757812 23.226562 38.769531 C 23.332031 38.777344 23.40625 38.769531 23.480469 38.761719 C 23.515625 38.757812 23.554688 38.757812 23.625 38.769531 C 23.792969 38.792969 23.929688 38.792969 24.0625 38.808594 C 24.222656 38.824219 24.382812 38.851562 24.542969 38.875 C 24.546875 40.710938 24.546875 42.550781 24.539062 44.421875 C 24.542969 44.476562 24.558594 44.496094 24.570312 44.519531 C 24.585938 44.503906 24.601562 44.488281 24.617188 44.472656 C 24.6875 44.402344 24.757812 44.332031 24.855469 44.25 C 24.902344 44.214844 24.914062 44.191406 24.929688 44.167969 C 24.929688 44.167969 24.9375 44.152344 24.960938 44.144531 C 25.007812 44.109375 25.027344 44.078125 25.050781 44.046875 C 25.050781 44.046875 25.050781 44.042969 25.066406 44.042969 C 25.105469 44.011719 25.128906 43.980469 25.148438 43.949219 C 25.183594 43.914062 25.214844 43.878906 25.273438 43.832031 C 25.316406 43.800781 25.332031 43.777344 25.34375 43.753906 C 25.34375 43.753906 25.34375 43.75 25.359375 43.75 C 25.398438 43.71875 25.421875 43.6875 25.441406 43.65625 C 25.441406 43.65625 25.453125 43.640625 25.472656 43.636719 C 25.503906 43.613281 25.511719 43.597656 25.519531 43.585938 C 25.78125 43.320312 26.042969 43.058594 26.332031 42.785156 C 26.378906 42.742188 26.402344 42.710938 26.425781 42.679688 C 26.449219 42.652344 26.472656 42.625 26.527344 42.585938 C 26.566406 42.554688 26.582031 42.53125 26.597656 42.507812 C 26.648438 42.457031 26.695312 42.40625 26.773438 42.34375 C 26.832031 42.296875 26.859375 42.257812 26.890625 42.21875 C 26.890625 42.21875 26.890625 42.214844 26.90625 42.214844 C 26.933594 42.203125 26.9375 42.191406 26.933594 42.171875 C 26.933594 42.171875 26.9375 42.164062 26.953125 42.160156 C 26.976562 42.144531 26.984375 42.132812 26.988281 42.117188 C 26.996094 42.105469 27.007812 42.09375 27.042969 42.074219 C 27.074219 42.050781 27.082031 42.039062 27.089844 42.023438 C 27.113281 41.996094 27.140625 41.96875 27.1875 41.933594 C 27.214844 41.910156 27.222656 41.894531 27.230469 41.878906 C 27.230469 41.878906 27.230469 41.871094 27.246094 41.871094 C 27.277344 41.859375 27.285156 41.847656 27.277344 41.832031 C 27.277344 41.832031 27.28125 41.824219 27.296875 41.824219 C 27.324219 41.8125 27.332031 41.800781 27.324219 41.78125 C 27.324219 41.78125 27.328125 41.773438 27.34375 41.773438 C 27.375 41.75 27.390625 41.726562 27.40625 41.707031 C 27.550781 41.558594 27.699219 41.40625 27.871094 41.25 C 27.90625 41.222656 27.914062 41.207031 27.921875 41.191406 C 28.140625 40.972656 28.363281 40.75 28.609375 40.519531 C 28.644531 40.492188 28.652344 40.476562 28.660156 40.460938 C 28.660156 40.460938 28.667969 40.445312 28.691406 40.4375 C 28.726562 40.410156 28.738281 40.386719 28.753906 40.363281 C 28.753906 40.363281 28.753906 40.359375 28.769531 40.359375 C 28.796875 40.347656 28.804688 40.335938 28.796875 40.316406 C 28.796875 40.316406 28.800781 40.308594 28.816406 40.308594 C 28.847656 40.296875 28.851562 40.285156 28.847656 40.269531 C 28.847656 40.269531 28.851562 40.261719 28.867188 40.257812 C 28.886719 40.242188 28.894531 40.230469 28.902344 40.214844 C 28.925781 40.1875 28.953125 40.164062 29.003906 40.125 C 29.035156 40.101562 29.046875 40.085938 29.054688 40.070312 C 29.09375 40.027344 29.132812 39.984375 29.195312 39.929688 C 29.230469 39.90625 29.242188 39.890625 29.25 39.875 C 29.265625 39.855469 29.28125 39.835938 29.324219 39.804688 C 29.359375 39.773438 29.375 39.75 29.390625 39.730469 C 29.390625 39.730469 29.390625 39.722656 29.40625 39.722656 C 29.429688 39.707031 29.4375 39.691406 29.445312 39.679688 C 29.515625 39.605469 29.589844 39.527344 29.6875 39.441406 C 29.71875 39.414062 29.726562 39.398438 29.734375 39.386719 C 29.761719 39.359375 29.785156 39.332031 29.835938 39.296875 C 29.871094 39.269531 29.875 39.253906 29.882812 39.238281 Z M 29.882812 39.238281 "/>
<path style=" stroke:none;fill-rule:nonzero;fill:rgb(96.470588%,98.431373%,96.470588%);fill-opacity:1;" d="M 47.351562 50.601562 C 47.117188 50.601562 46.90625 50.601562 46.671875 50.601562 C 46.671875 46.648438 46.671875 42.71875 46.671875 38.769531 C 47.171875 38.769531 47.664062 38.769531 48.183594 38.769531 C 48.183594 40.125 48.183594 41.460938 48.183594 42.847656 C 48.253906 42.78125 48.292969 42.757812 48.320312 42.722656 C 49.714844 41.195312 52.414062 41.683594 53.40625 43.351562 C 54.191406 44.675781 54.296875 46.097656 54.019531 47.574219 C 53.796875 48.757812 53.195312 49.703125 52.144531 50.335938 C 50.96875 51.046875 49.425781 50.933594 48.472656 50.066406 C 48.347656 49.953125 48.238281 49.824219 48.082031 49.65625 C 48.082031 49.992188 48.082031 50.277344 48.082031 50.601562 C 47.828125 50.601562 47.601562 50.601562 47.351562 50.601562 M 48.132812 45.292969 C 48.011719 46.203125 48.007812 47.113281 48.28125 48 C 48.550781 48.867188 49.292969 49.460938 50.128906 49.519531 C 50.992188 49.578125 51.824219 49.101562 52.195312 48.269531 C 52.757812 46.996094 52.75 45.683594 52.257812 44.398438 C 51.972656 43.65625 51.394531 43.175781 50.566406 43.085938 C 49.738281 42.996094 49.117188 43.371094 48.640625 44.015625 C 48.367188 44.386719 48.226562 44.808594 48.132812 45.292969 Z M 48.132812 45.292969 "/>
<path style=" stroke:none;fill-rule:nonzero;fill:rgb(96.078432%,98.039216%,96.470588%);fill-opacity:1;" d="M 62.015625 47.8125 C 62.445312 47.867188 62.855469 47.917969 63.292969 47.972656 C 62.992188 49.074219 62.421875 49.949219 61.378906 50.402344 C 59.996094 51.003906 58.59375 50.972656 57.253906 50.242188 C 56.429688 49.796875 55.894531 49.078125 55.628906 48.183594 C 55.21875 46.792969 55.226562 45.398438 55.804688 44.054688 C 56.328125 42.835938 57.28125 42.101562 58.589844 41.878906 C 59.980469 41.640625 61.242188 41.925781 62.242188 42.992188 C 62.984375 43.785156 63.253906 44.773438 63.316406 45.828125 C 63.335938 46.109375 63.320312 46.394531 63.320312 46.707031 C 61.191406 46.707031 59.082031 46.707031 56.945312 46.707031 C 57.015625 47.695312 57.273438 48.558594 58.113281 49.117188 C 58.894531 49.636719 59.738281 49.675781 60.582031 49.269531 C 61.089844 49.019531 61.382812 48.566406 61.605469 48.066406 C 61.644531 47.976562 61.683594 47.886719 61.722656 47.789062 C 61.820312 47.796875 61.90625 47.800781 62.015625 47.8125 M 61.128906 43.824219 C 60.316406 42.902344 59.109375 42.960938 58.417969 43.273438 C 57.585938 43.652344 56.984375 44.601562 57.050781 45.429688 C 58.601562 45.429688 60.152344 45.429688 61.71875 45.429688 C 61.652344 44.839844 61.527344 44.300781 61.128906 43.824219 Z M 61.128906 43.824219 "/>
<path style=" stroke:none;fill-rule:nonzero;fill:rgb(96.862745%,98.431373%,96.862745%);fill-opacity:1;" d="M 48.824219 62.105469 C 47.871094 62.105469 46.941406 62.105469 45.996094 62.105469 C 45.996094 59.460938 45.996094 56.835938 45.996094 54.183594 C 46.113281 54.183594 46.214844 54.183594 46.320312 54.183594 C 47.488281 54.1875 48.65625 54.171875 49.824219 54.207031 C 50.261719 54.21875 50.730469 54.285156 51.128906 54.449219 C 51.847656 54.75 52.242188 55.34375 52.273438 56.128906 C 52.300781 56.851562 51.988281 57.414062 51.386719 57.820312 C 51.359375 57.839844 51.332031 57.855469 51.335938 57.855469 C 51.617188 58.066406 51.949219 58.242188 52.1875 58.5 C 52.734375 59.101562 52.78125 59.828125 52.535156 60.558594 C 52.261719 61.371094 51.695312 61.90625 50.828125 62.015625 C 50.175781 62.097656 49.507812 62.078125 48.824219 62.105469 M 48.992188 58.707031 C 48.554688 58.707031 48.117188 58.707031 47.667969 58.707031 C 47.667969 59.382812 47.667969 60.027344 47.667969 60.726562 C 48.535156 60.703125 49.390625 60.707031 50.238281 60.636719 C 50.695312 60.597656 50.945312 60.195312 50.9375 59.695312 C 50.929688 59.214844 50.671875 58.867188 50.207031 58.796875 C 49.824219 58.734375 49.429688 58.734375 48.992188 58.707031 M 50.488281 55.890625 C 50.304688 55.660156 50.046875 55.597656 49.769531 55.589844 C 49.25 55.578125 48.726562 55.574219 48.207031 55.570312 C 48.03125 55.566406 47.851562 55.570312 47.671875 55.570312 C 47.671875 56.164062 47.671875 56.726562 47.671875 57.292969 C 47.734375 57.296875 47.773438 57.304688 47.8125 57.304688 C 48.457031 57.296875 49.101562 57.304688 49.746094 57.277344 C 50.519531 57.246094 50.871094 56.613281 50.488281 55.890625 Z M 50.488281 55.890625 "/>
<path style=" stroke:none;fill-rule:nonzero;fill:rgb(96.078432%,98.039216%,96.470588%);fill-opacity:1;" d="M 37.867188 50.765625 C 37.136719 50.835938 36.441406 50.789062 35.769531 50.539062 C 34.859375 50.199219 34.152344 49.609375 33.757812 48.722656 C 33.082031 47.203125 33.0625 45.632812 33.664062 44.09375 C 34.199219 42.71875 35.3125 42.007812 36.757812 41.84375 C 38.246094 41.671875 39.542969 42.070312 40.503906 43.285156 C 40.917969 43.804688 41.15625 44.410156 41.265625 45.058594 C 41.433594 46.050781 41.417969 47.042969 41.15625 48.011719 C 40.734375 49.550781 39.664062 50.398438 38.132812 50.722656 C 38.050781 50.738281 37.972656 50.75 37.867188 50.765625 M 39.359375 44.273438 C 38.851562 43.4375 38.117188 43.023438 37.132812 43.089844 C 36.144531 43.160156 35.453125 43.691406 35.117188 44.59375 C 34.695312 45.726562 34.695312 46.902344 35.128906 48.03125 C 35.484375 48.953125 36.195312 49.476562 37.203125 49.523438 C 38.210938 49.566406 38.996094 49.132812 39.398438 48.226562 C 39.972656 46.933594 39.964844 45.605469 39.359375 44.273438 Z M 39.359375 44.273438 "/>
<path style=" stroke:none;fill-rule:nonzero;fill:rgb(96.470588%,98.431373%,96.470588%);fill-opacity:1;" d="M 58.679688 54.292969 C 58.746094 54.246094 58.800781 54.1875 58.855469 54.1875 C 59.554688 54.179688 60.253906 54.183594 61.023438 54.183594 C 60.632812 54.585938 60.292969 54.941406 59.953125 55.296875 C 59.367188 55.898438 58.789062 56.503906 58.191406 57.097656 C 58.042969 57.246094 58.054688 57.34375 58.160156 57.503906 C 59.113281 58.953125 60.058594 60.40625 61.007812 61.855469 C 61.050781 61.921875 61.085938 61.996094 61.152344 62.109375 C 61.015625 62.109375 60.914062 62.109375 60.8125 62.109375 C 60.289062 62.109375 59.769531 62.101562 59.246094 62.113281 C 59.078125 62.117188 58.984375 62.0625 58.898438 61.914062 C 58.285156 60.851562 57.660156 59.792969 57.035156 58.734375 C 56.988281 58.652344 56.933594 58.570312 56.863281 58.460938 C 56.632812 58.695312 56.429688 58.941406 56.183594 59.132812 C 55.730469 59.492188 55.554688 59.925781 55.617188 60.503906 C 55.667969 61.019531 55.628906 61.542969 55.628906 62.085938 C 55.074219 62.085938 54.53125 62.085938 53.972656 62.085938 C 53.972656 59.460938 53.972656 56.835938 53.972656 54.195312 C 54.519531 54.195312 55.054688 54.195312 55.621094 54.195312 C 55.621094 55.3125 55.621094 56.417969 55.621094 57.527344 C 55.640625 57.53125 55.660156 57.539062 55.679688 57.546875 C 56.675781 56.464844 57.671875 55.386719 58.679688 54.292969 Z M 58.679688 54.292969 "/>
<path style=" stroke:none;fill-rule:nonzero;fill:rgb(96.470588%,98.431373%,96.470588%);fill-opacity:1;" d="M 43.660156 54.183594 C 44.195312 54.179688 44.707031 54.179688 45.261719 54.179688 C 45.109375 54.605469 44.972656 54.992188 44.835938 55.378906 C 44.097656 57.417969 43.363281 59.460938 42.628906 61.5 C 42.40625 62.109375 42.402344 62.109375 41.742188 62.109375 C 41.449219 62.109375 41.152344 62.097656 40.859375 62.113281 C 40.699219 62.121094 40.636719 62.054688 40.585938 61.914062 C 40.085938 60.511719 39.582031 59.113281 39.078125 57.714844 C 38.679688 56.601562 38.28125 55.484375 37.882812 54.367188 C 37.867188 54.320312 37.855469 54.273438 37.828125 54.179688 C 38.113281 54.179688 38.378906 54.179688 38.644531 54.179688 C 38.863281 54.179688 39.085938 54.207031 39.304688 54.175781 C 39.582031 54.136719 39.664062 54.28125 39.738281 54.5 C 40.316406 56.210938 40.902344 57.917969 41.488281 59.621094 C 41.511719 59.691406 41.542969 59.753906 41.59375 59.875 C 41.78125 59.320312 41.949219 58.820312 42.117188 58.316406 C 42.554688 57.007812 42.988281 55.695312 43.421875 54.386719 C 43.457031 54.273438 43.480469 54.160156 43.660156 54.183594 Z M 43.660156 54.183594 "/>
<path style=" stroke:none;fill-rule:nonzero;fill:rgb(96.470588%,98.431373%,96.470588%);fill-opacity:1;" d="M 44.484375 43.117188 C 44.484375 45.617188 44.484375 48.097656 44.484375 50.597656 C 44 50.597656 43.546875 50.601562 43.089844 50.59375 C 43.042969 50.59375 42.984375 50.519531 42.960938 50.464844 C 42.9375 50.417969 42.953125 50.355469 42.953125 50.296875 C 42.953125 46.53125 42.953125 42.765625 42.953125 39 C 42.953125 38.929688 42.960938 38.859375 42.964844 38.769531 C 43.464844 38.769531 43.949219 38.769531 44.484375 38.769531 C 44.484375 40.207031 44.484375 41.648438 44.484375 43.117188 Z M 44.484375 43.117188 "/>
<path style=" stroke:none;fill-rule:nonzero;fill:rgb(96.078432%,98.039216%,96.470588%);fill-opacity:1;" d="M 66.691406 44.761719 C 66.640625 45.265625 66.558594 45.75 66.550781 46.234375 C 66.53125 47.589844 66.542969 48.949219 66.542969 50.304688 C 66.542969 50.394531 66.542969 50.480469 66.542969 50.585938 C 66.023438 50.585938 65.53125 50.585938 65.027344 50.585938 C 65.027344 47.71875 65.027344 44.871094 65.027344 42.007812 C 65.480469 42.007812 65.917969 42.007812 66.386719 42.007812 C 66.386719 42.351562 66.386719 42.695312 66.386719 43.042969 C 66.40625 43.050781 66.421875 43.0625 66.441406 43.070312 C 66.808594 42.535156 67.15625 41.96875 67.863281 41.839844 C 68.546875 41.71875 69.152344 41.933594 69.75 42.289062 C 69.578125 42.753906 69.40625 43.214844 69.238281 43.671875 C 68.972656 43.578125 68.734375 43.464844 68.484375 43.414062 C 67.578125 43.234375 66.910156 43.742188 66.691406 44.761719 Z M 66.691406 44.761719 "/>
<path style=" stroke:none;fill-rule:nonzero;fill:rgb(67.058825%,86.274511%,68.627453%);fill-opacity:1;" d="M 24.550781 38.855469 C 24.382812 38.851562 24.222656 38.824219 24.0625 38.808594 C 23.929688 38.792969 23.792969 38.792969 23.644531 38.773438 C 23.898438 38.753906 24.175781 38.742188 24.449219 38.742188 C 24.484375 38.742188 24.519531 38.804688 24.550781 38.855469 Z M 24.550781 38.855469 "/>
<path style=" stroke:none;fill-rule:nonzero;fill:rgb(67.058825%,86.274511%,68.627453%);fill-opacity:1;" d="M 23.027344 38.753906 C 23.007812 38.875 22.972656 38.988281 22.925781 39.109375 C 22.921875 38.988281 22.785156 38.820312 23.027344 38.753906 Z M 23.027344 38.753906 "/>
<path style=" stroke:none;fill-rule:nonzero;fill:rgb(67.058825%,86.274511%,68.627453%);fill-opacity:1;" d="M 23.46875 38.753906 C 23.40625 38.769531 23.332031 38.777344 23.246094 38.773438 C 23.308594 38.753906 23.378906 38.75 23.46875 38.753906 Z M 23.46875 38.753906 "/>
<path style=" stroke:none;fill-rule:nonzero;fill:rgb(67.058825%,86.274511%,68.627453%);fill-opacity:1;" d="M 22.90625 50.449219 C 22.949219 50.480469 22.988281 50.523438 23.03125 50.578125 C 22.914062 50.636719 22.882812 50.574219 22.90625 50.449219 Z M 22.90625 50.449219 "/>
<path style=" stroke:none;fill-rule:nonzero;fill:rgb(67.058825%,86.274511%,68.627453%);fill-opacity:1;" d="M 24.425781 50.601562 C 24.445312 50.558594 24.480469 50.523438 24.53125 50.484375 C 24.507812 50.523438 24.472656 50.566406 24.425781 50.601562 Z M 24.425781 50.601562 "/>
<path style=" stroke:none;fill-rule:nonzero;fill:rgb(67.058825%,86.274511%,68.627453%);fill-opacity:1;" d="M 23.148438 50.597656 C 23.179688 50.585938 23.222656 50.578125 23.273438 50.582031 C 23.242188 50.597656 23.199219 50.601562 23.148438 50.597656 Z M 23.148438 50.597656 "/>
<path style=" stroke:none;fill-rule:nonzero;fill:rgb(67.058825%,86.274511%,68.627453%);fill-opacity:1;" d="M 26.875 42.222656 C 26.859375 42.257812 26.832031 42.296875 26.785156 42.335938 C 26.800781 42.300781 26.832031 42.261719 26.875 42.222656 Z M 26.875 42.222656 "/>
<path style=" stroke:none;fill-rule:nonzero;fill:rgb(67.058825%,86.274511%,68.627453%);fill-opacity:1;" d="M 23.488281 50.601562 C 23.507812 50.585938 23.535156 50.582031 23.570312 50.585938 C 23.550781 50.597656 23.523438 50.605469 23.488281 50.601562 Z M 23.488281 50.601562 "/>
<path style=" stroke:none;fill-rule:nonzero;fill:rgb(67.058825%,86.274511%,68.627453%);fill-opacity:1;" d="M 25.136719 43.953125 C 25.128906 43.980469 25.105469 44.011719 25.066406 44.042969 C 25.074219 44.015625 25.097656 43.988281 25.136719 43.953125 Z M 25.136719 43.953125 "/>
<path style=" stroke:none;fill-rule:nonzero;fill:rgb(67.058825%,86.274511%,68.627453%);fill-opacity:1;" d="M 25.035156 44.050781 C 25.027344 44.078125 25.007812 44.109375 24.96875 44.140625 C 24.976562 44.113281 25 44.082031 25.035156 44.050781 Z M 25.035156 44.050781 "/>
<path style=" stroke:none;fill-rule:nonzero;fill:rgb(67.058825%,86.274511%,68.627453%);fill-opacity:1;" d="M 24.597656 44.46875 C 24.601562 44.488281 24.585938 44.503906 24.570312 44.519531 C 24.558594 44.496094 24.542969 44.476562 24.539062 44.445312 C 24.558594 44.445312 24.566406 44.453125 24.597656 44.46875 Z M 24.597656 44.46875 "/>
<path style=" stroke:none;fill-rule:nonzero;fill:rgb(67.058825%,86.274511%,68.627453%);fill-opacity:1;" d="M 26.410156 42.683594 C 26.402344 42.710938 26.378906 42.742188 26.34375 42.773438 C 26.351562 42.746094 26.371094 42.714844 26.410156 42.683594 Z M 26.410156 42.683594 "/>
<path style=" stroke:none;fill-rule:nonzero;fill:rgb(67.058825%,86.274511%,68.627453%);fill-opacity:1;" d="M 25.429688 43.660156 C 25.421875 43.6875 25.398438 43.71875 25.359375 43.75 C 25.367188 43.722656 25.390625 43.691406 25.429688 43.660156 Z M 25.429688 43.660156 "/>
<path style=" stroke:none;fill-rule:nonzero;fill:rgb(67.058825%,86.274511%,68.627453%);fill-opacity:1;" d="M 26.582031 42.511719 C 26.582031 42.53125 26.566406 42.554688 26.539062 42.578125 C 26.539062 42.558594 26.554688 42.535156 26.582031 42.511719 Z M 26.582031 42.511719 "/>
<path style=" stroke:none;fill-rule:nonzero;fill:rgb(67.058825%,86.274511%,68.627453%);fill-opacity:1;" d="M 29.375 39.730469 C 29.375 39.75 29.359375 39.773438 29.332031 39.796875 C 29.332031 39.777344 29.347656 39.757812 29.375 39.730469 Z M 29.375 39.730469 "/>
<path style=" stroke:none;fill-rule:nonzero;fill:rgb(67.058825%,86.274511%,68.627453%);fill-opacity:1;" d="M 28.742188 40.367188 C 28.738281 40.386719 28.726562 40.410156 28.699219 40.433594 C 28.699219 40.410156 28.714844 40.390625 28.742188 40.367188 Z M 28.742188 40.367188 "/>
<path style=" stroke:none;fill-rule:nonzero;fill:rgb(67.058825%,86.274511%,68.627453%);fill-opacity:1;" d="M 24.917969 44.171875 C 24.914062 44.191406 24.902344 44.214844 24.871094 44.238281 C 24.871094 44.21875 24.886719 44.195312 24.917969 44.171875 Z M 24.917969 44.171875 "/>
<path style=" stroke:none;fill-rule:nonzero;fill:rgb(67.058825%,86.274511%,68.627453%);fill-opacity:1;" d="M 25.332031 43.757812 C 25.332031 43.777344 25.316406 43.800781 25.285156 43.824219 C 25.285156 43.804688 25.300781 43.78125 25.332031 43.757812 Z M 25.332031 43.757812 "/>
<path style=" stroke:none;fill-rule:nonzero;fill:rgb(67.058825%,86.274511%,68.627453%);fill-opacity:1;" d="M 27.390625 41.707031 C 27.390625 41.726562 27.375 41.75 27.347656 41.773438 C 27.347656 41.75 27.363281 41.730469 27.390625 41.707031 Z M 27.390625 41.707031 "/>
<path style=" stroke:none;fill-rule:nonzero;fill:rgb(67.058825%,86.274511%,68.627453%);fill-opacity:1;" d="M 24.558594 46.515625 C 24.542969 46.503906 24.542969 46.496094 24.5625 46.480469 C 24.578125 46.492188 24.578125 46.503906 24.558594 46.515625 Z M 24.558594 46.515625 "/>
<path style=" stroke:none;fill-rule:nonzero;fill:rgb(67.058825%,86.274511%,68.627453%);fill-opacity:1;" d="M 30.117188 38.996094 C 30.121094 39.007812 30.113281 39.023438 30.089844 39.042969 C 30.085938 39.027344 30.09375 39.015625 30.117188 38.996094 Z M 30.117188 38.996094 "/>
<path style=" stroke:none;fill-rule:nonzero;fill:rgb(67.058825%,86.274511%,68.627453%);fill-opacity:1;" d="M 29.871094 39.242188 C 29.875 39.253906 29.871094 39.269531 29.847656 39.289062 C 29.84375 39.277344 29.851562 39.261719 29.871094 39.242188 Z M 29.871094 39.242188 "/>
<path style=" stroke:none;fill-rule:nonzero;fill:rgb(67.058825%,86.274511%,68.627453%);fill-opacity:1;" d="M 27.078125 42.023438 C 27.082031 42.039062 27.074219 42.050781 27.050781 42.070312 C 27.046875 42.058594 27.054688 42.042969 27.078125 42.023438 Z M 27.078125 42.023438 "/>
<path style=" stroke:none;fill-rule:nonzero;fill:rgb(67.058825%,86.274511%,68.627453%);fill-opacity:1;" d="M 28.644531 40.464844 C 28.652344 40.476562 28.644531 40.492188 28.621094 40.507812 C 28.617188 40.496094 28.625 40.480469 28.644531 40.464844 Z M 28.644531 40.464844 "/>
<path style=" stroke:none;fill-rule:nonzero;fill:rgb(67.058825%,86.274511%,68.627453%);fill-opacity:1;" d="M 27.910156 41.195312 C 27.914062 41.207031 27.90625 41.222656 27.886719 41.238281 C 27.878906 41.226562 27.886719 41.210938 27.910156 41.195312 Z M 27.910156 41.195312 "/>
<path style=" stroke:none;fill-rule:nonzero;fill:rgb(67.058825%,86.274511%,68.627453%);fill-opacity:1;" d="M 27.3125 41.785156 C 27.332031 41.800781 27.324219 41.8125 27.300781 41.820312 C 27.285156 41.804688 27.289062 41.792969 27.3125 41.785156 Z M 27.3125 41.785156 "/>
<path style=" stroke:none;fill-rule:nonzero;fill:rgb(67.058825%,86.274511%,68.627453%);fill-opacity:1;" d="M 28.789062 40.320312 C 28.804688 40.335938 28.796875 40.347656 28.769531 40.359375 C 28.757812 40.34375 28.761719 40.328125 28.789062 40.320312 Z M 28.789062 40.320312 "/>
<path style=" stroke:none;fill-rule:nonzero;fill:rgb(67.058825%,86.274511%,68.627453%);fill-opacity:1;" d="M 28.835938 40.269531 C 28.851562 40.285156 28.847656 40.296875 28.820312 40.308594 C 28.804688 40.292969 28.8125 40.277344 28.835938 40.269531 Z M 28.835938 40.269531 "/>
<path style=" stroke:none;fill-rule:nonzero;fill:rgb(67.058825%,86.274511%,68.627453%);fill-opacity:1;" d="M 27.269531 41.832031 C 27.285156 41.847656 27.277344 41.859375 27.25 41.867188 C 27.238281 41.851562 27.242188 41.839844 27.269531 41.832031 Z M 27.269531 41.832031 "/>
<path style=" stroke:none;fill-rule:nonzero;fill:rgb(67.058825%,86.274511%,68.627453%);fill-opacity:1;" d="M 27.21875 41.882812 C 27.222656 41.894531 27.214844 41.910156 27.199219 41.925781 C 27.183594 41.910156 27.191406 41.894531 27.21875 41.882812 Z M 27.21875 41.882812 "/>
<path style=" stroke:none;fill-rule:nonzero;fill:rgb(67.058825%,86.274511%,68.627453%);fill-opacity:1;" d="M 28.890625 40.21875 C 28.894531 40.230469 28.886719 40.242188 28.871094 40.257812 C 28.855469 40.242188 28.863281 40.230469 28.890625 40.21875 Z M 28.890625 40.21875 "/>
<path style=" stroke:none;fill-rule:nonzero;fill:rgb(67.058825%,86.274511%,68.627453%);fill-opacity:1;" d="M 29.722656 39.386719 C 29.726562 39.398438 29.71875 39.414062 29.699219 39.433594 C 29.695312 39.421875 29.703125 39.40625 29.722656 39.386719 Z M 29.722656 39.386719 "/>
<path style=" stroke:none;fill-rule:nonzero;fill:rgb(67.058825%,86.274511%,68.627453%);fill-opacity:1;" d="M 26.976562 42.121094 C 26.984375 42.132812 26.976562 42.144531 26.957031 42.160156 C 26.941406 42.144531 26.949219 42.128906 26.976562 42.121094 Z M 26.976562 42.121094 "/>
<path style=" stroke:none;fill-rule:nonzero;fill:rgb(67.058825%,86.274511%,68.627453%);fill-opacity:1;" d="M 26.921875 42.175781 C 26.9375 42.191406 26.933594 42.203125 26.90625 42.210938 C 26.894531 42.195312 26.898438 42.183594 26.921875 42.175781 Z M 26.921875 42.175781 "/>
<path style=" stroke:none;fill-rule:nonzero;fill:rgb(67.058825%,86.274511%,68.627453%);fill-opacity:1;" d="M 29.039062 40.074219 C 29.046875 40.085938 29.035156 40.101562 29.015625 40.117188 C 29.011719 40.105469 29.019531 40.089844 29.039062 40.074219 Z M 29.039062 40.074219 "/>
<path style=" stroke:none;fill-rule:nonzero;fill:rgb(67.058825%,86.274511%,68.627453%);fill-opacity:1;" d="M 29.234375 39.878906 C 29.242188 39.890625 29.230469 39.90625 29.207031 39.921875 C 29.203125 39.90625 29.214844 39.894531 29.234375 39.878906 Z M 29.234375 39.878906 "/>
<path style=" stroke:none;fill-rule:nonzero;fill:rgb(67.058825%,86.274511%,68.627453%);fill-opacity:1;" d="M 25.507812 43.585938 C 25.511719 43.597656 25.503906 43.613281 25.480469 43.628906 C 25.476562 43.617188 25.488281 43.601562 25.507812 43.585938 Z M 25.507812 43.585938 "/>
<path style=" stroke:none;fill-rule:nonzero;fill:rgb(67.058825%,86.274511%,68.627453%);fill-opacity:1;" d="M 24.550781 46.570312 C 24.539062 46.574219 24.53125 46.566406 24.527344 46.554688 C 24.523438 46.550781 24.53125 46.546875 24.539062 46.535156 C 24.550781 46.539062 24.554688 46.550781 24.550781 46.570312 Z M 24.550781 46.570312 "/>
<path style=" stroke:none;fill-rule:nonzero;fill:rgb(67.058825%,86.274511%,68.627453%);fill-opacity:1;" d="M 29.433594 39.679688 C 29.4375 39.691406 29.429688 39.707031 29.410156 39.71875 C 29.394531 39.703125 29.402344 39.691406 29.433594 39.679688 Z M 29.433594 39.679688 "/>
<path style=" stroke:none;fill-rule:nonzero;fill:rgb(95.686275%,98.039216%,95.686275%);fill-opacity:1;" d="M 57.15625 69.875 C 57.527344 68.992188 58.304688 68.585938 59.316406 68.726562 C 60.105469 68.835938 60.519531 69.171875 60.695312 69.878906 C 60.261719 69.929688 59.832031 69.984375 59.40625 70.035156 C 59.382812 69.992188 59.367188 69.972656 59.359375 69.949219 C 59.296875 69.746094 59.214844 69.566406 58.953125 69.566406 C 58.71875 69.566406 58.558594 69.691406 58.46875 69.96875 C 58.429688 70.085938 58.40625 70.207031 58.382812 70.324219 C 58.371094 70.410156 58.367188 70.5 58.359375 70.578125 C 58.621094 70.484375 58.859375 70.355469 59.117188 70.316406 C 59.730469 70.226562 60.230469 70.457031 60.554688 70.984375 C 60.902344 71.554688 60.882812 72.148438 60.558594 72.726562 C 60.386719 73.035156 60.113281 73.234375 59.777344 73.355469 C 58.949219 73.65625 57.890625 73.414062 57.421875 72.808594 C 57.128906 72.425781 57.019531 71.976562 56.984375 71.507812 C 56.945312 70.960938 56.96875 70.417969 57.15625 69.875 M 59.5 72.113281 C 59.496094 71.933594 59.515625 71.753906 59.480469 71.582031 C 59.425781 71.320312 59.195312 71.148438 58.957031 71.148438 C 58.703125 71.148438 58.476562 71.304688 58.421875 71.566406 C 58.382812 71.75 58.382812 71.953125 58.417969 72.140625 C 58.472656 72.425781 58.707031 72.601562 58.96875 72.605469 C 59.234375 72.609375 59.394531 72.46875 59.5 72.113281 Z M 59.5 72.113281 "/>
<path style=" stroke:none;fill-rule:nonzero;fill:rgb(95.686275%,98.039216%,95.686275%);fill-opacity:1;" d="M 48.410156 71.765625 C 47.542969 72.09375 46.675781 71.683594 46.410156 70.835938 C 46.128906 69.9375 46.613281 69.003906 47.476562 68.785156 C 47.972656 68.660156 48.46875 68.679688 48.953125 68.824219 C 49.488281 68.988281 49.820312 69.382812 49.984375 69.890625 C 50.25 70.71875 50.25 71.558594 49.941406 72.378906 C 49.695312 73.027344 49.183594 73.359375 48.507812 73.441406 C 48.257812 73.472656 48.003906 73.464844 47.75 73.441406 C 47.078125 73.382812 46.632812 73.003906 46.433594 72.308594 C 46.847656 72.253906 47.257812 72.199219 47.667969 72.15625 C 47.703125 72.152344 47.773438 72.222656 47.789062 72.273438 C 47.851562 72.480469 47.96875 72.621094 48.203125 72.613281 C 48.449219 72.605469 48.59375 72.449219 48.660156 72.238281 C 48.726562 72.023438 48.753906 71.796875 48.808594 71.535156 C 48.648438 71.628906 48.535156 71.691406 48.410156 71.765625 M 47.714844 69.832031 C 47.585938 70.109375 47.582031 70.394531 47.6875 70.683594 C 47.773438 70.902344 47.941406 71.023438 48.175781 71.027344 C 48.417969 71.03125 48.628906 70.921875 48.679688 70.683594 C 48.730469 70.449219 48.75 70.179688 48.679688 69.957031 C 48.542969 69.511719 48.046875 69.449219 47.714844 69.832031 Z M 47.714844 69.832031 "/>
<path style=" stroke:none;fill-rule:nonzero;fill:rgb(95.686275%,98.039216%,95.686275%);fill-opacity:1;" d="M 61.082031 71.480469 C 61.832031 70.574219 62.574219 69.6875 63.320312 68.804688 C 63.363281 68.753906 63.441406 68.710938 63.503906 68.707031 C 63.84375 68.699219 64.183594 68.703125 64.546875 68.703125 C 64.546875 69.632812 64.546875 70.539062 64.546875 71.472656 C 64.742188 71.484375 64.917969 71.492188 65.109375 71.5 C 65.109375 71.84375 65.109375 72.179688 65.109375 72.546875 C 64.933594 72.546875 64.757812 72.546875 64.554688 72.546875 C 64.554688 72.835938 64.554688 73.101562 64.554688 73.378906 C 64.15625 73.378906 63.785156 73.378906 63.386719 73.378906 C 63.386719 73.113281 63.386719 72.851562 63.386719 72.558594 C 62.613281 72.558594 61.863281 72.558594 61.078125 72.558594 C 61.078125 72.1875 61.078125 71.84375 61.082031 71.480469 M 62.554688 71.175781 C 62.480469 71.265625 62.40625 71.355469 62.308594 71.472656 C 62.691406 71.472656 63.027344 71.472656 63.355469 71.472656 C 63.355469 71.066406 63.355469 70.679688 63.355469 70.238281 C 63.070312 70.570312 62.824219 70.859375 62.554688 71.175781 Z M 62.554688 71.175781 "/>
<path style=" stroke:none;fill-rule:nonzero;fill:rgb(95.686275%,98.039216%,95.686275%);fill-opacity:1;" d="M 37.1875 70.164062 C 36.785156 70.09375 36.402344 70.023438 36.019531 69.957031 C 36.078125 69.429688 36.488281 68.960938 37.007812 68.8125 C 37.546875 68.664062 38.089844 68.664062 38.628906 68.808594 C 39.0625 68.921875 39.390625 69.183594 39.496094 69.644531 C 39.609375 70.148438 39.417969 70.539062 38.972656 70.828125 C 39.085938 70.886719 39.179688 70.925781 39.269531 70.980469 C 39.714844 71.25 39.882812 71.816406 39.6875 72.386719 C 39.488281 72.972656 39.070312 73.335938 38.464844 73.410156 C 38.019531 73.464844 37.550781 73.449219 37.105469 73.375 C 36.511719 73.28125 36.042969 72.738281 35.941406 72.125 C 36.375 72.066406 36.804688 72.011719 37.226562 71.953125 C 37.507812 72.570312 37.699219 72.714844 38.050781 72.59375 C 38.324219 72.496094 38.472656 72.144531 38.386719 71.789062 C 38.296875 71.410156 38.074219 71.324219 37.398438 71.429688 C 37.421875 71.109375 37.445312 70.800781 37.46875 70.480469 C 37.589844 70.476562 37.6875 70.480469 37.78125 70.464844 C 38.03125 70.425781 38.207031 70.214844 38.199219 69.96875 C 38.195312 69.757812 38.097656 69.613281 37.875 69.582031 C 37.601562 69.539062 37.417969 69.652344 37.324219 69.910156 C 37.289062 69.996094 37.246094 70.078125 37.1875 70.164062 Z M 37.1875 70.164062 "/>
<path style=" stroke:none;fill-rule:nonzero;fill:rgb(96.862745%,98.431373%,96.862745%);fill-opacity:1;" d="M 32.761719 69.601562 C 33.011719 69.351562 33.242188 69.101562 33.484375 68.867188 C 33.554688 68.796875 33.65625 68.71875 33.746094 68.710938 C 34.042969 68.691406 34.34375 68.703125 34.65625 68.703125 C 34.65625 70.273438 34.65625 71.816406 34.65625 73.375 C 34.21875 73.375 33.785156 73.375 33.3125 73.375 C 33.3125 72.402344 33.3125 71.4375 33.3125 70.476562 C 32.878906 70.679688 32.46875 70.867188 31.992188 71.089844 C 31.992188 70.683594 31.984375 70.347656 32 70.015625 C 32 69.96875 32.085938 69.910156 32.144531 69.882812 C 32.34375 69.785156 32.546875 69.699219 32.761719 69.601562 Z M 32.761719 69.601562 "/>
<path style=" stroke:none;fill-rule:nonzero;fill:rgb(95.686275%,98.039216%,95.686275%);fill-opacity:1;" d="M 41.878906 73.414062 C 41.882812 73.324219 41.894531 73.238281 41.929688 73.160156 C 42.476562 71.953125 43.027344 70.746094 43.566406 69.539062 C 43.648438 69.355469 43.738281 69.25 43.957031 69.277344 C 44.132812 69.296875 44.3125 69.28125 44.523438 69.28125 C 44.289062 69.808594 44.066406 70.300781 43.839844 70.792969 C 43.472656 71.601562 43.097656 72.402344 42.738281 73.210938 C 42.660156 73.382812 42.570312 73.445312 42.386719 73.429688 C 42.226562 73.410156 42.058594 73.421875 41.878906 73.414062 Z M 41.878906 73.414062 "/>
<path style=" stroke:none;fill-rule:nonzero;fill:rgb(95.686275%,98.039216%,95.686275%);fill-opacity:1;" d="M 54.519531 72.113281 C 54.472656 72.164062 54.425781 72.21875 54.378906 72.21875 C 53.800781 72.222656 53.222656 72.222656 52.625 72.222656 C 52.625 71.875 52.625 71.542969 52.625 71.191406 C 53.253906 71.191406 53.875 71.191406 54.523438 71.191406 C 54.523438 71.496094 54.523438 71.792969 54.519531 72.113281 Z M 54.519531 72.113281 "/>
<path style=" stroke:none;fill-rule:nonzero;fill:rgb(2.745098%,53.333336%,10.196079%);fill-opacity:1;" d="M 71.539062 46.28125 C 71.542969 45.644531 71.582031 45.035156 71.832031 44.464844 C 72.222656 43.570312 73.019531 43.042969 73.890625 43.078125 C 74.8125 43.117188 75.617188 43.710938 75.925781 44.648438 C 76.277344 45.730469 76.273438 46.828125 75.886719 47.902344 C 75.558594 48.820312 74.75 49.34375 73.789062 49.320312 C 72.855469 49.300781 72.0625 48.734375 71.789062 47.808594 C 71.644531 47.324219 71.621094 46.804688 71.539062 46.28125 Z M 71.539062 46.28125 "/>
<path style=" stroke:none;fill-rule:nonzero;fill:rgb(2.745098%,53.333336%,10.196079%);fill-opacity:1;" d="M 48.136719 45.273438 C 48.226562 44.808594 48.367188 44.386719 48.640625 44.015625 C 49.117188 43.371094 49.738281 42.996094 50.566406 43.085938 C 51.394531 43.175781 51.972656 43.65625 52.257812 44.398438 C 52.75 45.683594 52.757812 46.996094 52.195312 48.269531 C 51.824219 49.101562 50.992188 49.578125 50.128906 49.519531 C 49.292969 49.460938 48.550781 48.867188 48.28125 48 C 48.007812 47.113281 48.011719 46.203125 48.136719 45.273438 Z M 48.136719 45.273438 "/>
<path style=" stroke:none;fill-rule:nonzero;fill:rgb(3.921569%,53.333336%,11.372549%);fill-opacity:1;" d="M 61.140625 43.835938 C 61.527344 44.300781 61.652344 44.839844 61.71875 45.429688 C 60.152344 45.429688 58.601562 45.429688 57.050781 45.429688 C 56.984375 44.601562 57.585938 43.652344 58.417969 43.273438 C 59.109375 42.960938 60.316406 42.902344 61.140625 43.835938 Z M 61.140625 43.835938 "/>
<path style=" stroke:none;fill-rule:nonzero;fill:rgb(3.921569%,53.333336%,11.372549%);fill-opacity:1;" d="M 49.015625 58.707031 C 49.429688 58.734375 49.824219 58.734375 50.207031 58.796875 C 50.671875 58.867188 50.929688 59.214844 50.9375 59.695312 C 50.945312 60.195312 50.695312 60.597656 50.238281 60.636719 C 49.390625 60.707031 48.535156 60.703125 47.667969 60.726562 C 47.667969 60.027344 47.667969 59.382812 47.667969 58.707031 C 48.117188 58.707031 48.554688 58.707031 49.015625 58.707031 Z M 49.015625 58.707031 "/>
<path style=" stroke:none;fill-rule:nonzero;fill:rgb(3.921569%,53.333336%,11.372549%);fill-opacity:1;" d="M 50.5 55.90625 C 50.871094 56.613281 50.519531 57.246094 49.746094 57.277344 C 49.101562 57.304688 48.457031 57.296875 47.8125 57.304688 C 47.773438 57.304688 47.734375 57.296875 47.671875 57.292969 C 47.671875 56.726562 47.671875 56.164062 47.671875 55.570312 C 47.851562 55.570312 48.03125 55.566406 48.207031 55.570312 C 48.726562 55.574219 49.25 55.578125 49.769531 55.589844 C 50.046875 55.597656 50.304688 55.660156 50.5 55.90625 Z M 50.5 55.90625 "/>
<path style=" stroke:none;fill-rule:nonzero;fill:rgb(2.745098%,53.333336%,10.196079%);fill-opacity:1;" d="M 39.367188 44.289062 C 39.964844 45.605469 39.972656 46.933594 39.398438 48.226562 C 38.996094 49.132812 38.210938 49.566406 37.203125 49.523438 C 36.195312 49.476562 35.484375 48.953125 35.128906 48.03125 C 34.695312 46.902344 34.695312 45.726562 35.117188 44.59375 C 35.453125 43.691406 36.144531 43.160156 37.132812 43.089844 C 38.117188 43.023438 38.851562 43.4375 39.367188 44.289062 Z M 39.367188 44.289062 "/>
<path style=" stroke:none;fill-rule:nonzero;fill:rgb(3.921569%,53.333336%,11.372549%);fill-opacity:1;" d="M 59.496094 72.132812 C 59.394531 72.46875 59.234375 72.609375 58.96875 72.605469 C 58.707031 72.601562 58.472656 72.425781 58.417969 72.140625 C 58.382812 71.953125 58.382812 71.75 58.421875 71.566406 C 58.476562 71.304688 58.703125 71.148438 58.957031 71.148438 C 59.195312 71.148438 59.425781 71.320312 59.480469 71.582031 C 59.515625 71.753906 59.496094 71.933594 59.496094 72.132812 Z M 59.496094 72.132812 "/>
<path style=" stroke:none;fill-rule:nonzero;fill:rgb(3.921569%,53.333336%,11.372549%);fill-opacity:1;" d="M 47.726562 69.816406 C 48.046875 69.449219 48.542969 69.511719 48.679688 69.957031 C 48.75 70.179688 48.730469 70.449219 48.679688 70.683594 C 48.628906 70.921875 48.417969 71.03125 48.175781 71.027344 C 47.941406 71.023438 47.773438 70.902344 47.6875 70.683594 C 47.582031 70.394531 47.585938 70.109375 47.726562 69.816406 Z M 47.726562 69.816406 "/>
<path style=" stroke:none;fill-rule:nonzero;fill:rgb(3.921569%,53.333336%,11.372549%);fill-opacity:1;" d="M 62.566406 71.160156 C 62.824219 70.859375 63.070312 70.570312 63.355469 70.238281 C 63.355469 70.679688 63.355469 71.066406 63.355469 71.472656 C 63.027344 71.472656 62.691406 71.472656 62.308594 71.472656 C 62.40625 71.355469 62.480469 71.265625 62.566406 71.160156 Z M 62.566406 71.160156 "/>
</g>
</svg>
